<svg width="120" height="120" viewBox="0 0 120 120" fill="none" xmlns="http://www.w3.org/2000/svg">
<g clip-path="url(#clip0)">
<path d="M120 50.6142C120 63.8728 115.041 93.1113 102.216 89.8767C93.3703 87.6666 86.8477 81.1228 86.2922 74.0845C86.1998 75.2859 86.4176 84.1254 82.9453 92.9962C79.0664 102.908 73.425 104.989 69.375 104.989C66.3258 104.989 63.6938 104.989 61.5469 104.375C58.7388 103.569 61.2647 103.568 58.4531 104.375C56.3062 104.989 53.6742 104.989 50.625 104.989C38.5254 104.989 33.75 86.8209 33.75 74.9892C33.75 74.6916 33.7313 74.3892 33.7078 74.0845C33.1523 81.1228 26.6297 87.6666 17.7844 89.8767C4.98914 93.1041 0 63.9148 0 50.6142C0 33.8658 10.6922 26.2392 20.625 26.2392C25.2827 26.2392 30.7479 13.4674 43.1203 16.7025C51.4861 14.4464 68.5027 14.4433 76.8797 16.7025C89.2533 13.466 94.7044 26.2392 99.375 26.2392C109.308 26.2392 120 33.8658 120 50.6142V50.6142Z" fill="#B4B6BD"/>
<path d="M59.9996 97.4893C47.3991 97.4893 45.5091 82.2992 49.8488 77.9635C52.7035 75.1088 57.0605 76.5689 60.0019 78.1275C62.9433 76.5689 67.298 75.1111 70.1504 77.9635C74.4652 82.2746 72.6472 97.4893 59.9996 97.4893Z" fill="#EB5E28"/>
<path d="M60 93.7393V103.771C62.5784 105.079 66.1528 104.989 69.375 104.989C81.1924 104.989 85.8764 87.837 86.2313 76.2268C84.8555 71.7619 82.5469 67.4893 78.75 67.4893C71.25 67.4893 75 93.7393 60 93.7393V93.7393Z" fill="#A6A9B6"/>
<path d="M60 27.8799C60 27.8799 61.1848 34.9498 64.7395 36.3638C68.2941 37.778 60 40.606 60 49.0899C60 57.5738 60 27.8799 60 27.8799V27.8799Z" fill="#EB5E28"/>
<path d="M71.2496 39.3643C67.4996 39.3643 63.7496 44.9893 67.4996 46.8643C71.2496 48.7393 74.9996 39.3643 71.2496 39.3643Z" fill="#A6A9B6"/>
<path d="M59.9998 93.7393V103.771C57.4215 105.079 53.847 104.989 50.6248 104.989C38.8074 104.989 34.1234 87.837 33.7686 76.2268C35.1443 71.7619 37.4529 67.4893 41.2498 67.4893C48.7498 67.4893 44.9998 93.7393 59.9998 93.7393V93.7393Z" fill="#A6A9B6"/>
<path d="M41.25 52.4893C44.3566 52.4893 46.875 49.9709 46.875 46.8643C46.875 43.7577 44.3566 41.2393 41.25 41.2393C38.1434 41.2393 35.625 43.7577 35.625 46.8643C35.625 49.9709 38.1434 52.4893 41.25 52.4893Z" fill="#3A405F"/>
<path d="M99.375 26.2393C94.6969 26.2393 89.2634 13.4649 76.879 16.7026C68.5202 14.447 51.4957 14.4427 43.1212 16.7026C30.7444 13.4673 25.2968 26.2393 20.625 26.2393C10.6915 26.2393 0 33.867 0 50.6143C0 63.9102 4.9793 93.0765 17.7844 89.8773C26.6299 87.6657 33.1519 81.1231 33.7069 74.0846C33.7322 74.3888 33.7498 74.6909 33.7498 74.9893C33.7498 86.8198 38.5233 104.989 50.6248 104.989C53.7989 104.989 57.4148 105.079 59.9998 103.77C62.5905 105.082 66.1516 104.989 69.3748 104.989C81.5072 104.989 86.2498 86.7423 86.2498 74.9893C86.2498 74.6912 86.2673 74.3888 86.2927 74.0846C86.8479 81.1231 93.3696 87.6659 102.215 89.8773C115.012 93.0765 120 63.9516 120 50.6143C120 33.867 109.309 26.2393 99.375 26.2393V26.2393ZM57.9253 85.6133C58.871 86.2412 60.0195 86.3907 61.0577 86.0858C62.0484 85.7954 62.6672 85.0538 64.729 84.2084C64.7555 85.3801 64.5274 86.9895 63.7268 88.2214C63.2337 88.9803 62.3105 89.9893 60 89.9893C57.6893 89.9893 56.7663 88.9803 56.2732 88.2214C55.4726 86.9895 55.2443 85.3798 55.2708 84.2084C56.093 84.5455 57.1076 85.0723 57.9253 85.6133V85.6133ZM109.425 71.9905C107.062 80.131 104.606 82.3843 104 82.5927C97.5832 80.9757 93.75 76.5076 93.75 73.1143C93.75 68.3321 103.72 43.5603 86.625 30.7393C84.9684 29.4964 82.6174 29.8323 81.3752 31.4893C80.1326 33.1461 80.4684 35.4966 82.1252 36.7393C85.2673 39.0959 87.1158 42.1215 88.1189 45.4255C87.8517 55.4152 78.75 64.6048 78.75 74.9893C78.75 78.7475 78.0197 85.0025 75.9612 90.2633C74.9051 92.9619 72.6455 97.4893 69.375 97.4893C63.3113 97.4893 63.7451 97.2331 63.712 96.9812C73.058 94.2748 73.942 81.7529 70.1517 77.9626C67.2987 75.1093 62.9435 76.5695 60.0002 78.1273C57.0572 76.5695 52.702 75.1091 49.8485 77.9626C46.0631 81.748 46.9221 94.269 56.2882 96.9812C56.2784 97.0534 56.2713 97.1068 56.2669 97.157C56.2357 97.5127 50.9548 97.4893 50.625 97.4893C47.3548 97.4893 45.0949 92.9621 44.0391 90.2633C41.9805 85.0025 41.25 78.7473 41.25 74.9893C41.25 64.5908 32.1487 55.4305 31.8813 45.4255C32.8842 42.1215 34.733 39.0959 37.875 36.7393C39.5318 35.4966 39.8677 33.1461 38.625 31.4893C37.3823 29.8323 35.0318 29.4964 33.375 30.7393C16.2787 43.5615 26.25 68.3511 26.25 73.1143C26.25 76.5073 22.4182 80.9748 16.0003 82.5924C15.3937 82.3838 12.9377 80.1303 10.5755 71.9902C8.67844 65.4537 7.5 57.263 7.5 50.6143C7.5 39.1081 13.8752 33.7393 20.625 33.7393C25.1538 33.7393 28.4041 30.7958 31.2722 28.1989C35.1809 24.6591 37.6031 22.727 41.9393 24.1719C42.709 24.4285 43.5412 24.4285 44.3109 24.1719C50.8868 21.98 69.086 21.9709 75.6893 24.1719C76.4588 24.4285 77.2915 24.4285 78.0609 24.1719C82.3959 22.7272 84.8189 24.6589 88.728 28.1989C91.5959 30.796 94.8462 33.7393 99.3752 33.7393C106.135 33.7393 112.5 39.1196 112.5 50.6143C112.5 57.263 111.322 65.4538 109.425 71.9905V71.9905Z" fill="#3A405F"/>
<path d="M78.75 52.4893C81.8566 52.4893 84.375 49.9709 84.375 46.8643C84.375 43.7577 81.8566 41.2393 78.75 41.2393C75.6434 41.2393 73.125 43.7577 73.125 46.8643C73.125 49.9709 75.6434 52.4893 78.75 52.4893Z" fill="#3A405F"/>
<path d="M60.0001 27.8799C60.0001 27.8799 58.8153 34.9498 55.2605 36.3638C51.706 37.778 60.0001 40.606 60.0001 49.0899C60.0001 57.5738 60.0001 27.8799 60.0001 27.8799Z" fill="#EB5E28"/>
<path d="M48.7496 39.3643C52.4996 39.3643 56.2496 44.9893 52.4996 46.8643C48.7496 48.7393 44.9996 39.3643 48.7496 39.3643Z" fill="#A6A9B6"/>
</g>
<defs>
<clipPath id="clip0">
<rect width="120" height="120" fill="white"/>
</clipPath>
</defs>
</svg>
