<svg width="70" height="66" viewBox="0 0 70 66" fill="none" xmlns="http://www.w3.org/2000/svg">
<path d="M7.00093 41.5168L5.49244 40.0083L3.84277 41.658L6.1761 43.9913C6.63168 44.4467 7.37018 44.4467 7.82577 43.9913L13.6591 38.158L12.0094 36.5083L7.00093 41.5168Z" fill="#EB5E28"/>
<path d="M29.167 36.1665H15.167V38.4998H29.167V36.1665Z" fill="#3A405F"/>
<path d="M28.0003 39.6665H15.167V41.9998H28.0003V39.6665Z" fill="#3A405F"/>
<path d="M29.167 45.5H15.167V47.8333H29.167V45.5Z" fill="#3A405F"/>
<path d="M28.0003 49H15.167V51.3333H28.0003V49Z" fill="#3A405F"/>
<path d="M29.167 54.8335H15.167V57.1668H29.167V54.8335Z" fill="#3A405F"/>
<path d="M28.0003 58.333H15.167V60.6663H28.0003V58.333Z" fill="#3A405F"/>
<path d="M69.657 9.67398L60.3237 0.340666C60.1051 0.122646 59.8089 0 59.5 0H1.16682V0.0105001C0.540171 -0.00699991 0.0179434 0.486791 0.000443408 1.11358C5.90892e-06 1.13123 -0.000139924 1.14887 0.000151742 1.16666V64.1665C0.000151742 64.8108 0.522526 65.3332 1.16682 65.3332H31.5001C32.1444 65.3332 32.6667 64.8108 32.6667 64.1665V53.6665H68.8333C69.4776 53.6665 70 53.1442 70 52.4999V10.5C70 10.1899 69.8766 9.89273 69.657 9.67398ZM59.017 2.33333L66.017 9.33331H44.8164L37.8164 2.33333H59.017ZM34.5171 2.33333L41.5171 9.33331H35.4831L28.4831 2.33333H34.5171ZM43.1667 11.6666V21H36.1667V11.6666H43.1667ZM25.1838 2.33333L32.1837 9.33331H10.9831L3.98314 2.33333H25.1838ZM11.6668 27.9999C12.3111 27.9999 12.8335 27.4776 12.8335 26.8333C12.8335 24.9003 14.4004 23.3333 16.3334 23.3333C18.2665 23.3333 19.8334 24.9003 19.8334 26.8333C19.8334 27.4776 20.3558 27.9999 21.0001 27.9999H25.6668V31.4999H7.00014V27.9999H11.6668ZM2.33348 3.98299L9.33346 10.983V25.6666H5.83347C5.18918 25.6666 4.66681 26.189 4.66681 26.8333H2.33348V3.98299ZM30.3334 62.9999H2.33348V29.1666H4.66681V32.6666C4.66681 33.3109 5.18918 33.8333 5.83347 33.8333H26.8334C27.4777 33.8333 28.0001 33.3109 28.0001 32.6666V29.1666H30.3334V62.9999ZM67.6667 51.3332H32.6667V27.9999C32.6667 27.3556 32.1444 26.8333 31.5001 26.8333H28.0001C28.0001 26.189 27.4777 25.6666 26.8334 25.6666H22.0501C21.4181 22.5194 18.3544 20.4804 15.2072 21.1124C13.7869 21.3976 12.5243 22.2029 11.6668 23.3706V11.6666H33.8334V22.1666C33.8334 22.8109 34.3558 23.3333 35.0001 23.3333H44.3334C44.9777 23.3333 45.5 22.8109 45.5 22.1666V11.6666H67.6667V51.3332Z" fill="#3A405F"/>
</svg>
