<svg width="137" height="110" viewBox="0 0 137 110" fill="none" xmlns="http://www.w3.org/2000/svg">
<g clip-path="url(#clip0)">
<path d="M43.0492 76.5526L38.4193 73.8693V68.5032L43.0492 71.1865V76.5526Z" fill="#EB5E28"/>
<path d="M47.6785 68.5027L43.0492 71.186L38.4193 68.5027L43.0492 65.8193L47.6785 68.5027Z" fill="#EB5E28"/>
<path d="M47.6785 69.0393L43.5165 71.4227L38.8866 68.7394L43.0491 66.356L47.6785 69.0393Z" fill="#FFEECC"/>
<path d="M43.0488 65.6616L38.4199 68.345L38.2836 68.4291V73.9482L42.913 76.6317L43.0488 76.7104L43.1846 76.6317L47.8144 73.9482V68.4236L43.0488 65.6616ZM43.0488 65.977L47.4064 68.5025L45.2191 69.7705L43.0488 71.0285L42.3658 70.6326L38.6919 68.5027L43.0488 65.977ZM38.5552 73.7905V68.7393L42.913 71.2652V76.3161L38.5552 73.7905Z" fill="#16110D"/>
<path d="M41.9324 74.9454L41.2258 74.5359C41.1634 74.4911 41.1124 74.4322 41.0768 74.3639C41.0413 74.2957 41.0221 74.22 41.021 74.143V73.3974C41.021 73.246 41.1126 73.1764 41.2258 73.242L41.9324 73.6515C41.9948 73.6964 42.0458 73.7553 42.0813 73.8235C42.1169 73.8917 42.136 73.9674 42.1372 74.0444V74.79C42.1372 74.9414 42.0455 75.011 41.9324 74.9454Z" fill="#16110D"/>
<path d="M36.9519 64.8162L29.8715 60.7126L22.7905 64.8162V73.0243L29.8715 77.1279V68.9414L36.9519 64.8162Z" fill="#FFEECC"/>
<path d="M22.791 72.9979L29.8715 77.1015V68.915L22.791 64.7898V72.9979Z" fill="#EB5E28"/>
<path d="M37.0938 64.7343L29.8713 60.5479L22.6702 64.7218L22.6485 64.7343V64.7344L22.6474 64.8979L22.6485 64.8985V73.106L29.7293 77.21L29.8713 77.2922L30.0133 77.21L37.0228 73.1473L37.0938 73.106V64.8985V64.7343ZM29.8713 60.8768L33.1991 62.8056L26.4019 66.7451L23.0741 64.8164L29.8713 60.8768ZM29.7293 76.8816L22.9324 72.9419V65.0631L29.7293 69.0023V76.8816ZM32.7533 67.0854L29.8712 68.7557L26.5433 66.827L33.3406 62.8876L36.6682 64.8164L32.7533 67.0854Z" fill="#16110D"/>
<path d="M27.0588 68.9297L25.7453 68.1684C25.6847 68.1275 25.6142 68.1039 25.5413 68.0999C25.4684 68.096 25.3958 68.112 25.3312 68.1461C25.2581 68.1971 25.1996 68.2667 25.1619 68.3477C25.1241 68.4287 25.1083 68.5183 25.1162 68.6074C25.1185 68.7889 25.1639 68.9672 25.2487 69.1276C25.3334 69.2879 25.455 69.4257 25.6034 69.5294L26.9168 70.2906C26.9882 70.3342 27.0698 70.3582 27.1534 70.3602C27.2158 70.3603 27.2772 70.3439 27.3313 70.3125C27.4045 70.2615 27.4628 70.1919 27.5005 70.1109C27.5382 70.0299 27.5539 69.9403 27.546 69.8512C27.5437 69.6698 27.4982 69.4916 27.4135 69.3313C27.3288 69.171 27.2072 69.0333 27.0588 68.9297ZM27.1894 70.0661C27.1496 70.0883 27.0903 70.0619 27.0588 70.0438L25.7453 69.2825C25.6401 69.2041 25.5542 69.1024 25.4943 68.9854C25.4345 68.8683 25.4022 68.739 25.4001 68.6074C25.4001 68.4802 25.4392 68.4124 25.4728 68.3929C25.5133 68.3689 25.5722 68.3968 25.6034 68.4152L25.6942 68.4678C25.7086 68.62 25.7559 68.7672 25.8326 68.8992C25.9094 69.0313 26.0138 69.145 26.1387 69.2324L27.2598 69.8819C27.2539 69.9878 27.2215 70.0474 27.1894 70.0661Z" fill="#16110D"/>
<path d="M35.9288 70.6259C35.8932 70.607 35.8531 70.5982 35.8128 70.6004C35.7725 70.6027 35.7336 70.616 35.7003 70.6388L34.6542 71.2448C34.57 71.3038 34.501 71.3821 34.453 71.4732C34.4049 71.5642 34.3792 71.6655 34.3779 71.7686V72.8946C34.3734 72.9442 34.382 72.9941 34.4029 73.0393C34.4238 73.0845 34.4563 73.1233 34.4969 73.1518C34.5264 73.169 34.5599 73.178 34.594 73.1779C34.6404 73.1769 34.6857 73.1634 34.7252 73.1389L35.7709 72.533H35.7714C35.8555 72.4739 35.9244 72.3955 35.9724 72.3043C36.0205 72.2132 36.0462 72.1119 36.0476 72.0088V70.8832C36.0521 70.8336 36.0436 70.7837 36.0227 70.7385C36.0019 70.6933 35.9695 70.6545 35.9288 70.6259Z" fill="#EB5E28"/>
<path d="M43.1251 97.3147L30.8351 104.438L18.5452 97.3147L30.8351 90.1914L43.1251 97.3147Z" fill="#FFEECC"/>
<path d="M32.5855 52.494L63.916 34.3792L72.0708 39.0382L83.2442 32.2502L94.9872 39.3021L87.4926 43.6966L105.035 54.1094L85.4013 62.7216L66.7707 51.7757L49.5227 62.2181L32.5855 52.494Z" fill="#FFEECC"/>
<path d="M51.4243 58.4907L40.2741 53.0071V33.2432L51.4243 38.787V58.4907Z" fill="#EB5E28"/>
<path d="M62.2543 32.0806L51.4177 38.6203L40.1278 33.0075V53.0988L51.2783 58.5824L51.4314 58.6577L51.5704 58.5739L62.2543 52.1264V32.0806ZM40.4198 52.9163V33.4797L51.2783 38.8783V58.2557L40.4198 52.9163Z" fill="black"/>
<path d="M50.9664 25.9243L38.6391 33.2914L51.4191 39.6705L63.9292 32.2103L50.9664 25.9243Z" fill="#EB5E28"/>
<path d="M50.9554 26.8625L38.6281 34.2292L51.408 40.6087L63.9176 33.148L50.9554 26.8625Z" fill="#FFEECC"/>
<path d="M38.6391 33.2915V34.3885L51.4191 40.7554V39.6706L38.6391 33.2915Z" fill="#EB5E28"/>
<path d="M63.922 32.044L51.03 25.7925L50.9592 25.7583L38.633 33.1245L38.4933 33.208V34.4793L51.273 40.8465L51.4252 40.9224L51.565 40.839L64.0751 33.3748V32.1183L63.922 32.044ZM51.273 40.519L38.7853 34.2975V33.5282L51.273 39.7618V40.519ZM38.9443 33.2797L50.9736 26.0908L63.6206 32.2237L51.4129 39.504L38.9443 33.2797Z" fill="black"/>
<path d="M50.5116 46.9874V43.2092L41.9374 39.075V42.8696L50.5116 46.9874Z" fill="#FFEECC"/>
<path d="M50.1922 46.3407L41.3256 42.0827V37.9626L50.1922 42.2377V46.3407ZM41.6177 41.8979L49.9001 45.8754V42.4221L41.6177 38.4288V41.8979Z" fill="black"/>
<path d="M61.0955 37.1719V41.1152L52.6778 46.1925V42.3058L61.0955 37.1719Z" fill="#EB5E28"/>
<path d="M52.5317 46.4511V42.2235L61.2412 36.9114V41.1978L52.5317 46.4511ZM52.8238 42.3884V45.9331L60.9491 41.0318V37.4325L52.8238 42.3884Z" fill="black"/>
<path d="M55.0689 35.3815L50.3652 33.0653V29.4373L52.7173 30.5692L55.0689 35.3815Z" fill="#EB5E28"/>
<path d="M49.9463 29.2462L52.7173 30.5691L55.0688 35.3814L55.8787 35.8046L53.1209 30.1481L49.9463 28.5999V29.2462Z" fill="#EB5E28"/>
<path d="M57.0152 27.8331L53.1209 30.1483L49.9463 28.6001L53.78 26.2695L57.0152 27.8331Z" fill="#EB5E28"/>
<path d="M57.0131 28.4578L53.6868 30.4525L50.5117 28.9037L53.7784 26.8943L57.0131 28.4578Z" fill="#FFEECC"/>
<path d="M57.1237 27.7223L57.1236 27.7223L57.0077 27.6663L53.7722 26.1023L49.9384 28.4325L49.8001 28.5166V29.3384L50.2195 29.5387V33.1561L54.9986 35.5097L55.7689 35.9121L55.8837 35.9721L56.0694 35.8614L59.9737 33.5331L57.1237 27.7223ZM53.7882 26.4354L56.7059 27.8458L53.1144 29.9816L50.2515 28.5852L53.7882 26.4354ZM50.5116 32.9732V29.6782L52.6082 30.6793L53.6587 32.8289L54.7492 35.0605L50.5116 32.9732ZM55.1788 35.2733L53.9927 32.8464L52.8257 30.4583L52.7303 30.4128L50.2195 29.204V29.214L50.0922 29.1532V28.8335L53.012 30.2577L55.5526 35.4685L55.1788 35.2733Z" fill="black"/>
<path d="M50.5116 52.0238V48.2455L41.9374 44.1118V47.9059L50.5116 52.0238Z" fill="#FFEECC"/>
<path d="M50.1922 51.376L41.3256 47.1186V42.9985L50.1922 47.2732V51.376ZM41.6177 46.9338L49.9001 50.9111V47.4579L41.6177 43.4646V46.9338Z" fill="black"/>
<path d="M61.0955 42.2073V46.1506L52.6778 51.2279V47.3412L61.0955 42.2073Z" fill="#EB5E28"/>
<path d="M52.5317 51.4865V47.2588L61.2412 41.9465V46.233L52.5317 51.4865ZM52.8238 47.4237V50.968L60.9491 46.0669V42.4676L52.8238 47.4237Z" fill="black"/>
<path d="M51.2784 41.3181L51.2731 40.9733L62.2542 34.5217V34.8555L51.2784 41.3181Z" fill="#EB5E28"/>
<path d="M65.8507 90.5943L87.1221 102.965L110.614 89.6354L88.6238 76.8735L65.8507 90.5943Z" fill="#FFEECC"/>
<path d="M104.903 56.7539L74.5235 39.358L94.503 27.5203L108.942 36.0902L107.869 37.9119L94.5024 29.9772L78.6807 39.3512L106.558 55.7463L104.903 56.7539Z" fill="#15100C"/>
<path d="M112.143 71.4384L111.083 69.6088L132.045 57.3817L117.881 48.8504L104.903 56.7539L103.557 55.9547L117.884 46.385L136.191 57.4103L112.143 71.4384Z" fill="#15100C"/>
<path d="M46.3576 110L7.90138 87.8112L8.95149 85.9768L46.3544 107.557L111.083 69.6086L112.142 71.4383L46.3576 110Z" fill="#15100C"/>
<path d="M9.63137 90.6167C13.2665 90.6167 16.2133 88.789 16.2133 86.5344C16.2133 84.2799 13.2665 82.4521 9.63137 82.4521C5.99628 82.4521 3.04945 84.2799 3.04945 86.5344C3.04945 88.789 5.99628 90.6167 9.63137 90.6167Z" fill="#FFEECC"/>
<path d="M14.8466 85.7492H14.8468L14.4768 84.206H13.5927C12.3932 83.5337 11.0422 83.1807 9.66837 83.1807C8.29452 83.1807 6.94353 83.5337 5.744 84.206H4.89401L4.48951 85.7294H4.49542C4.4489 85.8872 4.4242 86.0506 4.42201 86.2152C4.42201 87.8912 6.77089 89.2498 9.66841 89.2498C12.5659 89.2498 14.9148 87.8912 14.9148 86.2152C14.9125 86.0575 14.8896 85.9009 14.8466 85.7492Z" fill="black"/>
<path d="M4.4223 86.215L4.80641 87.3554L6.36708 88.5714L8.04262 89.0755L8.27393 87.0925L7.00252 86.8021L5.28009 85.7077L4.85436 84.7429L4.89388 84.2061L4.4223 86.215Z" fill="#EB5E28"/>
<path d="M9.66845 89.4241C6.67994 89.4241 4.24867 87.9847 4.24867 86.2156C4.24903 86.1111 4.25866 86.0068 4.27744 85.9039H4.27001L4.3218 85.6851L4.76092 84.0322H5.69332C6.91116 83.3597 8.27854 83.0071 9.66845 83.0071C11.0584 83.0071 12.4257 83.3597 13.6436 84.0322H14.6132L15.0155 85.7088H15.0151C15.0616 85.8738 15.0862 86.0442 15.0882 86.2156C15.0882 87.9847 12.657 89.4241 9.66845 89.4241ZM4.71492 85.5559H4.71825L4.66239 85.7772C4.62009 85.9195 4.59753 86.0671 4.59537 86.2156C4.59537 87.793 6.8712 89.076 9.66845 89.076C12.4657 89.076 14.7416 87.793 14.7416 86.2156C14.7394 86.0731 14.7183 85.9314 14.6789 85.7945L14.6779 85.7904L14.3404 84.3802H13.5413L13.4983 84.352C12.3269 83.6982 11.0087 83.3551 9.66845 83.3551C8.32816 83.3551 7.01001 83.6982 5.83858 84.352L5.79558 84.3802H5.02701L4.71492 85.5559Z" fill="black"/>
<path d="M9.6851 87.3555C12.353 87.3555 14.5157 86.1046 14.5157 84.5614C14.5157 83.0183 12.353 81.7673 9.6851 81.7673C7.01725 81.7673 4.85452 83.0183 4.85452 84.5614C4.85452 86.1046 7.01725 87.3555 9.6851 87.3555Z" fill="#EB5E28"/>
<path d="M9.63133 88.1483C12.2992 88.1483 14.4619 86.8973 14.4619 85.3542C14.4619 83.811 12.2992 82.5601 9.63133 82.5601C6.96347 82.5601 4.80075 83.811 4.80075 85.3542C4.80075 86.8973 6.96347 88.1483 9.63133 88.1483Z" fill="#FFEECC"/>
<path d="M9.68507 81.593C6.92576 81.593 4.68106 82.9246 4.68106 84.5612C4.68106 86.1977 6.92576 87.5294 9.68507 87.5294C12.4444 87.5294 14.6891 86.1977 14.6891 84.5612C14.6891 82.9246 12.4444 81.593 9.68507 81.593ZM9.68507 87.1813C7.11707 87.1813 5.02777 86.006 5.02777 84.5612C5.02777 83.1164 7.11707 81.941 9.68507 81.941C12.2531 81.941 14.3424 83.1163 14.3424 84.5612C14.3424 86.0061 12.2531 87.1813 9.68507 87.1813Z" fill="black"/>
<path d="M9.66845 85.7075C11.0254 85.7075 12.1254 85.1211 12.1254 84.3978C12.1254 83.6745 11.0254 83.0881 9.66845 83.0881C8.3115 83.0881 7.21147 83.6745 7.21147 84.3978C7.21147 85.1211 8.3115 85.7075 9.66845 85.7075Z" fill="black"/>
<path d="M8.80809 50.2712C4.57942 52.2272 0.788964 58.1501 0.429778 63.6234C0.285934 65.8139 0.717305 67.5851 1.57267 68.7925L7.66262 80.3861L10.5828 81.8174C10.8457 81.2199 15.1063 60.8564 15.3019 60.2435V60.2434C15.7587 58.8124 18.8752 57.9128 18.8986 56.5191C18.9841 51.4202 12.9311 48.3642 8.80809 50.2712ZM8.27334 63.336C6.60855 64.1705 5.3323 63.1467 5.43684 61.0667C5.54001 59.0138 6.95115 56.7322 8.57553 55.9535C10.184 55.1824 11.4258 56.1638 11.3625 58.1619C11.2983 60.1858 9.92153 62.5097 8.27334 63.336Z" fill="#EB5E28"/>
<path d="M9.21022 51.7058C4.9816 53.6617 1.19103 59.5846 0.831892 65.0579C0.688049 67.2485 1.11942 69.0197 1.97479 70.2271L7.50759 80.76L10.6429 81.6158C10.9058 81.0182 15.5084 62.291 15.704 61.678C16.1609 60.2469 19.2773 59.3474 19.3007 57.9536C19.3862 52.8548 13.3333 49.7988 9.21022 51.7058ZM8.67546 64.7706C7.01067 65.605 5.73447 64.5813 5.83896 62.5012C5.94218 60.4483 7.35327 58.1668 8.97764 57.3881C10.5862 56.6169 11.828 57.5983 11.7646 59.5964C11.7004 61.6203 10.3237 63.9443 8.67546 64.7706Z" fill="#FFEECC"/>
<path d="M10.4148 82.2113L7.36789 80.6906L1.22885 69.0041C0.298555 67.6758 -0.11676 65.8068 0.0282425 63.5966C0.390485 58.0752 4.25355 51.9331 8.63961 49.9043C10.8598 48.8778 13.7611 49.1764 16.0338 50.6646C17.0354 51.276 17.8625 52.1369 18.435 53.1638C19.0074 54.1907 19.3058 55.3487 19.301 56.5254C19.2849 57.4677 18.3055 58.1405 17.3578 58.791C16.6212 59.297 15.8594 59.8202 15.685 60.3664C15.6048 60.6281 14.8093 64.3475 13.9674 68.2851C12.0002 77.4848 11.0978 81.6458 10.9509 81.9802L10.4148 82.2113ZM7.95717 80.0808L10.3246 81.2411C10.743 79.516 12.1339 73.0128 13.1808 68.1156C14.2357 63.1813 14.8368 60.3771 14.9189 60.12C15.1774 59.3101 16.0551 58.7072 16.9037 58.1245C17.6824 57.5897 18.4877 57.0366 18.4964 56.5118C18.4974 55.4719 18.2308 54.4494 17.7224 53.5435C17.2139 52.6375 16.4808 51.8788 15.5943 51.3411C13.5478 50.0013 10.9501 49.7246 8.97672 50.6378C4.82993 52.5558 1.17621 58.3927 0.831245 63.6494C0.697676 65.6845 1.06739 67.382 1.90069 68.5585L1.92855 68.6038L7.95717 80.0808ZM7.16789 64.0312C6.78457 64.0354 6.40857 63.9257 6.08711 63.7161C5.35715 63.2368 4.9741 62.2637 5.035 61.046C5.14623 58.8376 6.62538 56.4404 8.40229 55.5887C8.75332 55.3869 9.15123 55.2818 9.55572 55.284C9.96021 55.2863 10.3569 55.3957 10.7057 55.6013C11.4156 56.0667 11.8019 57.0046 11.7646 58.1744C11.6946 60.3753 10.2402 62.801 8.45336 63.6971H8.45299C8.05621 63.907 7.61626 64.0214 7.16789 64.0312ZM9.62023 56.0953C9.31696 56.1037 9.01932 56.1796 8.74884 56.3176C7.24017 57.0409 5.93468 59.1803 5.83884 61.0866C5.79247 62.0103 6.0431 62.7222 6.52711 63.0401C6.77075 63.1688 7.04398 63.2306 7.31909 63.2191C7.59419 63.2076 7.86136 63.1233 8.09348 62.9746C9.6139 62.2122 10.9002 60.0474 10.9607 58.1487C10.9886 57.2673 10.7352 56.5854 10.2657 56.2775C10.0731 56.1545 9.84856 56.0911 9.62023 56.0953Z" fill="black"/>
<path d="M16.8656 51.382C15.4222 50.4374 13.5387 50.4209 11.5598 51.3355C7.17378 53.3645 3.31072 59.5068 2.94842 65.0282C2.80347 67.2384 3.21878 69.1075 4.14907 70.4354L10.2494 82.0487C10.2835 82.1136 10.3356 82.1674 10.3995 82.2034C10.4633 82.2394 10.536 82.2562 10.6091 82.2517C10.6822 82.2473 10.7524 82.2217 10.8114 82.1782C10.8704 82.1347 10.9156 82.075 10.9416 82.0063L17.9004 63.6569C18.1677 63.05 18.4029 62.4294 18.6052 61.7977C19.0722 60.3776 19.3293 58.8964 19.3682 57.4013C19.4149 54.6072 18.5262 52.4696 16.8656 51.382Z" fill="black"/>
<path d="M15.3074 61.1669C15.2926 62.1316 14.9798 63.0679 14.4123 63.8465C13.7537 64.7707 12.9071 65.544 11.9286 66.1153L7.54951 68.7831V58.6567L11.5552 56.2159C12.6235 55.5652 13.4321 55.2871 13.9812 55.3815C14.5291 55.4753 14.8034 55.9418 14.804 56.7807C14.7996 57.3741 14.6583 57.9583 14.3911 58.4876C14.0833 59.0912 13.6552 59.6249 13.1335 60.0555C13.8408 59.7196 14.3801 59.6485 14.7513 59.8421C15.1218 60.0361 15.3072 60.4777 15.3074 61.1669ZM12.9589 58.192C12.9589 57.7372 12.8337 57.49 12.5833 57.4504C12.1799 57.4593 11.7898 57.5964 11.469 57.8421L9.38211 59.1141V61.6227L11.4814 60.3435C11.9243 60.0953 12.3089 59.7543 12.6089 59.3437C12.8387 59.004 12.9607 58.6026 12.9589 58.192ZM13.4689 62.1218C13.4689 61.1734 12.8809 61.0575 11.705 61.7739L9.38211 63.1896V66.0929L11.773 64.6357C12.2812 64.3497 12.7209 63.9556 13.0612 63.4808C13.3295 63.079 13.4715 62.6056 13.4689 62.1218Z" fill="#EB5E28"/>
<path d="M30.6012 107.783L25.9719 105.1V99.7339L30.6012 102.417V107.783Z" fill="#EB5E28"/>
<path d="M35.2311 99.7341L30.6012 102.417L25.9719 99.7341L30.6012 97.0508L35.2311 99.7341Z" fill="#EB5E28"/>
<path d="M35.2311 100.27L31.0692 102.654L26.4393 99.9706L30.6013 97.5872L35.2311 100.27Z" fill="#FFEECC"/>
<path d="M30.6013 96.8928L25.9724 99.5762L25.8361 99.6603V105.179L30.4655 107.863L30.6013 107.942L30.7372 107.863L35.3669 105.179V99.6548L30.6013 96.8928ZM30.6013 97.2082L34.959 99.7337L32.7717 101.002L30.6013 102.26L29.9183 101.864L26.2444 99.7339L30.6013 97.2082ZM26.1077 105.022V99.9705L30.4655 102.496V107.547L26.1077 105.022Z" fill="#16110D"/>
<path d="M29.4849 106.177L28.7783 105.767C28.716 105.722 28.6649 105.663 28.6293 105.595C28.5938 105.527 28.5746 105.451 28.5735 105.374V104.629C28.5735 104.477 28.6652 104.408 28.7783 104.473L29.4849 104.883C29.5473 104.928 29.5983 104.986 29.6339 105.055C29.6694 105.123 29.6886 105.199 29.6898 105.276V106.021C29.6898 106.173 29.598 106.242 29.4849 106.177Z" fill="#16110D"/>
<path d="M111.772 42.9441C115.977 42.9441 119.386 40.8298 119.386 38.2218C119.386 35.6137 115.977 33.4995 111.772 33.4995C107.567 33.4995 104.158 35.6137 104.158 38.2218C104.158 40.8298 107.567 42.9441 111.772 42.9441Z" fill="#FFEECC"/>
<path d="M117.603 37.1932H117.603L117.175 35.408H116.153C114.765 34.6302 113.202 34.2219 111.613 34.2219C110.024 34.2219 108.461 34.6302 107.073 35.408H106.09L105.622 37.1703H105.629C105.575 37.3528 105.547 37.5418 105.544 37.7322C105.544 39.6709 108.261 41.2425 111.613 41.2425C114.965 41.2425 117.682 39.6709 117.682 37.7322C117.679 37.5498 117.653 37.3686 117.603 37.1932Z" fill="black"/>
<path d="M105.544 37.7321L105.989 39.0508L107.794 40.4578L109.732 41.0412L109.999 38.7467L108.529 38.4113L106.537 37.145L106.045 36.0289L106.09 35.408L105.544 37.7321Z" fill="#EB5E28"/>
<path d="M111.613 41.4435C108.156 41.4435 105.343 39.7785 105.343 37.7321C105.344 37.6111 105.355 37.4905 105.377 37.3715H105.368L105.428 37.1183L105.936 35.2063H107.015C108.423 34.4284 110.005 34.0205 111.613 34.0205C113.221 34.0205 114.803 34.4284 116.211 35.2063H117.333L117.798 37.1458H117.798C117.852 37.3366 117.88 37.5338 117.883 37.7321C117.883 39.7785 115.07 41.4435 111.613 41.4435ZM105.883 36.9689H105.887L105.822 37.2249C105.773 37.3895 105.747 37.5602 105.745 37.7321C105.745 39.5567 108.377 41.0409 111.613 41.0409C114.849 41.0409 117.481 39.5567 117.481 37.7321C117.479 37.5672 117.455 37.4033 117.409 37.2449L117.408 37.2402L117.017 35.6089H116.093L116.043 35.5763C114.688 34.82 113.163 34.4231 111.613 34.4231C110.063 34.4231 108.538 34.82 107.183 35.5763L107.133 35.6089H106.244L105.883 36.9689Z" fill="black"/>
<path d="M111.632 39.0505C114.718 39.0505 117.22 37.6034 117.22 35.8183C117.22 34.0333 114.718 32.5862 111.632 32.5862C108.546 32.5862 106.044 34.0333 106.044 35.8183C106.044 37.6034 108.546 39.0505 111.632 39.0505Z" fill="#EB5E28"/>
<path d="M111.57 39.9672C114.656 39.9672 117.158 38.5201 117.158 36.7351C117.158 34.95 114.656 33.5029 111.57 33.5029C108.484 33.5029 105.982 34.95 105.982 36.7351C105.982 38.5201 108.484 39.9672 111.57 39.9672Z" fill="#FFEECC"/>
<path d="M111.632 32.3848C108.44 32.3848 105.844 33.9252 105.844 35.8182C105.844 37.7114 108.44 39.2518 111.632 39.2518C114.824 39.2518 117.421 37.7114 117.421 35.8182C117.421 33.9252 114.824 32.3848 111.632 32.3848ZM111.632 38.8492C108.662 38.8492 106.245 37.4897 106.245 35.8182C106.245 34.1469 108.662 32.7873 111.632 32.7873C114.603 32.7873 117.02 34.1469 117.02 35.8182C117.02 37.4897 114.603 38.8492 111.632 38.8492Z" fill="black"/>
<path d="M111.613 37.1442C113.183 37.1442 114.455 36.466 114.455 35.6293C114.455 34.7925 113.183 34.1143 111.613 34.1143C110.043 34.1143 108.771 34.7925 108.771 35.6293C108.771 36.466 110.043 37.1442 111.613 37.1442Z" fill="black"/>
<path d="M110.773 0.967723C106.557 2.91746 102.779 8.82196 102.421 14.2782C102.277 16.462 102.707 18.2276 103.56 19.4312L109.631 30.9886L112.542 32.4155C112.804 31.8199 117.051 11.5199 117.246 10.9089V10.9088C117.702 9.48218 120.808 8.58547 120.832 7.19604C120.917 2.1131 114.883 -0.933406 110.773 0.967723ZM110.24 13.9917C108.58 14.8236 107.308 13.803 107.412 11.7295C107.515 9.68297 108.922 7.40851 110.541 6.63223C112.144 5.86352 113.382 6.84185 113.319 8.83365C113.255 10.8514 111.883 13.168 110.24 13.9917Z" fill="#EB5E28"/>
<path d="M111.154 2.3022C106.938 4.25194 103.16 10.1564 102.802 15.6126C102.658 17.7964 103.088 19.5621 103.941 20.7656L109.517 31.381L112.518 31.8415C112.78 31.2458 117.432 12.8543 117.627 12.2433V12.2432C118.083 10.8166 121.19 9.91995 121.213 8.53046C121.298 3.44752 115.264 0.401072 111.154 2.3022ZM110.621 15.3261C108.961 16.1581 107.689 15.1374 107.793 13.0639C107.896 11.0174 109.303 8.74294 110.922 7.96671C112.526 7.19795 113.763 8.17628 113.7 10.1681C113.636 12.1858 112.264 14.5025 110.621 15.3261Z" fill="#FFEECC"/>
<path d="M112.376 32.782L109.337 31.2927L103.217 19.6423C102.29 18.3188 101.876 16.4556 102.02 14.2517C102.382 8.74752 106.233 2.62452 110.605 0.602259C112.817 -0.420401 115.711 -0.123134 117.977 1.3605C118.975 1.96999 119.799 2.82822 120.37 3.8519C120.94 4.87559 121.238 6.02995 121.233 7.20295C121.217 8.14204 120.24 8.81279 119.296 9.46149C118.561 9.96573 117.802 10.4873 117.628 11.0318C117.548 11.2925 116.755 14.9995 115.917 18.9241C113.955 28.0964 113.056 32.2446 112.909 32.5782L112.376 32.782ZM109.925 30.6845L112.285 31.8414C112.702 30.1213 114.088 23.6376 115.132 18.755C116.184 13.8373 116.782 11.0424 116.864 10.7861C117.122 9.97869 117.997 9.37797 118.843 8.79687C119.619 8.26369 120.422 7.71227 120.431 7.18941C120.432 6.15287 120.166 5.13363 119.659 4.23053C119.153 3.32743 118.422 2.57112 117.538 2.03496C116.581 1.38148 115.478 0.975515 114.327 0.853153C113.176 0.730791 112.013 0.895823 110.941 1.33358L110.773 0.967918L110.941 1.33358C106.807 3.24534 103.165 9.06398 102.821 14.3047C102.688 16.3337 103.056 18.0257 103.887 19.1979L103.915 19.2435L109.925 30.6845ZM109.138 14.6851C108.756 14.6892 108.381 14.58 108.06 14.371C107.333 13.8935 106.951 12.9234 107.011 11.7092C107.122 9.50793 108.597 7.11821 110.368 6.26899C110.718 6.06793 111.115 5.96321 111.518 5.96543C111.921 5.96764 112.317 6.0767 112.665 6.28158C113.372 6.74547 113.757 7.68043 113.72 8.84659C113.65 11.0404 112.201 13.4587 110.419 14.3519L110.24 13.9918L110.419 14.3519C110.023 14.5612 109.585 14.6752 109.138 14.6851ZM111.582 6.77398C111.28 6.78237 110.983 6.85805 110.714 6.99555C109.21 7.71682 107.908 9.84957 107.813 11.7497C107.766 12.6705 108.017 13.3802 108.499 13.6969C108.742 13.8254 109.014 13.8871 109.288 13.8757C109.563 13.8642 109.829 13.78 110.06 13.6316C111.576 12.8716 112.859 10.7135 112.918 8.82104C112.946 7.94231 112.694 7.26251 112.226 6.95562C112.034 6.83292 111.81 6.76975 111.582 6.77398Z" fill="black"/>
<path d="M118.805 2.07589C117.366 1.13326 115.488 1.11734 113.516 2.02935C109.144 4.05155 105.293 10.1748 104.931 15.6789C104.787 17.8826 105.201 19.7458 106.129 21.0696L112.196 32.6193C112.231 32.6865 112.285 32.742 112.351 32.7792C112.417 32.8164 112.492 32.8337 112.567 32.8291C112.643 32.8245 112.715 32.7981 112.776 32.7532C112.837 32.7082 112.884 32.6466 112.911 32.5756L119.837 14.3121C120.103 13.7071 120.338 13.0885 120.539 12.4588C121.005 11.0431 121.261 9.56658 121.3 8.07623C121.347 5.29081 120.461 3.15986 118.805 2.07589Z" fill="black"/>
<path d="M115.684 15.1801L114.91 13.0727L111.586 15.0982L110.811 18.149L108.985 19.262L112.168 7.22779L114.322 5.91479L117.492 14.0785L115.684 15.1801ZM113.245 8.12615L113.208 8.30599C113.166 8.50382 113.117 8.72941 113.058 8.98463C113.002 9.2391 112.647 10.6639 111.994 13.2591L114.501 11.7312L113.641 9.35314L113.375 8.54111L113.245 8.12615Z" fill="#EB5E28"/>
<path d="M124.152 85.9941L119.522 83.3108V77.9441L124.152 80.6274V85.9941Z" fill="#EB5E28"/>
<path d="M128.781 77.9445L124.152 80.6279L119.522 77.9445L124.152 75.2617L128.781 77.9445Z" fill="#EB5E28"/>
<path d="M128.781 78.4812L124.619 80.8646L119.99 78.1818L124.152 75.7979L128.781 78.4812Z" fill="#FFEECC"/>
<path d="M124.151 75.1035L119.522 77.7869L119.386 77.871V83.3901L124.016 86.0735L124.151 86.1523L124.287 86.0735L128.917 83.3901V77.8654L124.151 75.1035ZM124.151 75.4189L128.509 77.9444L126.322 79.2124L124.151 80.4703L123.468 80.0745L119.795 77.9445L124.151 75.4189ZM119.658 83.2324V78.1812L124.016 80.707V85.7579L119.658 83.2324Z" fill="#16110D"/>
<path d="M123.035 84.3871L122.328 83.9776C122.266 83.9327 122.215 83.8738 122.179 83.8056C122.144 83.7373 122.125 83.6617 122.124 83.5847V82.8391C122.124 82.6876 122.215 82.618 122.328 82.6836L123.035 83.0932C123.097 83.138 123.148 83.1969 123.184 83.2652C123.22 83.3334 123.239 83.4091 123.24 83.4861V84.2317C123.24 84.3831 123.148 84.4527 123.035 84.3871Z" fill="#16110D"/>
<path d="M99.0749 86.4092L91.9939 82.3052L84.9134 86.4092V94.6169L91.9939 98.7209V90.5339L99.0749 86.4092Z" fill="#FFEECC"/>
<path d="M84.9134 94.5904L91.9944 98.6945V90.5075L84.9134 86.3828V94.5904Z" fill="#EB5E28"/>
<path d="M99.2166 86.3271L91.9941 82.1406L84.793 86.3146L84.7713 86.3271V86.3272L84.7702 86.4906L84.7713 86.4912V94.6987L91.8521 98.8028L91.9941 98.885L92.1361 98.8028L99.1456 94.7402L99.2166 94.6987V86.4912V86.3271ZM91.9941 82.4695L95.3218 84.3984L88.5247 88.3378L85.1969 86.4092L91.9941 82.4695ZM91.8521 98.4743L85.0552 94.5347V86.6558L91.8521 90.5951V98.4743ZM94.876 88.6782L91.994 90.3485L88.6661 88.4198L95.4634 84.4804L98.791 86.4092L94.876 88.6782Z" fill="#16110D"/>
<path d="M89.1815 90.5227L87.8681 89.7614C87.8075 89.7205 87.737 89.6969 87.6641 89.693C87.5912 89.689 87.5186 89.705 87.4539 89.7391C87.3808 89.7902 87.3224 89.8597 87.2846 89.9407C87.2468 90.0217 87.231 90.1113 87.2389 90.2004C87.2412 90.3819 87.2867 90.5602 87.3714 90.7206C87.4562 90.8809 87.5778 91.0186 87.7261 91.1223L89.0396 91.8836C89.111 91.9272 89.1925 91.9513 89.2761 91.9532C89.3385 91.9533 89.3999 91.9369 89.4541 91.9055C89.5272 91.8545 89.5855 91.7849 89.6232 91.7039C89.661 91.6229 89.6767 91.5333 89.6688 91.4443C89.6664 91.2628 89.6209 91.0846 89.5362 90.9243C89.4515 90.764 89.3299 90.6263 89.1815 90.5227ZM89.3121 91.6591C89.2723 91.6813 89.213 91.6549 89.1815 91.6368L87.8681 90.8755C87.7628 90.7971 87.6769 90.6955 87.6171 90.5784C87.5572 90.4613 87.5249 90.332 87.5228 90.2004C87.5228 90.0732 87.562 90.0054 87.5956 89.9859C87.636 89.9619 87.695 89.9898 87.7261 90.0082L87.8169 90.0608C87.8313 90.213 87.8786 90.3602 87.9554 90.4922C88.0321 90.6243 88.1365 90.738 88.2614 90.8254L89.3826 91.4749C89.3766 91.5808 89.3442 91.6404 89.3121 91.6591Z" fill="#16110D"/>
<path d="M98.0517 92.2185C98.016 92.1995 97.9759 92.1907 97.9356 92.193C97.8953 92.1952 97.8564 92.2085 97.8231 92.2313L96.777 92.8373C96.6929 92.8963 96.6239 92.9746 96.5758 93.0657C96.5278 93.1568 96.502 93.258 96.5007 93.3611V94.4871C96.4962 94.5368 96.5048 94.5867 96.5258 94.6319C96.5467 94.677 96.5791 94.7159 96.6198 94.7444C96.6492 94.7616 96.6827 94.7706 96.7168 94.7705C96.7632 94.7694 96.8085 94.756 96.848 94.7315L97.8937 94.1256H97.8942C97.9783 94.0664 98.0473 93.988 98.0953 93.8969C98.1433 93.8057 98.1691 93.7044 98.1705 93.6013V92.4757C98.175 92.4261 98.1664 92.3762 98.1456 92.3311C98.1247 92.2859 98.0923 92.2471 98.0517 92.2185Z" fill="#EB5E28"/>
<path d="M82.584 47.407L76.5389 43.9033L70.4933 47.407V54.415L76.5389 57.9187V50.9287L82.584 47.407Z" fill="#FFEECC"/>
<path d="M70.4933 54.3922L76.5389 57.8959V50.9059L70.4933 47.3848V54.3922Z" fill="#EB5E28"/>
<path d="M82.705 47.3372L76.5387 43.7629L70.3906 47.3265L70.372 47.3372V47.3373L70.3711 47.4769L70.372 47.4774V54.4847L76.4175 57.9886L76.5387 58.0589L76.6599 57.9886L82.6445 54.5201L82.705 54.4847V47.4774L82.7051 47.4773L82.705 47.3372ZM76.5387 44.0438L79.3798 45.6905L73.5766 49.0539L70.7354 47.4073L76.5387 44.0438ZM76.4175 57.7082L70.6145 54.3447V47.6179L76.4175 50.9811V57.7082ZM78.9992 49.3445L76.5386 50.7706L73.6973 49.1239L79.5007 45.7606L82.3417 47.4073L78.9992 49.3445Z" fill="#16110D"/>
<path d="M74.1375 50.9194L73.0161 50.2693C72.9643 50.2345 72.9041 50.2143 72.8419 50.2109C72.7796 50.2076 72.7176 50.2212 72.6625 50.2503C72.6 50.2939 72.5501 50.3533 72.5179 50.4225C72.4856 50.4916 72.4722 50.5681 72.4788 50.6442C72.4809 50.7992 72.5196 50.9514 72.592 51.0883C72.6644 51.2252 72.7682 51.3428 72.8949 51.4313L74.0162 52.0813C74.0772 52.1185 74.1468 52.139 74.2181 52.1407C74.2715 52.1408 74.3239 52.1268 74.3701 52.1C74.4325 52.0564 74.4823 51.997 74.5145 51.9278C74.5467 51.8587 74.5601 51.7822 74.5534 51.7062C74.5513 51.5513 74.5126 51.3991 74.4402 51.2622C74.3679 51.1254 74.2641 51.0079 74.1375 50.9194ZM74.2489 51.8896C74.2149 51.9085 74.1643 51.886 74.1375 51.8706L73.0161 51.2206C72.9262 51.1536 72.8528 51.0668 72.8017 50.9669C72.7506 50.8669 72.7231 50.7565 72.7212 50.6442C72.7212 50.5356 72.7547 50.4777 72.7834 50.4611C72.8179 50.4406 72.8683 50.4644 72.8949 50.4801L72.9723 50.525C72.9847 50.6549 73.025 50.7806 73.0905 50.8933C73.1561 51.0061 73.2452 51.1031 73.3518 51.1779L74.309 51.7323C74.304 51.8227 74.2763 51.8736 74.2489 51.8896Z" fill="#16110D"/>
<path d="M81.7105 52.3673C81.68 52.3511 81.6458 52.3436 81.6114 52.3455C81.577 52.3474 81.5438 52.3588 81.5153 52.3783L80.6222 52.8956C80.5503 52.946 80.4914 53.0128 80.4504 53.0906C80.4094 53.1684 80.3874 53.2548 80.3863 53.3429V54.3042C80.3824 54.3466 80.3898 54.3892 80.4076 54.4278C80.4255 54.4663 80.4532 54.4995 80.4879 54.5238C80.5131 54.5385 80.5417 54.5462 80.5707 54.5461C80.6104 54.5452 80.6491 54.5337 80.6828 54.5128L81.5756 53.9955H81.5759C81.6478 53.945 81.7067 53.8781 81.7477 53.8003C81.7887 53.7225 81.8107 53.636 81.8119 53.5479V52.5869C81.8158 52.5446 81.8084 52.502 81.7906 52.4634C81.7728 52.4248 81.7451 52.3917 81.7105 52.3673Z" fill="#EB5E28"/>
</g>
<defs>
<clipPath id="clip0">
<rect width="136.19" height="110" fill="white"/>
</clipPath>
</defs>
</svg>
