<svg width="15" height="15" viewBox="0 0 15 15" fill="none" xmlns="http://www.w3.org/2000/svg">
<circle cx="7.5" cy="7.5" r="7.5" fill="#3A405F"/>
<g clip-path="url(#clip0)">
<path d="M3.05347 5.12585C3.18698 5.24622 3.36084 5.31252 3.54298 5.31252C3.65939 5.31252 3.77486 5.28444 3.87703 5.23136C3.9145 5.21188 3.95074 5.18882 3.98475 5.16275L4.19238 5.00355L4.7474 5.52184C4.76177 5.53526 4.78067 5.54263 4.80011 5.54263C4.80254 5.54263 4.80501 5.54251 4.80744 5.5423C4.82947 5.54016 4.84952 5.52875 4.86254 5.51084C5.00255 5.31861 5.16809 5.1415 5.35459 4.98448C5.37148 4.97028 5.38148 4.94952 5.38206 4.92741C5.38264 4.90529 5.3737 4.88405 5.3576 4.86897L4.78944 4.3385L4.92159 4.12333C5.10541 3.82412 5.04941 3.43609 4.78837 3.20066C4.65487 3.08038 4.48097 3.01416 4.29866 3.01416C4.18213 3.01416 4.06666 3.0422 3.96461 3.09528C3.8874 3.13535 3.81839 3.18884 3.75937 3.25432C3.66462 3.35937 3.60318 3.48904 3.58164 3.62926L3.55088 3.82985L3.35458 3.88128C3.21749 3.91719 3.09486 3.99189 2.99978 4.09735C2.86956 4.24185 2.80335 4.42839 2.81352 4.62276C2.82361 4.81688 2.90885 4.99556 3.05347 5.12585Z" fill="white"/>
<path d="M5.5395 9.76839V9.20439C5.5395 9.18326 5.53089 9.16309 5.51562 9.14855C5.50038 9.13397 5.48004 9.12623 5.45879 9.12718C5.40147 9.12981 5.34468 9.12051 5.29082 9.09983C5.26327 9.08929 5.23201 9.09535 5.21043 9.11544L4.26652 9.99697L4.05893 9.83802C4.02463 9.81171 3.98839 9.78861 3.95124 9.76933C3.84899 9.71617 3.73332 9.68804 3.61678 9.68804C3.43469 9.68804 3.26099 9.75426 3.12769 9.87451C2.98299 10.0048 2.89779 10.1836 2.88774 10.3778C2.87757 10.5721 2.94378 10.7588 3.0742 10.9037C3.169 11.009 3.2915 11.0835 3.42847 11.1191L3.62518 11.1704L3.65594 11.3714C3.67736 11.5113 3.73888 11.6411 3.83396 11.7468C3.89265 11.8119 3.96166 11.8653 4.03896 11.9055C4.14108 11.9586 4.25663 11.9867 4.37309 11.9867C4.55523 11.9867 4.72896 11.9204 4.86226 11.8002C5.00688 11.6699 5.09217 11.491 5.10246 11.2965C5.1102 11.1481 5.07343 11.0033 4.99609 10.878L4.86313 10.6626L5.54156 10.0291C5.56232 10.0096 5.57076 9.98042 5.56355 9.95299C5.54757 9.8923 5.5395 9.8302 5.5395 9.76839Z" fill="white"/>
<path d="M12.0004 4.09637C11.9053 3.99091 11.7827 3.91621 11.6457 3.8803L11.4493 3.82887L11.4185 3.62828C11.397 3.48803 11.3355 3.35839 11.2408 3.25334C11.1817 3.18787 11.1127 3.13438 11.0355 3.09431C10.9335 3.04123 10.818 3.01318 10.7016 3.01318C10.5192 3.01318 10.3454 3.0794 10.2118 3.19969C9.95079 3.43511 9.89475 3.82319 10.0786 4.12236L10.2108 4.33752L9.64269 4.86808C9.6265 4.88315 9.61765 4.9044 9.61819 4.92651C9.61872 4.94863 9.62873 4.96938 9.64565 4.98359C9.83216 5.14061 9.9977 5.31772 10.1377 5.50995C10.1507 5.52786 10.1708 5.53923 10.1928 5.54141C10.1952 5.54161 10.1977 5.54174 10.2001 5.54174C10.2196 5.54174 10.2385 5.53437 10.2528 5.52094L10.8078 5.00265L11.0155 5.16186C11.0495 5.18792 11.0857 5.21098 11.1232 5.23046C11.2253 5.28354 11.3408 5.31163 11.4572 5.31163C11.6394 5.31163 11.8132 5.24533 11.9467 5.12496C12.0914 4.99467 12.1766 4.81599 12.1867 4.62183C12.1968 4.42742 12.1306 4.24087 12.0004 4.09637Z" fill="white"/>
<path d="M11.8719 9.87448C11.7386 9.75427 11.565 9.68802 11.3829 9.68802C11.2663 9.68802 11.1507 9.71614 11.0484 9.7693C11.0112 9.78858 10.975 9.81168 10.9407 9.83799L10.7331 9.99695L9.78924 9.1155C9.76766 9.09532 9.73637 9.08926 9.70882 9.09989C9.65495 9.12048 9.59817 9.12987 9.54085 9.12723C9.5196 9.12624 9.49925 9.13398 9.48402 9.14856C9.46878 9.1631 9.46013 9.18332 9.46013 9.20436V9.7684C9.46013 9.83017 9.4521 9.89227 9.43613 9.95297C9.42892 9.98047 9.43736 10.0097 9.45811 10.0291L10.1366 10.6627L10.0036 10.878C9.92629 11.0033 9.88951 11.148 9.89726 11.2965C9.90755 11.491 9.99283 11.6698 10.1375 11.8002C10.2708 11.9204 10.4445 11.9866 10.6266 11.9866C10.7431 11.9866 10.8586 11.9586 10.9608 11.9055C11.0381 11.8653 11.107 11.8119 11.1657 11.7468C11.2608 11.6412 11.3224 11.5114 11.3437 11.3714L11.3745 11.1704L11.5712 11.1192C11.7082 11.0835 11.8307 11.0089 11.9255 10.9038C12.0559 10.7589 12.1221 10.5721 12.1119 10.3778C12.1019 10.1835 12.0167 10.0048 11.8719 9.87448Z" fill="white"/>
<path d="M9.5095 8.81776C9.54219 8.82245 9.57518 8.81137 9.59832 8.7879C10.0604 8.31965 10.3148 7.71653 10.3148 7.0899C10.3148 5.69062 9.05743 4.54916 7.50013 4.52148C5.94289 4.54912 4.68555 5.69057 4.68555 7.08986C4.68555 7.71653 4.94 8.31965 5.40199 8.78782C5.42517 8.81129 5.45812 8.82241 5.49086 8.81772C5.52351 8.81298 5.55201 8.79297 5.56762 8.76385L5.82054 8.29181C5.82791 8.27797 5.84414 8.27073 5.85954 8.27451C5.87498 8.27839 5.88573 8.29222 5.88573 8.30812V9.76835C5.88573 9.93183 5.98032 10.0843 6.12688 10.157C6.41036 10.2968 6.87412 10.4622 7.50013 10.4779C8.12615 10.4622 8.58991 10.2968 8.87339 10.157C9.01999 10.0843 9.11454 9.93183 9.11454 9.76835V8.30812C9.11454 8.29218 9.12533 8.27834 9.14077 8.27451C9.15617 8.27073 9.1724 8.27797 9.17977 8.29181L9.4327 8.76385C9.44834 8.79301 9.47684 8.81302 9.5095 8.81776ZM6.5411 7.75561C6.14619 7.75561 5.82491 7.37367 5.82491 6.90422C5.82491 6.79629 5.91282 6.70845 6.02092 6.70845H7.06075C7.16893 6.70845 7.25701 6.79654 7.25717 6.90513C7.25709 7.374 6.93589 7.75561 6.5411 7.75561ZM7.98943 8.70624L7.78913 8.87895C7.77859 8.88809 7.76282 8.88995 7.75047 8.88344L7.53501 8.77044C7.50672 8.75566 7.49379 8.75566 7.4655 8.77044L7.25005 8.88344C7.23766 8.88986 7.22188 8.88805 7.21134 8.87895L7.01104 8.70624C6.99659 8.69376 6.99494 8.67186 7.00742 8.65736L7.40258 8.19858C7.4618 8.12956 7.53864 8.12956 7.5979 8.19858L7.99306 8.65736C8.00553 8.67186 8.00389 8.69376 7.98943 8.70624ZM8.45933 7.75561C8.06458 7.75561 7.74326 7.374 7.74322 6.90509C7.74334 6.7965 7.83147 6.70841 7.93969 6.70841H8.97947C9.08757 6.70841 9.17549 6.79625 9.17549 6.90418C9.17549 7.37363 8.85425 7.75561 8.45933 7.75561Z" fill="white"/>
</g>
<defs>
<clipPath id="clip0">
<rect width="9.375" height="9.375" fill="white" transform="translate(2.8125 2.8125)"/>
</clipPath>
</defs>
</svg>
