<svg width="16" height="16" viewBox="0 0 16 16" fill="none" xmlns="http://www.w3.org/2000/svg">
<g clip-path="url(#clip0)">
<path d="M7.33315 15.3234C3.28994 15.3234 0 12.0336 0 7.99037C0 3.94716 3.28994 0.657227 7.33315 0.657227C8.73911 0.657227 10.107 1.05785 11.289 1.81649C11.521 1.9659 11.589 2.27522 11.4396 2.50788C11.2897 2.74054 10.981 2.80779 10.7483 2.65851C9.72833 2.00313 8.5471 1.6572 7.33315 1.6572C3.84119 1.6572 0.999969 4.49842 0.999969 7.99037C0.999969 11.4822 3.84119 14.3234 7.33315 14.3234C10.825 14.3234 13.6662 11.4822 13.6662 7.99037C13.6662 7.78164 13.6562 7.57498 13.6369 7.37174C13.6103 7.09636 13.8116 6.85235 14.0862 6.82574C14.3622 6.80035 14.6055 7.00041 14.6322 7.27506C14.6548 7.51041 14.6662 7.74905 14.6662 7.99037C14.6662 12.0336 11.3764 15.3234 7.33315 15.3234Z" fill="#3A405F"/>
<path d="M8.16664 9.65611C8.03871 9.65611 7.91067 9.60741 7.81338 9.50951L4.81347 6.5096C4.61817 6.31418 4.61817 5.99754 4.81347 5.80223C5.00878 5.60692 5.32542 5.60692 5.52073 5.80223L8.16737 8.44887L15.1464 1.46972C15.3418 1.27442 15.6585 1.27442 15.8538 1.46972C16.0491 1.66503 16.0491 1.98167 15.8538 2.17698L8.52063 9.51012C8.42261 9.60741 8.29469 9.65611 8.16664 9.65611Z" fill="#3A405F"/>
</g>
<defs>
<clipPath id="clip0">
<rect width="16" height="16" fill="white"/>
</clipPath>
</defs>
</svg>
