<svg width="16" height="18" viewBox="0 0 16 18" fill="none" xmlns="http://www.w3.org/2000/svg">
<path d="M14.6911 1.30895C12.9458 -0.436316 10.1064 -0.436316 8.36109 1.30895L1.69633 7.97367C1.49064 8.17936 1.49064 8.51258 1.69633 8.71827C1.90201 8.92395 2.23523 8.92395 2.44092 8.71827L9.10564 2.05354C10.3994 0.760814 12.6527 0.760814 13.9465 2.05354C15.2808 3.38792 15.2808 5.55948 13.9465 6.89386L4.64006 16.3051C3.84405 17.1011 2.4572 17.1011 1.66123 16.3051C0.84003 15.4839 0.84003 14.1479 1.66123 13.3267L10.5954 4.28728C10.8936 3.98905 11.414 3.98905 11.7122 4.28728C12.0202 4.59527 12.0202 5.09666 11.7122 5.40468L3.15091 14.0713C2.97333 14.2489 2.97333 14.6383 3.15091 14.8159C3.35659 15.0216 3.68981 15.0216 3.8955 14.8159L12.4568 6.14924C13.1757 5.43033 13.1757 4.26156 12.4568 3.54269C11.7605 2.84646 10.5459 2.84748 9.85076 3.54269L0.916641 12.5821C-0.305547 13.8043 -0.305547 15.8274 0.916641 17.0496C1.51366 17.6466 2.30707 17.9682 3.15087 17.9682C3.99468 17.9682 4.78815 17.6466 5.38465 17.0496L14.691 7.63842C16.4363 5.89315 16.4363 3.05418 14.6911 1.30895Z" fill="#3A405F"/>
</svg>
