<svg width="48" height="52" viewBox="0 0 48 52" fill="none" xmlns="http://www.w3.org/2000/svg">
<path d="M47.576 11.2987L24.3261 0.0745599C24.12 -0.0248533 23.88 -0.0248533 23.674 0.0745599L0.423957 11.2987C0.164722 11.4238 0 11.6863 0 11.9741V39.2327C0 39.5205 0.164722 39.7831 0.423957 39.9082L23.6739 51.1323C23.7769 51.182 23.8885 51.2069 24 51.2069C24.1115 51.2069 24.223 51.182 24.3261 51.1323L47.576 39.9082C47.8353 39.7831 48 39.5205 48 39.2327V11.9742C48 11.6862 47.8352 11.4239 47.576 11.2987ZM24 1.58306L45.5246 11.9741L39.285 14.9863C39.2455 14.9562 39.2038 14.9284 39.158 14.9063L17.7797 4.58596L24 1.58306ZM16.0856 5.43407L37.5789 15.8101L33.1768 17.9352L11.6925 7.56346L16.0856 5.43407ZM38.0818 17.233V25.0887L33.9699 27.0738V19.2181L38.0818 17.233ZM46.4998 38.762L24.7501 49.2616V23.669L29.9381 21.1645C30.3111 20.9843 30.4676 20.536 30.2874 20.1628C30.1073 19.7899 29.659 19.6333 29.2858 19.8135L24 22.3653L21.9201 21.3612C21.547 21.1809 21.0986 21.3375 20.9185 21.7105C20.7384 22.0836 20.8948 22.5321 21.2678 22.7122L23.2499 23.669V49.2616L1.5002 38.7618V13.1692L18.0624 21.1648C18.1675 21.2156 18.2786 21.2396 18.388 21.2396C18.6668 21.2396 18.9346 21.0834 19.0639 20.8154C19.2441 20.4424 19.0876 19.9939 18.7146 19.8138L2.47543 11.9741L9.92692 8.37687L32.4593 19.2546C32.4626 19.2592 32.4663 19.2633 32.4697 19.2678V28.2689C32.4697 28.5271 32.6024 28.767 32.8211 28.9043C32.9425 28.9805 33.081 29.019 33.2199 29.019C33.3311 29.019 33.4427 28.9943 33.546 28.9444L39.158 26.2351C39.4173 26.11 39.582 25.8476 39.582 25.5597V16.509L46.4998 13.1693V38.762Z" fill="#3A405F"/>
<path d="M12.3986 33.5261L7.53453 31.178C7.00243 30.921 6.36339 31.1442 6.10661 31.676C5.84983 32.2079 6.07282 32.8472 6.60464 33.104L11.4687 35.4521C11.6185 35.5245 11.7769 35.5587 11.9328 35.5587C12.3303 35.5587 12.7121 35.336 12.8965 34.9541C13.1534 34.4221 12.9304 33.7831 12.3986 33.5261Z" fill="#EB5E28"/>
<path d="M16.8752 30.6126L7.54128 26.1066C7.00932 25.8498 6.37014 26.0728 6.11336 26.6048C5.85672 27.1366 6.07971 27.7759 6.61153 28.0327L15.9454 32.5387C16.0953 32.611 16.2537 32.6454 16.4095 32.6454C16.807 32.6454 17.1888 32.4227 17.3732 32.0407C17.63 31.5086 17.407 30.8693 16.8752 30.6126Z" fill="#EB5E28"/>
</svg>
