<svg width="84" height="97" viewBox="0 0 84 97" fill="none" xmlns="http://www.w3.org/2000/svg">
<ellipse cx="42" cy="55.5" rx="42" ry="41.5" fill="#F7F8FA"/>
<path d="M37.2461 38.5456V67.7872C37.2461 69.9856 39.0351 71.7747 41.2336 71.7747C43.432 71.7747 45.2211 69.9856 45.2211 67.7872V38.5456C45.2211 36.3472 43.432 34.5581 41.2336 34.5581C39.0351 34.5581 37.2461 36.3472 37.2461 38.5456ZM42.5627 38.5456V67.7872C42.5627 68.5195 41.966 69.1163 41.2336 69.1163C40.5012 69.1163 39.9044 68.5195 39.9044 67.7872V38.5456C39.9044 37.8132 40.5012 37.2164 41.2336 37.2164C41.966 37.2164 42.5627 37.8132 42.5627 38.5456Z" fill="#3A405F"/>
<path d="M26.6133 38.5456V67.7872C26.6133 69.9856 28.4023 71.7747 30.6008 71.7747C32.7992 71.7747 34.5883 69.9856 34.5883 67.7872V38.5456C34.5883 36.3472 32.7992 34.5581 30.6008 34.5581C28.4023 34.5581 26.6133 36.3472 26.6133 38.5456ZM31.9299 38.5456V67.7872C31.9299 68.5195 31.3331 69.1163 30.6008 69.1163C29.8684 69.1163 29.2716 68.5195 29.2716 67.7872V38.5456C29.2716 37.8132 29.8684 37.2164 30.6008 37.2164C31.3331 37.2164 31.9299 37.8132 31.9299 38.5456Z" fill="#3A405F"/>
<path d="M47.8794 38.5456V67.7872C47.8794 69.9856 49.6684 71.7747 51.8669 71.7747C54.0653 71.7747 55.8544 69.9856 55.8544 67.7872V38.5456C55.8544 36.3472 54.0653 34.5581 51.8669 34.5581C49.6684 34.5581 47.8794 36.3472 47.8794 38.5456ZM53.196 38.5456V67.7872C53.196 68.5195 52.5993 69.1163 51.8669 69.1163C51.1345 69.1163 50.5377 68.5195 50.5377 67.7872V38.5456C50.5377 37.8132 51.1345 37.2164 51.8669 37.2164C52.5993 37.2164 53.196 37.8132 53.196 38.5456Z" fill="#3A405F"/>
<path d="M65.1586 26.5833H23.8987L43.5025 6.97945C43.7524 6.72957 43.892 6.39196 43.892 6.03974C43.892 5.68751 43.7524 5.34857 43.5025 5.10002L39.7436 1.34115C38.2364 -0.166124 35.6099 -0.166124 34.104 1.34115L31.0682 4.37695L32.9476 6.25639L35.9848 3.22058C36.4859 2.71816 37.3618 2.71816 37.8642 3.22058L40.6847 6.03974L8.72763 37.9955L5.90847 35.175C5.65726 34.9251 5.51903 34.5915 5.51903 34.2353C5.51903 33.879 5.65726 33.5468 5.90847 33.2955L30.2893 8.91471L28.4099 7.03528L26.5849 8.86022L24.7055 6.98078C23.149 5.42433 20.6196 5.42566 19.0659 6.98078L9.66735 16.3793C8.11223 17.9344 8.11223 20.4638 9.66735 22.0189L11.5468 23.8984L4.02771 31.4174C3.27407 32.1711 2.85938 33.1719 2.85938 34.2379C2.85938 35.3039 3.27407 36.3048 4.02771 37.0571L7.78658 40.8173C8.03646 41.0645 8.3754 41.2041 8.72763 41.2041C9.07986 41.2041 9.41879 41.0645 9.66735 40.8146L16.7358 33.7461L22.3329 76.2833C22.5935 78.2585 24.2921 79.7498 26.2859 79.7498H56.1814C58.1751 79.7498 59.8738 78.2585 60.1356 76.282L64.7279 41.3769L62.0922 41.0299L57.4999 75.9338C57.4122 76.5944 56.846 77.0915 56.1814 77.0915H26.2859C25.6213 77.0915 25.0551 76.5944 24.9687 75.9351L19.1057 31.3762L21.2404 29.2416H63.6433L62.7913 35.7146L65.427 36.0615L66.4771 28.0866C66.5276 27.7064 66.412 27.3249 66.1594 27.0365C65.9055 26.7481 65.5414 26.5833 65.1586 26.5833V26.5833ZM11.5481 20.1382C11.0297 19.6198 11.0297 18.7771 11.5481 18.2574L20.9466 8.85889C21.4637 8.34185 22.3077 8.34052 22.8274 8.85889L24.7068 10.7383L13.4289 22.0163L11.5481 20.1382Z" fill="#3A405F"/>
<path d="M48.2023 14.6606L42.8856 13.3315C42.3659 13.2025 41.8196 13.3966 41.5006 13.8233L37.5132 19.1399C37.2766 19.4549 37.1915 19.859 37.2832 20.2431C37.3736 20.6272 37.6301 20.9502 37.9823 21.127L43.299 23.7853C43.4811 23.877 43.6858 23.9249 43.8918 23.9249H50.5376C50.9789 23.9249 51.3909 23.7056 51.6382 23.3414C51.8854 22.9772 51.9359 22.512 51.7724 22.1026L49.1141 15.4568C48.9546 15.0607 48.6156 14.7643 48.2023 14.6606V14.6606ZM44.2055 21.2666L40.5942 19.4616L43.097 16.1254L46.897 17.0757L48.5744 21.2666H44.2055Z" fill="#EB5E28"/>
<path d="M64.9646 12.5898L63.69 10.0391C63.4215 9.50214 62.8247 9.21238 62.2399 9.33068L55.594 10.6598C54.972 10.7835 54.5254 11.3284 54.5254 11.9624V14.6207C54.5254 14.7297 54.5387 14.8374 54.5653 14.9437L55.8944 20.2604C56.0433 20.8572 56.5803 21.2666 57.1824 21.2666C57.2382 21.2666 57.2927 21.2639 57.3485 21.2559L67.9818 19.9268C68.4524 19.8683 68.8551 19.5639 69.0398 19.1266C69.2246 18.6893 69.1635 18.1882 68.879 17.8094L64.9646 12.5898ZM58.1872 18.4727L57.1837 14.4573V13.0523L61.7653 12.1365L62.6399 13.887C62.6758 13.9588 62.7184 14.0266 62.7662 14.0904L65.3793 17.5755L58.1872 18.4727Z" fill="#EB5E28"/>
<path d="M57.1836 0H59.8419V2.65833H57.1836V0Z" fill="#EB5E28"/>
<path d="M68.8857 8.25018L70.506 10.3582C73.4448 8.10132 77.2156 7.22407 80.8482 7.94846L81.3706 5.34198C76.979 4.46473 72.4306 5.5254 68.8857 8.25018Z" fill="#EB5E28"/>
<path d="M74.4629 13.2916H77.1212V15.95H74.4629V13.2916Z" fill="#EB5E28"/>
<path d="M62.5005 6.64581H65.1588C65.1588 4.44738 66.9479 2.65833 69.1463 2.65833V0C65.4818 0 62.5005 2.98131 62.5005 6.64581Z" fill="#EB5E28"/>
</svg>
