<svg width="13" height="15" viewBox="0 0 13 15" fill="none" xmlns="http://www.w3.org/2000/svg">
<path d="M8.16379 5.43457C7.96976 5.43457 7.8125 5.59183 7.8125 5.78586V12.4252C7.8125 12.6191 7.96976 12.7765 8.16379 12.7765C8.35782 12.7765 8.51508 12.6191 8.51508 12.4252V5.78586C8.51508 5.59183 8.35782 5.43457 8.16379 5.43457Z" fill="#BDBDBD"/>
<path d="M4.01926 5.43457C3.82523 5.43457 3.66797 5.59183 3.66797 5.78586V12.4252C3.66797 12.6191 3.82523 12.7765 4.01926 12.7765C4.21329 12.7765 4.37054 12.6191 4.37054 12.4252V5.78586C4.37054 5.59183 4.21329 5.43457 4.01926 5.43457Z" fill="#BDBDBD"/>
<path d="M0.997712 4.46564V13.1206C0.997712 13.6322 1.18529 14.1126 1.51298 14.4573C1.83915 14.8029 2.29308 14.9992 2.76814 15H9.4146C9.8898 14.9992 10.3437 14.8029 10.6698 14.4573C10.9975 14.1126 11.185 13.6322 11.185 13.1206V4.46564C11.8364 4.29275 12.2585 3.66345 12.1714 2.99504C12.0841 2.32677 11.5148 1.82688 10.8407 1.82674H9.04218V1.38763C9.04424 1.01837 8.89824 0.663786 8.63683 0.402928C8.37542 0.142208 8.0203 -0.00297272 7.65103 4.61562e-05H4.53171C4.16245 -0.00297272 3.80732 0.142208 3.54592 0.402928C3.28451 0.663786 3.1385 1.01837 3.14056 1.38763V1.82674H1.342C0.667969 1.82688 0.0986372 2.32677 0.0113643 2.99504C-0.0757713 3.66345 0.346322 4.29275 0.997712 4.46564ZM9.4146 14.2974H2.76814C2.16753 14.2974 1.70029 13.7815 1.70029 13.1206V4.49652H10.4825V13.1206C10.4825 13.7815 10.0152 14.2974 9.4146 14.2974ZM3.84314 1.38763C3.8408 1.20471 3.91271 1.02866 4.04252 0.899533C4.17219 0.770408 4.34866 0.699464 4.53171 0.70262H7.65103C7.83409 0.699464 8.01055 0.770408 8.14023 0.899533C8.27004 1.02852 8.34194 1.20471 8.33961 1.38763V1.82674H3.84314V1.38763ZM1.342 2.52931H10.8407C11.19 2.52931 11.4731 2.8124 11.4731 3.16163C11.4731 3.51086 11.19 3.79395 10.8407 3.79395H1.342C0.992772 3.79395 0.709684 3.51086 0.709684 3.16163C0.709684 2.8124 0.992772 2.52931 1.342 2.52931Z" fill="#BDBDBD"/>
<path d="M6.09152 5.43457C5.89749 5.43457 5.74023 5.59183 5.74023 5.78586V12.4252C5.74023 12.6191 5.89749 12.7765 6.09152 12.7765C6.28554 12.7765 6.4428 12.6191 6.4428 12.4252V5.78586C6.4428 5.59183 6.28554 5.43457 6.09152 5.43457Z" fill="#BDBDBD"/>
</svg>
