<svg width="70" height="70" viewBox="0 0 70 70" fill="none" xmlns="http://www.w3.org/2000/svg">
<path d="M65.8332 42.4987L60.9337 32.8752C60.7002 32.4167 60.2292 32.1279 59.7146 32.1279H35H10.2851C9.77047 32.1279 9.29951 32.4167 9.06601 32.8752L4.16644 42.4987C3.95059 42.9229 3.97057 43.4286 4.21924 43.8343C4.46792 44.24 4.90961 44.4872 5.38535 44.4872H7.09273V68.6324C7.09273 69.3877 7.70512 70.0002 8.4606 70.0002H61.5349C62.2903 70.0002 62.9027 69.3877 62.9027 68.6324V44.4873H64.6141C65.09 44.4873 65.5316 44.24 65.7802 43.8344C66.0291 43.4286 66.0491 42.9229 65.8332 42.4987ZM58.8761 34.8637L62.3829 41.7514H40.7381L37.2313 34.8637H58.8761ZM11.1237 34.8637H32.7686L29.2618 41.7514H7.61689L11.1237 34.8637ZM60.1673 67.2645H36.3679V59.6834C36.3679 58.928 35.7555 58.3155 35 58.3155C34.2445 58.3155 33.6321 58.928 33.6321 59.6834V67.2645H9.82874V44.4873H30.1004C30.615 44.4873 31.086 44.1987 31.3195 43.74L33.6321 39.1975V47.4001C33.6321 48.1554 34.2445 48.7679 35 48.7679C35.7555 48.7679 36.3679 48.1554 36.3679 47.4001V39.1975L38.6805 43.74C38.914 44.1987 39.385 44.4873 39.8996 44.4873H60.1673V67.2645Z" fill="#3A405F"/>
<path d="M23.3033 59.7734H15.5144C14.7589 59.7734 14.1465 60.386 14.1465 61.1413C14.1465 61.8966 14.7589 62.5092 15.5144 62.5092H23.3033C24.0587 62.5092 24.6711 61.8966 24.6711 61.1413C24.6711 60.386 24.0587 59.7734 23.3033 59.7734Z" fill="#3A405F"/>
<path d="M34.9999 28.1053C42.7398 28.1053 49.0369 21.8004 49.0369 14.0507C49.0368 6.30314 42.7398 0 34.9999 0C27.2577 0 20.959 6.30314 20.959 14.0507C20.959 21.8004 27.2576 28.1053 34.9999 28.1053ZM34.9999 2.73574C41.2315 2.73574 46.3012 7.81163 46.3012 14.0507C46.3012 20.2921 41.2315 25.3696 34.9999 25.3696C28.7662 25.3696 23.6947 20.2921 23.6947 14.0507C23.6947 7.81163 28.7661 2.73574 34.9999 2.73574Z" fill="#EB5E28"/>
<path d="M28.8671 16.1028L32.508 19.189C32.756 19.3992 33.0698 19.5135 33.3925 19.5135C33.4313 19.5135 33.4703 19.5118 33.5093 19.5085C33.8723 19.4773 34.2079 19.3028 34.4416 19.0233L41.2933 10.8345C41.7781 10.2552 41.7013 9.39245 41.122 8.90754C40.5426 8.42305 39.68 8.49951 39.1953 9.07894L33.227 16.212L30.6364 14.0159C30.0601 13.5274 29.1968 13.5982 28.7085 14.1748C28.2197 14.7512 28.2909 15.6142 28.8671 16.1028Z" fill="#EB5E28"/>
<path d="M8.12763 15.4184H14.0459C14.8013 15.4184 15.4137 14.8058 15.4137 14.0505C15.4137 13.2951 14.8013 12.6826 14.0459 12.6826H8.12763C7.37216 12.6826 6.75977 13.2951 6.75977 14.0505C6.75977 14.8058 7.37216 15.4184 8.12763 15.4184Z" fill="#3A405F"/>
<path d="M7.48975 5.90027L13.408 9.02161C13.6115 9.12899 13.8297 9.17987 14.045 9.17987C14.5361 9.17987 15.011 8.91464 15.2561 8.44984C15.6085 7.78163 15.3525 6.95421 14.6843 6.60185L8.76597 3.48051C8.09804 3.12814 7.27034 3.38394 6.91798 4.05228C6.56562 4.72048 6.82155 5.5479 7.48975 5.90027Z" fill="#3A405F"/>
<path d="M6.91761 24.0487C7.1626 24.5138 7.63752 24.7794 8.129 24.7794C8.34389 24.7794 8.56207 24.7287 8.76533 24.6216L14.6836 21.5042C15.3519 21.1521 15.6084 20.3248 15.2563 19.6565C14.9042 18.988 14.0769 18.7317 13.4086 19.0836L7.49034 22.201C6.822 22.5531 6.56566 23.3804 6.91761 24.0487Z" fill="#3A405F"/>
<path d="M55.9499 15.4184H61.8681C62.6236 15.4184 63.236 14.8058 63.236 14.0505C63.236 13.2951 62.6236 12.6826 61.8681 12.6826H55.9499C55.1944 12.6826 54.582 13.2951 54.582 14.0505C54.582 14.8058 55.1944 15.4184 55.9499 15.4184Z" fill="#3A405F"/>
<path d="M55.9512 9.17996C56.1664 9.17996 56.3847 9.12908 56.5882 9.0217L62.5064 5.90036C63.1746 5.548 63.4306 4.72057 63.0782 4.05237C62.7257 3.38417 61.8984 3.12797 61.2302 3.4806L55.312 6.60194C54.6438 6.9543 54.3879 7.78173 54.7402 8.44993C54.9854 8.91473 55.46 9.17996 55.9512 9.17996Z" fill="#3A405F"/>
<path d="M55.3127 21.5033L61.2309 24.6207C61.4343 24.7278 61.6523 24.7785 61.8672 24.7785C62.3587 24.7785 62.8336 24.513 63.0786 24.0478C63.4307 23.3795 63.1742 22.5522 62.5059 22.2001L56.5877 19.0827C55.9192 18.7306 55.092 18.987 54.7399 19.6556C54.3879 20.3239 54.6443 21.1512 55.3127 21.5033Z" fill="#3A405F"/>
<path d="M34.9997 52.1738C34.2442 52.1738 33.6318 52.7864 33.6318 53.5417V53.5495C33.6318 54.3048 34.2442 54.9135 34.9997 54.9135C35.7552 54.9135 36.3676 54.2972 36.3676 53.5418C36.3676 52.7865 35.7552 52.1738 34.9997 52.1738Z" fill="#3A405F"/>
</svg>
