<svg width="73" height="77" viewBox="0 0 73 77" fill="none" xmlns="http://www.w3.org/2000/svg">
<path d="M72.3967 21.018L72.4001 21.0214C72.6252 21.2451 72.75 21.5422 72.75 21.8668V71.0746C72.75 74.1982 70.1858 76.75 67.0238 76.75H22.3615C19.1995 76.75 16.6353 74.1982 16.6353 71.0746V57.75V57.5H16.3853H4.46321C2.13431 57.5 0.25 55.6259 0.25 53.2984V31.0857C0.25 28.7883 2.13431 26.8992 4.46321 26.8992H16.3853H16.6353V26.6492V5.92539C16.6353 2.80181 19.1995 0.25 22.3615 0.25H51.7733C52.1113 0.25 52.4265 0.386052 52.6696 0.626886C52.6701 0.627416 52.6707 0.627946 52.6712 0.628478L72.3967 21.018ZM52.316 3.82651L51.8864 3.38271V4.00039V20.7389V20.9889H52.1364H68.3401H68.9301L68.5197 20.565L52.316 3.82651ZM4.46321 55.0373H4.71321V55.0223H44.6926C45.6463 55.0223 46.4253 54.25 46.4253 53.2984V31.0857C46.4253 30.1341 45.6463 29.3619 44.6926 29.3619H4.46321C3.50956 29.3619 2.73052 30.1341 2.73052 31.0857V53.3135C2.73052 54.2651 3.50956 55.0373 4.46321 55.0373ZM19.3658 57.5H19.1158V57.75V71.0746C19.1158 72.855 20.5773 74.2873 22.3615 74.2873H67.0238C68.8088 74.2873 70.2695 72.8391 70.2695 71.0746V23.6715V23.4215H70.0195H50.6537C49.9733 23.4215 49.421 22.8703 49.421 22.1977V2.94766V2.69766H49.171H22.3615C20.5757 2.69766 19.1158 4.14665 19.1158 5.92539V26.6492V26.8992H19.3658H44.6926C47.0221 26.8992 48.9059 28.7739 48.9059 31.0857V53.3135C48.9059 55.6254 47.0221 57.5 44.6926 57.5H19.3658Z" fill="#3A405F" stroke="#F7F8FA" stroke-width="0.5"/>
</svg>
