<svg width="114" height="66" viewBox="0 0 114 66" fill="none" xmlns="http://www.w3.org/2000/svg">
<path d="M76.1674 62.7196C77.0256 63.2898 77.0256 64.1451 76.1674 64.7153C75.3092 65.2854 73.5927 65.2854 72.7345 64.7153C71.8763 64.1451 71.8763 63.2898 72.7345 62.7196C73.5927 62.1494 75.0231 62.1494 76.1674 62.7196Z" fill="#3F3F3F"/>
<path d="M85.0365 57.5878C85.8948 58.158 85.8948 59.0132 85.0365 59.5834C84.1783 60.1536 82.4619 60.1536 81.6036 59.5834C80.7454 59.0132 80.7454 58.158 81.6036 57.5878C82.4619 57.0176 84.1783 57.0176 85.0365 57.5878Z" fill="#3F3F3F"/>
<path d="M92.4741 54.7366C93.8961 54.7366 95.0488 54.0984 95.0488 53.3112C95.0488 52.5239 93.8961 51.8857 92.4741 51.8857C91.0521 51.8857 89.8994 52.5239 89.8994 53.3112C89.8994 54.0984 91.0521 54.7366 92.4741 54.7366Z" fill="#3F3F3F"/>
<path d="M101.342 49.6048C102.764 49.6048 103.917 48.9666 103.917 48.1793C103.917 47.3921 102.764 46.7539 101.342 46.7539C99.9203 46.7539 98.7676 47.3921 98.7676 48.1793C98.7676 48.9666 99.9203 49.6048 101.342 49.6048Z" fill="#3F3F3F"/>
<path d="M110.497 44.4739C111.919 44.4739 113.071 43.8357 113.071 43.0485C113.071 42.2612 111.919 41.623 110.497 41.623C109.075 41.623 107.922 42.2612 107.922 43.0485C107.922 43.8357 109.075 44.4739 110.497 44.4739Z" fill="#3F3F3F"/>
<path d="M56.4282 65.0003C57.8502 65.0003 59.0029 64.3621 59.0029 63.5749C59.0029 62.7876 57.8502 62.1494 56.4282 62.1494C55.0062 62.1494 53.8535 62.7876 53.8535 63.5749C53.8535 64.3621 55.0062 65.0003 56.4282 65.0003Z" fill="#3F3F3F"/>
<path d="M65.2973 59.8684C66.7193 59.8684 67.872 59.2303 67.872 58.443C67.872 57.6558 66.7193 57.0176 65.2973 57.0176C63.8754 57.0176 62.7227 57.6558 62.7227 58.443C62.7227 59.2303 63.8754 59.8684 65.2973 59.8684Z" fill="#3F3F3F"/>
<path d="M74.4516 54.7366C75.8736 54.7366 77.0263 54.0984 77.0263 53.3112C77.0263 52.5239 75.8736 51.8857 74.4516 51.8857C73.0297 51.8857 71.877 52.5239 71.877 53.3112C71.877 54.0984 73.0297 54.7366 74.4516 54.7366Z" fill="#3F3F3F"/>
<path d="M85.0365 47.0399C85.8948 47.6101 85.8948 48.4654 85.0365 49.0356C84.1783 49.6057 82.4619 49.6057 81.6036 49.0356C80.7454 48.4654 80.7454 47.6101 81.6036 47.0399C82.4619 46.4698 84.1783 46.4698 85.0365 47.0399Z" fill="#3F3F3F"/>
<path d="M94.1908 41.9081C95.0491 42.4783 95.0491 43.3335 94.1908 43.9037C93.3326 44.4739 91.6162 44.4739 90.7579 43.9037C89.8997 43.3335 89.8997 42.4783 90.7579 41.9081C91.6162 41.3379 93.0465 41.3379 94.1908 41.9081Z" fill="#3F3F3F"/>
<path d="M103.059 36.7763C103.917 37.3464 103.917 38.2017 103.059 38.7719C102.201 39.3421 100.484 39.3421 99.6261 38.7719C98.7679 38.2017 98.7679 37.3464 99.6261 36.7763C100.484 36.2061 102.201 36.2061 103.059 36.7763Z" fill="#3F3F3F"/>
<path d="M112.213 31.6444C113.072 32.2146 113.072 33.0699 112.213 33.64C111.355 34.2102 109.639 34.2102 108.78 33.64C107.922 33.0699 107.922 32.2146 108.78 31.6444C109.639 31.0743 111.069 31.0743 112.213 31.6444Z" fill="#3F3F3F"/>
<path d="M40.1225 62.7196C40.9807 63.2898 40.9807 64.1451 40.1225 64.7153C39.2643 65.2854 37.5478 65.2854 36.6896 64.7153C35.8313 64.1451 35.8313 63.2898 36.6896 62.7196C37.5478 62.1494 38.9782 62.1494 40.1225 62.7196Z" fill="#3F3F3F"/>
<path d="M48.9906 57.5878C49.8489 58.158 49.8489 59.0132 48.9906 59.5834C48.1324 60.1536 46.416 60.1536 45.5577 59.5834C44.6995 59.0132 44.6995 58.158 45.5577 57.5878C46.416 57.0176 48.1324 57.0176 48.9906 57.5878Z" fill="#3F3F3F"/>
<path d="M58.1449 52.1708C59.0032 52.741 59.0032 53.5962 58.1449 54.1664C57.2867 54.7366 55.5703 54.7366 54.712 54.1664C53.8538 53.5962 53.8538 52.741 54.712 52.1708C55.5703 51.6006 57.0006 51.6006 58.1449 52.1708Z" fill="#3F3F3F"/>
<path d="M65.2973 49.6048C66.7193 49.6048 67.872 48.9666 67.872 48.1793C67.872 47.3921 66.7193 46.7539 65.2973 46.7539C63.8754 46.7539 62.7227 47.3921 62.7227 48.1793C62.7227 48.9666 63.8754 49.6048 65.2973 49.6048Z" fill="#3F3F3F"/>
<path d="M76.1674 41.9081C77.0256 42.4783 77.0256 43.3335 76.1674 43.9037C75.3092 44.4739 73.5927 44.4739 72.7345 43.9037C71.8763 43.3335 71.8763 42.4783 72.7345 41.9081C73.5927 41.3379 75.0231 41.3379 76.1674 41.9081Z" fill="#3F3F3F"/>
<path d="M83.3198 39.0569C84.7418 39.0569 85.8945 38.4187 85.8945 37.6315C85.8945 36.8442 84.7418 36.2061 83.3198 36.2061C81.8978 36.2061 80.7451 36.8442 80.7451 37.6315C80.7451 38.4187 81.8978 39.0569 83.3198 39.0569Z" fill="#3F3F3F"/>
<path d="M92.4741 33.9251C93.8961 33.9251 95.0488 33.2869 95.0488 32.4997C95.0488 31.7124 93.8961 31.0742 92.4741 31.0742C91.0521 31.0742 89.8994 31.7124 89.8994 32.4997C89.8994 33.2869 91.0521 33.9251 92.4741 33.9251Z" fill="#3F3F3F"/>
<path d="M101.342 28.7942C102.764 28.7942 103.917 28.156 103.917 27.3688C103.917 26.5816 102.764 25.9434 101.342 25.9434C99.9203 25.9434 98.7676 26.5816 98.7676 27.3688C98.7676 28.156 99.9203 28.7942 101.342 28.7942Z" fill="#3F3F3F"/>
<path d="M112.213 21.0966C113.072 21.6668 113.072 22.522 112.213 23.0922C111.355 23.6624 109.639 23.6624 108.78 23.0922C107.922 22.522 107.922 21.6668 108.78 21.0966C109.639 20.5264 111.069 20.5264 112.213 21.0966Z" fill="#3F3F3F"/>
<path d="M30.9672 57.5878C31.8254 58.158 31.8254 59.0132 30.9672 59.5834C30.109 60.1536 28.3925 60.1536 27.5343 59.5834C26.6761 59.0132 26.6761 58.158 27.5343 57.5878C28.6786 57.0176 30.109 57.0176 30.9672 57.5878Z" fill="#3F3F3F"/>
<path d="M40.1225 52.1708C40.9807 52.741 40.9807 53.5962 40.1225 54.1664C39.2643 54.7366 37.5478 54.7366 36.6896 54.1664C35.8313 53.5962 35.8313 52.741 36.6896 52.1708C37.5478 51.6006 38.9782 51.6006 40.1225 52.1708Z" fill="#3F3F3F"/>
<path d="M47.2739 49.6048C48.6959 49.6048 49.8486 48.9666 49.8486 48.1793C49.8486 47.3921 48.6959 46.7539 47.2739 46.7539C45.8519 46.7539 44.6992 47.3921 44.6992 48.1793C44.6992 48.9666 45.8519 49.6048 47.2739 49.6048Z" fill="#3F3F3F"/>
<path d="M56.4282 44.4739C57.8502 44.4739 59.0029 43.8357 59.0029 43.0485C59.0029 42.2612 57.8502 41.623 56.4282 41.623C55.0062 41.623 53.8535 42.2612 53.8535 43.0485C53.8535 43.8357 55.0062 44.4739 56.4282 44.4739Z" fill="#3F3F3F"/>
<path d="M65.2973 39.0569C66.7193 39.0569 67.872 38.4187 67.872 37.6315C67.872 36.8442 66.7193 36.2061 65.2973 36.2061C63.8754 36.2061 62.7227 36.8442 62.7227 37.6315C62.7227 38.4187 63.8754 39.0569 65.2973 39.0569Z" fill="#3F3F3F"/>
<path d="M76.1674 31.6444C77.0256 32.2146 77.0256 33.0699 76.1674 33.64C75.3092 34.2102 73.5927 34.2102 72.7345 33.64C71.8763 33.0699 71.8763 32.2146 72.7345 31.6444C73.5927 31.0743 75.0231 31.0743 76.1674 31.6444Z" fill="#3F3F3F"/>
<path d="M85.0365 26.5126C85.8948 27.0828 85.8948 27.938 85.0365 28.5082C84.1783 29.0784 82.4619 29.0784 81.6036 28.5082C80.7454 27.938 80.7454 27.0828 81.6036 26.5126C82.4619 25.9424 84.1783 25.9424 85.0365 26.5126Z" fill="#3F3F3F"/>
<path d="M94.1908 21.0966C95.0491 21.6668 95.0491 22.522 94.1908 23.0922C93.3326 23.6624 91.6162 23.6624 90.7579 23.0922C89.8997 22.522 89.8997 21.6668 90.7579 21.0966C91.6162 20.5264 93.0465 20.5264 94.1908 21.0966Z" fill="#3F3F3F"/>
<path d="M101.342 18.5306C102.764 18.5306 103.917 17.8924 103.917 17.1051C103.917 16.3179 102.764 15.6797 101.342 15.6797C99.9203 15.6797 98.7676 16.3179 98.7676 17.1051C98.7676 17.8924 99.9203 18.5306 101.342 18.5306Z" fill="#3F3F3F"/>
<path d="M22.099 52.1708C22.9573 52.741 22.9573 53.5962 22.099 54.1664C21.2408 54.7366 19.5244 54.7366 18.6661 54.1664C17.8079 53.5962 17.8079 52.741 18.6661 52.1708C19.5244 51.6006 20.9547 51.6006 22.099 52.1708Z" fill="#3F3F3F"/>
<path d="M30.9672 47.0399C31.8254 47.6101 31.8254 48.4654 30.9672 49.0356C30.109 49.6057 28.3925 49.6057 27.5343 49.0356C26.6761 48.4654 26.6761 47.6101 27.5343 47.0399C28.6786 46.4698 30.109 46.4698 30.9672 47.0399Z" fill="#3F3F3F"/>
<path d="M40.1225 41.9081C40.9807 42.4783 40.9807 43.3335 40.1225 43.9037C39.2643 44.4739 37.5478 44.4739 36.6896 43.9037C35.8313 43.3335 35.8313 42.4783 36.6896 41.9081C37.5478 41.3379 38.9782 41.3379 40.1225 41.9081Z" fill="#3F3F3F"/>
<path d="M48.9906 36.7763C49.8489 37.3464 49.8489 38.2017 48.9906 38.7719C48.1324 39.3421 46.416 39.3421 45.5577 38.7719C44.6995 38.2017 44.6995 37.3464 45.5577 36.7763C46.416 36.2061 48.1324 36.2061 48.9906 36.7763Z" fill="#3F3F3F"/>
<path d="M56.4282 33.9251C57.8502 33.9251 59.0029 33.2869 59.0029 32.4997C59.0029 31.7124 57.8502 31.0742 56.4282 31.0742C55.0062 31.0742 53.8535 31.7124 53.8535 32.4997C53.8535 33.2869 55.0062 33.9251 56.4282 33.9251Z" fill="#3F3F3F"/>
<path d="M65.2973 28.7942C66.7193 28.7942 67.872 28.156 67.872 27.3688C67.872 26.5816 66.7193 25.9434 65.2973 25.9434C63.8754 25.9434 62.7227 26.5816 62.7227 27.3688C62.7227 28.156 63.8754 28.7942 65.2973 28.7942Z" fill="#3F3F3F"/>
<path d="M74.4516 23.6624C75.8736 23.6624 77.0263 23.0242 77.0263 22.237C77.0263 21.4497 75.8736 20.8115 74.4516 20.8115C73.0297 20.8115 71.877 21.4497 71.877 22.237C71.877 23.0242 73.0297 23.6624 74.4516 23.6624Z" fill="#3F3F3F"/>
<path d="M85.0365 15.9647C85.8948 16.5349 85.8948 17.3902 85.0365 17.9604C84.1783 18.5305 82.4619 18.5305 81.6036 17.9604C80.7454 17.3902 80.7454 16.5349 81.6036 15.9647C82.4619 15.3946 84.1783 15.3946 85.0365 15.9647Z" fill="#3F3F3F"/>
<path d="M94.1908 10.8329C95.0491 11.4031 95.0491 12.2583 94.1908 12.8285C93.3326 13.3987 91.6162 13.3987 90.7579 12.8285C89.8997 12.2583 89.8997 11.4031 90.7579 10.8329C91.6162 10.2627 93.0465 10.2627 94.1908 10.8329Z" fill="#3F3F3F"/>
<path d="M12.9447 47.0399C13.803 47.6101 13.803 48.4654 12.9447 49.0356C12.0865 49.6057 10.3701 49.6057 9.51184 49.0356C8.65361 48.4654 8.65361 47.6101 9.51184 47.0399C10.3701 46.4698 12.0865 46.4698 12.9447 47.0399Z" fill="#3F3F3F"/>
<path d="M21.8129 41.9081C22.6711 42.4783 22.6711 43.3335 21.8129 43.9037C20.9547 44.4739 19.2382 44.4739 18.38 43.9037C17.5218 43.3335 17.5218 42.4783 18.38 41.9081C19.5243 41.3379 20.9547 41.3379 21.8129 41.9081Z" fill="#3F3F3F"/>
<path d="M30.9672 36.7763C31.8254 37.3464 31.8254 38.2017 30.9672 38.7719C30.109 39.3421 28.3925 39.3421 27.5343 38.7719C26.6761 38.2017 26.6761 37.3464 27.5343 36.7763C28.3925 36.2061 30.109 36.2061 30.9672 36.7763Z" fill="#3F3F3F"/>
<path d="M38.1196 33.9251C39.5416 33.9251 40.6943 33.2869 40.6943 32.4997C40.6943 31.7124 39.5416 31.0742 38.1196 31.0742C36.6976 31.0742 35.5449 31.7124 35.5449 32.4997C35.5449 33.2869 36.6976 33.9251 38.1196 33.9251Z" fill="#3F3F3F"/>
<path d="M47.2739 28.7942C48.6959 28.7942 49.8486 28.156 49.8486 27.3688C49.8486 26.5816 48.6959 25.9434 47.2739 25.9434C45.8519 25.9434 44.6992 26.5816 44.6992 27.3688C44.6992 28.156 45.8519 28.7942 47.2739 28.7942Z" fill="#3F3F3F"/>
<path d="M57.8588 21.0966C58.717 21.6668 58.717 22.522 57.8588 23.0922C57.0006 23.6624 55.2841 23.6624 54.4259 23.0922C53.5677 22.522 53.5677 21.6668 54.4259 21.0966C55.5702 20.5264 57.0006 20.5264 57.8588 21.0966Z" fill="#3F3F3F"/>
<path d="M65.2973 18.2454C66.7193 18.2454 67.872 17.6072 67.872 16.82C67.872 16.0327 66.7193 15.3945 65.2973 15.3945C63.8754 15.3945 62.7227 16.0327 62.7227 16.82C62.7227 17.6072 63.8754 18.2454 65.2973 18.2454Z" fill="#3F3F3F"/>
<path d="M74.1645 13.1146C75.5865 13.1146 76.7392 12.4764 76.7392 11.6891C76.7392 10.9019 75.5865 10.2637 74.1645 10.2637C72.7426 10.2637 71.5898 10.9019 71.5898 11.6891C71.5898 12.4764 72.7426 13.1146 74.1645 13.1146Z" fill="#3F3F3F"/>
<path d="M85.0365 5.70205C85.8948 6.27222 85.8948 7.12749 85.0365 7.69766C84.1783 8.26784 82.4619 8.26784 81.6036 7.69766C80.7454 7.12749 80.7454 6.27222 81.6036 5.70205C82.4619 5.13187 84.1783 5.13187 85.0365 5.70205Z" fill="#3F3F3F"/>
<path d="M4.07658 41.9081C4.93481 42.4783 4.93481 43.3335 4.07658 43.9037C3.21835 44.4739 1.5019 44.4739 0.643671 43.9037C-0.214557 43.3335 -0.214557 42.4783 0.643671 41.9081C1.5019 41.3379 2.93228 41.3379 4.07658 41.9081Z" fill="#3F3F3F"/>
<path d="M11.228 39.0569C12.65 39.0569 13.8027 38.4187 13.8027 37.6315C13.8027 36.8442 12.65 36.2061 11.228 36.2061C9.80605 36.2061 8.65332 36.8442 8.65332 37.6315C8.65332 38.4187 9.80605 39.0569 11.228 39.0569Z" fill="#3F3F3F"/>
<path d="M20.0971 33.9251C21.5191 33.9251 22.6718 33.2869 22.6718 32.4997C22.6718 31.7124 21.5191 31.0742 20.0971 31.0742C18.6752 31.0742 17.5225 31.7124 17.5225 32.4997C17.5225 33.2869 18.6752 33.9251 20.0971 33.9251Z" fill="#3F3F3F"/>
<path d="M30.9672 26.2284C31.8254 26.7986 31.8254 27.6539 30.9672 28.224C30.109 28.7942 28.3925 28.7942 27.5343 28.224C26.6761 27.6539 26.6761 26.7986 27.5343 26.2284C28.3925 25.6582 30.109 25.6582 30.9672 26.2284Z" fill="#3F3F3F"/>
<path d="M39.8363 21.0966C40.6946 21.6668 40.6946 22.522 39.8363 23.0922C38.9781 23.6624 37.2617 23.6624 36.4034 23.0922C35.5452 22.522 35.5452 21.6668 36.4034 21.0966C37.5477 20.5264 38.9781 20.5264 39.8363 21.0966Z" fill="#3F3F3F"/>
<path d="M48.9906 15.9647C49.8489 16.5349 49.8489 17.3902 48.9906 17.9604C48.1324 18.5305 46.416 18.5305 45.5577 17.9604C44.6995 17.3902 44.6995 16.5349 45.5577 15.9647C46.416 15.3946 48.1324 15.3946 48.9906 15.9647Z" fill="#3F3F3F"/>
<path d="M57.8588 10.8329C58.717 11.4031 58.717 12.2583 57.8588 12.8285C57.0006 13.3987 55.2841 13.3987 54.4259 12.8285C53.5677 12.2583 53.5677 11.4031 54.4259 10.8329C55.5702 10.2627 57.0006 10.2627 57.8588 10.8329Z" fill="#3F3F3F"/>
<path d="M67.0131 5.70205C67.8713 6.27222 67.8713 7.12749 67.0131 7.69766C66.1549 8.26784 64.4384 8.26784 63.5802 7.69766C62.722 7.12749 62.722 6.27222 63.5802 5.70205C64.4384 5.13187 66.1549 5.13187 67.0131 5.70205Z" fill="#3F3F3F"/>
<path d="M75.8822 0.285105C76.7405 0.85528 76.7405 1.71054 75.8822 2.28072C75.024 2.85089 73.3076 2.85089 72.4493 2.28072C71.5911 1.71054 71.5911 0.85528 72.4493 0.285105C73.5936 1.71438e-05 75.024 1.71438e-05 75.8822 0.285105Z" fill="#3F3F3F"/>
<path d="M4.07658 31.3593C4.93481 31.9295 4.93481 32.7848 4.07658 33.3549C3.21835 33.9251 1.5019 33.9251 0.643671 33.3549C-0.214557 32.7848 -0.214557 31.9295 0.643671 31.3593C1.5019 31.0742 2.93228 31.0742 4.07658 31.3593Z" fill="#3F3F3F"/>
<path d="M12.9447 26.2284C13.803 26.7986 13.803 27.6539 12.9447 28.224C12.0865 28.7942 10.3701 28.7942 9.51184 28.224C8.65361 27.6539 8.65361 26.7986 9.51184 26.2284C10.3701 25.6582 12.0865 25.6582 12.9447 26.2284Z" fill="#3F3F3F"/>
<path d="M21.8129 21.0966C22.6711 21.6668 22.6711 22.522 21.8129 23.0922C20.9547 23.6624 19.2382 23.6624 18.38 23.0922C17.5218 22.522 17.5218 21.6668 18.38 21.0966C19.5243 20.5264 20.9547 20.5264 21.8129 21.0966Z" fill="#3F3F3F"/>
<path d="M29.2514 18.2454C30.6734 18.2454 31.8261 17.6072 31.8261 16.82C31.8261 16.0327 30.6734 15.3945 29.2514 15.3945C27.8295 15.3945 26.6768 16.0327 26.6768 16.82C26.6768 17.6072 27.8295 18.2454 29.2514 18.2454Z" fill="#3F3F3F"/>
<path d="M38.1196 13.1146C39.5416 13.1146 40.6943 12.4764 40.6943 11.6891C40.6943 10.9019 39.5416 10.2637 38.1196 10.2637C36.6976 10.2637 35.5449 10.9019 35.5449 11.6891C35.5449 12.4764 36.6976 13.1146 38.1196 13.1146Z" fill="#3F3F3F"/>
<path d="M48.9906 5.70205C49.8489 6.27222 49.8489 7.12749 48.9906 7.69766C48.1324 8.26784 46.416 8.26784 45.5577 7.69766C44.6995 7.12749 44.6995 6.27222 45.5577 5.70205C46.416 5.13187 48.1324 5.13187 48.9906 5.70205Z" fill="#3F3F3F"/>
<path d="M56.143 2.85088C57.565 2.85088 58.7177 2.21269 58.7177 1.42544C58.7177 0.638191 57.565 0 56.143 0C54.7211 0 53.5684 0.638191 53.5684 1.42544C53.5684 2.21269 54.7211 2.85088 56.143 2.85088Z" fill="#3F3F3F"/>
<path d="M4.07658 21.0966C4.93481 21.6668 4.93481 22.522 4.07658 23.0922C3.21835 23.6624 1.5019 23.6624 0.643671 23.0922C-0.214557 22.522 -0.214557 21.6668 0.643671 21.0966C1.5019 20.5264 2.93228 20.5264 4.07658 21.0966Z" fill="#3F3F3F"/>
<path d="M11.228 18.2454C12.65 18.2454 13.8027 17.6072 13.8027 16.82C13.8027 16.0327 12.65 15.3945 11.228 15.3945C9.80605 15.3945 8.65332 16.0327 8.65332 16.82C8.65332 17.6072 9.80605 18.2454 11.228 18.2454Z" fill="#3F3F3F"/>
<path d="M21.8129 10.8329C22.6711 11.4031 22.6711 12.2583 21.8129 12.8285C20.9547 13.3987 19.2382 13.3987 18.38 12.8285C17.5218 12.2583 17.5218 11.4031 18.38 10.8329C19.5243 10.2627 20.9547 10.2627 21.8129 10.8329Z" fill="#3F3F3F"/>
<path d="M30.9672 5.70205C31.8254 6.27222 31.8254 7.12749 30.9672 7.69766C30.109 8.26784 28.3925 8.26784 27.5343 7.69766C26.6761 7.12749 26.6761 6.27222 27.5343 5.70205C28.3925 5.13187 30.109 5.13187 30.9672 5.70205Z" fill="#3F3F3F"/>
<path d="M39.8363 0.285105C40.6946 0.85528 40.6946 1.71054 39.8363 2.28072C38.9781 2.85089 37.2617 2.85089 36.4034 2.28072C35.5452 1.71054 35.5452 0.85528 36.4034 0.285105C37.5477 1.71438e-05 38.9781 1.71438e-05 39.8363 0.285105Z" fill="#3F3F3F"/>
</svg>
