<svg width="80" height="46" viewBox="0 0 80 46" fill="none" xmlns="http://www.w3.org/2000/svg">
<g clip-path="url(#clip0)">
<path d="M54.0755 44.3856C54.6831 44.7892 54.6831 45.3944 54.0755 45.7979C53.4679 46.2014 52.2527 46.2014 51.6451 45.7979C51.0376 45.3944 51.0376 44.7892 51.6451 44.3856C52.2527 43.9821 53.2654 43.9821 54.0755 44.3856Z" fill="#3F3F3F"/>
<path d="M60.3538 40.7548C60.9614 41.1583 60.9614 41.7636 60.3538 42.1671C59.7462 42.5706 58.5311 42.5706 57.9235 42.1671C57.3159 41.7636 57.3159 41.1583 57.9235 40.7548C58.5311 40.3513 59.7462 40.3513 60.3538 40.7548Z" fill="#3F3F3F"/>
<path d="M65.6197 38.7363C66.6264 38.7363 67.4424 38.2846 67.4424 37.7275C67.4424 37.1704 66.6264 36.7188 65.6197 36.7188C64.613 36.7188 63.7969 37.1704 63.7969 37.7275C63.7969 38.2846 64.613 38.7363 65.6197 38.7363Z" fill="#3F3F3F"/>
<path d="M71.898 35.1054C72.9047 35.1054 73.7208 34.6538 73.7208 34.0967C73.7208 33.5395 72.9047 33.0879 71.898 33.0879C70.8913 33.0879 70.0752 33.5395 70.0752 34.0967C70.0752 34.6538 70.8913 35.1054 71.898 35.1054Z" fill="#3F3F3F"/>
<path d="M78.3794 31.4736C79.3861 31.4736 80.2022 31.022 80.2022 30.4648C80.2022 29.9077 79.3861 29.4561 78.3794 29.4561C77.3727 29.4561 76.5566 29.9077 76.5566 30.4648C76.5566 31.022 77.3727 31.4736 78.3794 31.4736Z" fill="#3F3F3F"/>
<path d="M40.1011 46C41.1078 46 41.9239 45.5483 41.9239 44.9912C41.9239 44.4341 41.1078 43.9824 40.1011 43.9824C39.0944 43.9824 38.2783 44.4341 38.2783 44.9912C38.2783 45.5483 39.0944 46 40.1011 46Z" fill="#3F3F3F"/>
<path d="M46.3794 42.3681C47.3861 42.3681 48.2022 41.9165 48.2022 41.3594C48.2022 40.8022 47.3861 40.3506 46.3794 40.3506C45.3727 40.3506 44.5566 40.8022 44.5566 41.3594C44.5566 41.9165 45.3727 42.3681 46.3794 42.3681Z" fill="#3F3F3F"/>
<path d="M52.8599 38.7363C53.8666 38.7363 54.6827 38.2846 54.6827 37.7275C54.6827 37.1704 53.8666 36.7188 52.8599 36.7188C51.8532 36.7188 51.0371 37.1704 51.0371 37.7275C51.0371 38.2846 51.8532 38.7363 52.8599 38.7363Z" fill="#3F3F3F"/>
<path d="M60.3538 33.2899C60.9614 33.6934 60.9614 34.2987 60.3538 34.7022C59.7462 35.1057 58.5311 35.1057 57.9235 34.7022C57.3159 34.2987 57.3159 33.6934 57.9235 33.2899C58.5311 32.8864 59.7462 32.8864 60.3538 33.2899Z" fill="#3F3F3F"/>
<path d="M66.8353 29.6581C67.4429 30.0616 67.4429 30.6669 66.8353 31.0704C66.2277 31.4739 65.0125 31.4739 64.4049 31.0704C63.7973 30.6669 63.7973 30.0616 64.4049 29.6581C65.0125 29.2546 66.0252 29.2546 66.8353 29.6581Z" fill="#3F3F3F"/>
<path d="M73.1136 26.0263C73.7212 26.4298 73.7212 27.035 73.1136 27.4385C72.506 27.8421 71.2908 27.8421 70.6832 27.4385C70.0756 27.035 70.0756 26.4298 70.6832 26.0263C71.2908 25.6228 72.506 25.6228 73.1136 26.0263Z" fill="#3F3F3F"/>
<path d="M79.5941 22.3944C80.2017 22.7979 80.2017 23.4032 79.5941 23.8067C78.9865 24.2102 77.7713 24.2102 77.1637 23.8067C76.5561 23.4032 76.5561 22.7979 77.1637 22.3944C77.7713 21.9909 78.784 21.9909 79.5941 22.3944Z" fill="#3F3F3F"/>
<path d="M28.556 44.3856C29.1636 44.7892 29.1636 45.3944 28.556 45.7979C27.9484 46.2014 26.7332 46.2014 26.1256 45.7979C25.518 45.3944 25.518 44.7892 26.1256 44.3856C26.7332 43.9821 27.7459 43.9821 28.556 44.3856Z" fill="#3F3F3F"/>
<path d="M34.8353 40.7548C35.4429 41.1583 35.4429 41.7636 34.8353 42.1671C34.2277 42.5706 33.0125 42.5706 32.4049 42.1671C31.7973 41.7636 31.7973 41.1583 32.4049 40.7548C33.0125 40.3513 34.2277 40.3513 34.8353 40.7548Z" fill="#3F3F3F"/>
<path d="M41.3158 36.9208C41.9234 37.3243 41.9234 37.9296 41.3158 38.3331C40.7082 38.7366 39.493 38.7366 38.8854 38.3331C38.2778 37.9296 38.2778 37.3243 38.8854 36.9208C39.493 36.5173 40.5056 36.5173 41.3158 36.9208Z" fill="#3F3F3F"/>
<path d="M46.3794 35.1054C47.3861 35.1054 48.2022 34.6538 48.2022 34.0967C48.2022 33.5395 47.3861 33.0879 46.3794 33.0879C45.3727 33.0879 44.5566 33.5395 44.5566 34.0967C44.5566 34.6538 45.3727 35.1054 46.3794 35.1054Z" fill="#3F3F3F"/>
<path d="M54.0755 29.6581C54.6831 30.0616 54.6831 30.6669 54.0755 31.0704C53.4679 31.4739 52.2527 31.4739 51.6451 31.0704C51.0376 30.6669 51.0376 30.0616 51.6451 29.6581C52.2527 29.2546 53.2654 29.2546 54.0755 29.6581Z" fill="#3F3F3F"/>
<path d="M59.1392 27.6406C60.1459 27.6406 60.962 27.1889 60.962 26.6318C60.962 26.0747 60.1459 25.623 59.1392 25.623C58.1325 25.623 57.3164 26.0747 57.3164 26.6318C57.3164 27.1889 58.1325 27.6406 59.1392 27.6406Z" fill="#3F3F3F"/>
<path d="M65.6197 24.0088C66.6264 24.0088 67.4424 23.5571 67.4424 23C67.4424 22.4429 66.6264 21.9912 65.6197 21.9912C64.613 21.9912 63.7969 22.4429 63.7969 23C63.7969 23.5571 64.613 24.0088 65.6197 24.0088Z" fill="#3F3F3F"/>
<path d="M71.898 20.3769C72.9047 20.3769 73.7208 19.9253 73.7208 19.3681C73.7208 18.811 72.9047 18.3594 71.898 18.3594C70.8913 18.3594 70.0752 18.811 70.0752 19.3681C70.0752 19.9253 70.8913 20.3769 71.898 20.3769Z" fill="#3F3F3F"/>
<path d="M79.5941 14.9296C80.2017 15.3331 80.2017 15.9384 79.5941 16.3419C78.9865 16.7454 77.7713 16.7454 77.1637 16.3419C76.5561 15.9384 76.5561 15.3331 77.1637 14.9296C77.7713 14.5261 78.784 14.5261 79.5941 14.9296Z" fill="#3F3F3F"/>
<path d="M22.0755 40.7548C22.6831 41.1583 22.6831 41.7636 22.0755 42.1671C21.4679 42.5706 20.2527 42.5706 19.6451 42.1671C19.0376 41.7636 19.0376 41.1583 19.6451 40.7548C20.4553 40.3513 21.4679 40.3513 22.0755 40.7548Z" fill="#3F3F3F"/>
<path d="M28.556 36.9208C29.1636 37.3243 29.1636 37.9296 28.556 38.3331C27.9484 38.7366 26.7332 38.7366 26.1256 38.3331C25.518 37.9296 25.518 37.3243 26.1256 36.9208C26.7332 36.5173 27.7459 36.5173 28.556 36.9208Z" fill="#3F3F3F"/>
<path d="M33.6197 35.1054C34.6264 35.1054 35.4424 34.6538 35.4424 34.0967C35.4424 33.5395 34.6264 33.0879 33.6197 33.0879C32.613 33.0879 31.7969 33.5395 31.7969 34.0967C31.7969 34.6538 32.613 35.1054 33.6197 35.1054Z" fill="#3F3F3F"/>
<path d="M40.1011 31.4736C41.1078 31.4736 41.9239 31.022 41.9239 30.4648C41.9239 29.9077 41.1078 29.4561 40.1011 29.4561C39.0944 29.4561 38.2783 29.9077 38.2783 30.4648C38.2783 31.022 39.0944 31.4736 40.1011 31.4736Z" fill="#3F3F3F"/>
<path d="M46.3794 27.6406C47.3861 27.6406 48.2022 27.1889 48.2022 26.6318C48.2022 26.0747 47.3861 25.623 46.3794 25.623C45.3727 25.623 44.5566 26.0747 44.5566 26.6318C44.5566 27.1889 45.3727 27.6406 46.3794 27.6406Z" fill="#3F3F3F"/>
<path d="M54.0755 22.3944C54.6831 22.7979 54.6831 23.4032 54.0755 23.8067C53.4679 24.2102 52.2527 24.2102 51.6451 23.8067C51.0376 23.4032 51.0376 22.7979 51.6451 22.3944C52.2527 21.9909 53.2654 21.9909 54.0755 22.3944Z" fill="#3F3F3F"/>
<path d="M60.3538 18.7626C60.9614 19.1661 60.9614 19.7714 60.3538 20.1749C59.7462 20.5784 58.5311 20.5784 57.9235 20.1749C57.3159 19.7714 57.3159 19.1661 57.9235 18.7626C58.5311 18.3591 59.7462 18.3591 60.3538 18.7626Z" fill="#3F3F3F"/>
<path d="M66.8353 14.9296C67.4429 15.3331 67.4429 15.9384 66.8353 16.3419C66.2277 16.7454 65.0125 16.7454 64.4049 16.3419C63.7973 15.9384 63.7973 15.3331 64.4049 14.9296C65.0125 14.5261 66.0252 14.5261 66.8353 14.9296Z" fill="#3F3F3F"/>
<path d="M71.898 13.1142C72.9047 13.1142 73.7208 12.6626 73.7208 12.1055C73.7208 11.5483 72.9047 11.0967 71.898 11.0967C70.8913 11.0967 70.0752 11.5483 70.0752 12.1055C70.0752 12.6626 70.8913 13.1142 71.898 13.1142Z" fill="#3F3F3F"/>
<path d="M15.7972 36.9208C16.4048 37.3243 16.4048 37.9296 15.7972 38.3331C15.1896 38.7366 13.9744 38.7366 13.3668 38.3331C12.7592 37.9296 12.7592 37.3243 13.3668 36.9208C13.9744 36.5173 14.9871 36.5173 15.7972 36.9208Z" fill="#3F3F3F"/>
<path d="M22.0755 33.2899C22.6831 33.6934 22.6831 34.2987 22.0755 34.7022C21.4679 35.1057 20.2527 35.1057 19.6451 34.7022C19.0376 34.2987 19.0376 33.6934 19.6451 33.2899C20.4553 32.8864 21.4679 32.8864 22.0755 33.2899Z" fill="#3F3F3F"/>
<path d="M28.556 29.6581C29.1636 30.0616 29.1636 30.6669 28.556 31.0704C27.9484 31.4739 26.7332 31.4739 26.1256 31.0704C25.518 30.6669 25.518 30.0616 26.1256 29.6581C26.7332 29.2546 27.7459 29.2546 28.556 29.6581Z" fill="#3F3F3F"/>
<path d="M34.8353 26.0263C35.4429 26.4298 35.4429 27.035 34.8353 27.4385C34.2277 27.8421 33.0125 27.8421 32.4049 27.4385C31.7973 27.035 31.7973 26.4298 32.4049 26.0263C33.0125 25.6228 34.2277 25.6228 34.8353 26.0263Z" fill="#3F3F3F"/>
<path d="M40.1011 24.0088C41.1078 24.0088 41.9239 23.5571 41.9239 23C41.9239 22.4429 41.1078 21.9912 40.1011 21.9912C39.0944 21.9912 38.2783 22.4429 38.2783 23C38.2783 23.5571 39.0944 24.0088 40.1011 24.0088Z" fill="#3F3F3F"/>
<path d="M46.3794 20.3769C47.3861 20.3769 48.2022 19.9253 48.2022 19.3681C48.2022 18.811 47.3861 18.3594 46.3794 18.3594C45.3727 18.3594 44.5566 18.811 44.5566 19.3681C44.5566 19.9253 45.3727 20.3769 46.3794 20.3769Z" fill="#3F3F3F"/>
<path d="M52.8599 16.7461C53.8666 16.7461 54.6827 16.2944 54.6827 15.7373C54.6827 15.1802 53.8666 14.7285 52.8599 14.7285C51.8532 14.7285 51.0371 15.1802 51.0371 15.7373C51.0371 16.2944 51.8532 16.7461 52.8599 16.7461Z" fill="#3F3F3F"/>
<path d="M60.3538 11.2977C60.9614 11.7013 60.9614 12.3065 60.3538 12.71C59.7462 13.1135 58.5311 13.1135 57.9235 12.71C57.3159 12.3065 57.3159 11.7013 57.9235 11.2977C58.5311 10.8942 59.7462 10.8942 60.3538 11.2977Z" fill="#3F3F3F"/>
<path d="M66.8353 7.66689C67.4429 8.0704 67.4429 8.67566 66.8353 9.07917C66.2277 9.48268 65.0125 9.48268 64.4049 9.07917C63.7973 8.67566 63.7973 8.0704 64.4049 7.66689C65.0125 7.26338 66.0252 7.26338 66.8353 7.66689Z" fill="#3F3F3F"/>
<path d="M9.31576 33.2899C9.92336 33.6934 9.92336 34.2987 9.31576 34.7022C8.70817 35.1057 7.49298 35.1057 6.88538 34.7022C6.27779 34.2987 6.27779 33.6934 6.88538 33.2899C7.49298 32.8864 8.70817 32.8864 9.31576 33.2899Z" fill="#3F3F3F"/>
<path d="M15.5941 29.6581C16.2017 30.0616 16.2017 30.6669 15.5941 31.0704C14.9865 31.4739 13.7713 31.4739 13.1637 31.0704C12.5561 30.6669 12.5561 30.0616 13.1637 29.6581C13.9738 29.2546 14.9865 29.2546 15.5941 29.6581Z" fill="#3F3F3F"/>
<path d="M22.0755 26.0263C22.6831 26.4298 22.6831 27.035 22.0755 27.4385C21.4679 27.8421 20.2527 27.8421 19.6451 27.4385C19.0376 27.035 19.0376 26.4298 19.6451 26.0263C20.2527 25.6228 21.4679 25.6228 22.0755 26.0263Z" fill="#3F3F3F"/>
<path d="M27.1392 24.0088C28.1459 24.0088 28.962 23.5571 28.962 23C28.962 22.4429 28.1459 21.9912 27.1392 21.9912C26.1325 21.9912 25.3164 22.4429 25.3164 23C25.3164 23.5571 26.1325 24.0088 27.1392 24.0088Z" fill="#3F3F3F"/>
<path d="M33.6197 20.3769C34.6264 20.3769 35.4424 19.9253 35.4424 19.3681C35.4424 18.811 34.6264 18.3594 33.6197 18.3594C32.613 18.3594 31.7969 18.811 31.7969 19.3681C31.7969 19.9253 32.613 20.3769 33.6197 20.3769Z" fill="#3F3F3F"/>
<path d="M41.1136 14.9296C41.7212 15.3331 41.7212 15.9384 41.1136 16.3419C40.506 16.7454 39.2908 16.7454 38.6832 16.3419C38.0756 15.9384 38.0756 15.3331 38.6832 14.9296C39.4934 14.5261 40.506 14.5261 41.1136 14.9296Z" fill="#3F3F3F"/>
<path d="M46.3794 12.9121C47.3861 12.9121 48.2022 12.4604 48.2022 11.9033C48.2022 11.3462 47.3861 10.8945 46.3794 10.8945C45.3727 10.8945 44.5566 11.3462 44.5566 11.9033C44.5566 12.4604 45.3727 12.9121 46.3794 12.9121Z" fill="#3F3F3F"/>
<path d="M52.6577 9.28122C53.6644 9.28122 54.4805 8.82957 54.4805 8.27244C54.4805 7.71531 53.6644 7.26367 52.6577 7.26367C51.651 7.26367 50.835 7.71531 50.835 8.27244C50.835 8.82957 51.651 9.28122 52.6577 9.28122Z" fill="#3F3F3F"/>
<path d="M60.3538 4.03505C60.9614 4.43856 60.9614 5.04383 60.3538 5.44734C59.7462 5.85084 58.5311 5.85084 57.9235 5.44734C57.3159 5.04383 57.3159 4.43856 57.9235 4.03505C58.5311 3.63154 59.7462 3.63154 60.3538 4.03505Z" fill="#3F3F3F"/>
<path d="M3.03744 29.6581C3.64504 30.0616 3.64504 30.6669 3.03744 31.0704C2.42985 31.4739 1.21466 31.4739 0.607063 31.0704C-0.000531539 30.6669 -0.000531539 30.0616 0.607063 29.6581C1.21466 29.2546 2.22732 29.2546 3.03744 29.6581Z" fill="#3F3F3F"/>
<path d="M8.10013 27.6406C9.10683 27.6406 9.92291 27.1889 9.92291 26.6318C9.92291 26.0747 9.10683 25.623 8.10013 25.623C7.09343 25.623 6.27734 26.0747 6.27734 26.6318C6.27734 27.1889 7.09343 27.6406 8.10013 27.6406Z" fill="#3F3F3F"/>
<path d="M14.3794 24.0088C15.3861 24.0088 16.2022 23.5571 16.2022 23C16.2022 22.4429 15.3861 21.9912 14.3794 21.9912C13.3727 21.9912 12.5566 22.4429 12.5566 23C12.5566 23.5571 13.3727 24.0088 14.3794 24.0088Z" fill="#3F3F3F"/>
<path d="M22.0755 18.5614C22.6831 18.9649 22.6831 19.5702 22.0755 19.9737C21.4679 20.3772 20.2527 20.3772 19.6451 19.9737C19.0376 19.5702 19.0376 18.9649 19.6451 18.5614C20.2527 18.1579 21.4679 18.1579 22.0755 18.5614Z" fill="#3F3F3F"/>
<path d="M28.3538 14.9296C28.9614 15.3331 28.9614 15.9384 28.3538 16.3419C27.7463 16.7454 26.5311 16.7454 25.9235 16.3419C25.3159 15.9384 25.3159 15.3331 25.9235 14.9296C26.7336 14.5261 27.7463 14.5261 28.3538 14.9296Z" fill="#3F3F3F"/>
<path d="M34.8353 11.2977C35.4429 11.7013 35.4429 12.3065 34.8353 12.71C34.2277 13.1135 33.0125 13.1135 32.4049 12.71C31.7973 12.3065 31.7973 11.7013 32.4049 11.2977C33.0125 10.8942 34.2277 10.8942 34.8353 11.2977Z" fill="#3F3F3F"/>
<path d="M41.1136 7.66689C41.7212 8.0704 41.7212 8.67566 41.1136 9.07917C40.506 9.48268 39.2908 9.48268 38.6832 9.07917C38.0756 8.67566 38.0756 8.0704 38.6832 7.66689C39.4934 7.26338 40.506 7.26338 41.1136 7.66689Z" fill="#3F3F3F"/>
<path d="M47.5941 4.03505C48.2017 4.43856 48.2017 5.04383 47.5941 5.44734C46.9865 5.85084 45.7713 5.85084 45.1637 5.44734C44.5561 5.04383 44.5561 4.43856 45.1637 4.03505C45.7713 3.63154 46.9865 3.63154 47.5941 4.03505Z" fill="#3F3F3F"/>
<path d="M53.8734 0.202097C54.481 0.605606 54.481 1.21087 53.8734 1.61438C53.2658 2.01789 52.0506 2.01789 51.443 1.61438C50.8354 1.21087 50.8354 0.605606 51.443 0.202097C52.2531 0.000342663 53.2658 0.000342663 53.8734 0.202097Z" fill="#3F3F3F"/>
<path d="M3.03744 22.1933C3.64504 22.5968 3.64504 23.2021 3.03744 23.6056C2.42985 24.0091 1.21466 24.0091 0.607063 23.6056C-0.000531539 23.2021 -0.000531539 22.5968 0.607063 22.1933C1.21466 21.9916 2.22732 21.9916 3.03744 22.1933Z" fill="#3F3F3F"/>
<path d="M9.31576 18.5614C9.92336 18.9649 9.92336 19.5702 9.31576 19.9737C8.70817 20.3772 7.49298 20.3772 6.88538 19.9737C6.27779 19.5702 6.27779 18.9649 6.88538 18.5614C7.49298 18.1579 8.70817 18.1579 9.31576 18.5614Z" fill="#3F3F3F"/>
<path d="M15.5941 14.9296C16.2017 15.3331 16.2017 15.9384 15.5941 16.3419C14.9865 16.7454 13.7713 16.7454 13.1637 16.3419C12.5561 15.9384 12.5561 15.3331 13.1637 14.9296C13.9738 14.5261 14.9865 14.5261 15.5941 14.9296Z" fill="#3F3F3F"/>
<path d="M20.8599 12.9121C21.8666 12.9121 22.6827 12.4604 22.6827 11.9033C22.6827 11.3462 21.8666 10.8945 20.8599 10.8945C19.8532 10.8945 19.0371 11.3462 19.0371 11.9033C19.0371 12.4604 19.8532 12.9121 20.8599 12.9121Z" fill="#3F3F3F"/>
<path d="M27.1392 9.28122C28.1459 9.28122 28.962 8.82957 28.962 8.27244C28.962 7.71531 28.1459 7.26367 27.1392 7.26367C26.1325 7.26367 25.3164 7.71531 25.3164 8.27244C25.3164 8.82957 26.1325 9.28122 27.1392 9.28122Z" fill="#3F3F3F"/>
<path d="M34.8353 4.03505C35.4429 4.43856 35.4429 5.04383 34.8353 5.44734C34.2277 5.85084 33.0125 5.85084 32.4049 5.44734C31.7973 5.04383 31.7973 4.43856 32.4049 4.03505C33.0125 3.63154 34.2277 3.63154 34.8353 4.03505Z" fill="#3F3F3F"/>
<path d="M39.898 2.01754C40.9047 2.01754 41.7208 1.5659 41.7208 1.00877C41.7208 0.451643 40.9047 0 39.898 0C38.8913 0 38.0752 0.451643 38.0752 1.00877C38.0752 1.5659 38.8913 2.01754 39.898 2.01754Z" fill="#3F3F3F"/>
<path d="M3.03744 14.9296C3.64504 15.3331 3.64504 15.9384 3.03744 16.3419C2.42985 16.7454 1.21466 16.7454 0.607063 16.3419C-0.000531539 15.9384 -0.000531539 15.3331 0.607063 14.9296C1.21466 14.5261 2.22732 14.5261 3.03744 14.9296Z" fill="#3F3F3F"/>
<path d="M8.10013 12.9121C9.10683 12.9121 9.92291 12.4604 9.92291 11.9033C9.92291 11.3462 9.10683 10.8945 8.10013 10.8945C7.09343 10.8945 6.27734 11.3462 6.27734 11.9033C6.27734 12.4604 7.09343 12.9121 8.10013 12.9121Z" fill="#3F3F3F"/>
<path d="M15.5941 7.66689C16.2017 8.0704 16.2017 8.67566 15.5941 9.07917C14.9865 9.48268 13.7713 9.48268 13.1637 9.07917C12.5561 8.67566 12.5561 8.0704 13.1637 7.66689C13.9738 7.26338 14.9865 7.26338 15.5941 7.66689Z" fill="#3F3F3F"/>
<path d="M22.0755 4.03505C22.6831 4.43856 22.6831 5.04383 22.0755 5.44734C21.4679 5.85084 20.2527 5.85084 19.6451 5.44734C19.0376 5.04383 19.0376 4.43856 19.6451 4.03505C20.2527 3.63154 21.4679 3.63154 22.0755 4.03505Z" fill="#3F3F3F"/>
<path d="M28.3538 0.202097C28.9614 0.605606 28.9614 1.21087 28.3538 1.61438C27.7463 2.01789 26.5311 2.01789 25.9235 1.61438C25.3159 1.21087 25.3159 0.605606 25.9235 0.202097C26.7336 0.000342663 27.7463 0.000342663 28.3538 0.202097Z" fill="#3F3F3F"/>
</g>
<defs>
<clipPath id="clip0">
<rect width="80" height="46" fill="white"/>
</clipPath>
</defs>
</svg>
