<svg width="16" height="15" viewBox="0 0 16 15" fill="none" xmlns="http://www.w3.org/2000/svg">
<path d="M7.91471 7.04995L15.0064 7.04994C15.2475 7.04994 15.4404 7.24283 15.4404 7.48394C15.4404 7.72504 15.2475 7.91793 15.0064 7.91793L7.91471 7.91793C7.71218 8.92414 6.8217 9.68604 5.7544 9.68604C4.68711 9.68604 3.79662 8.92414 3.5941 7.91793L0.437215 7.91793C0.196109 7.91793 0.00322429 7.72504 0.00322428 7.48394C0.00322427 7.24283 0.196109 7.04995 0.437215 7.04995L3.5941 7.04995C3.79662 6.04373 4.68711 5.28184 5.7544 5.28184C6.81848 5.28184 7.71218 6.04052 7.91471 7.04995ZM4.42028 7.48394C4.42028 8.22011 5.01823 8.81805 5.7544 8.81805C6.49058 8.81805 7.08852 8.22011 7.08852 7.48394C7.08852 6.74776 6.49058 6.14982 5.7544 6.14982C5.01823 6.14982 4.42028 6.74776 4.42028 7.48394Z" fill="#3A405F"/>
<path d="M11.5538 12.3639L15.0064 12.3639C15.2475 12.3639 15.4404 12.5568 15.4404 12.7979C15.4404 13.039 15.2475 13.2319 15.0064 13.2319L11.5538 13.2319C11.3513 14.2381 10.4608 15 9.39349 15C8.3262 15 7.43571 14.2381 7.23319 13.2319L0.437215 13.2319C0.196109 13.2319 0.00322429 13.039 0.00322428 12.7979C0.00322427 12.5568 0.196109 12.3639 0.437215 12.3639L7.2364 12.3639C7.43893 11.3577 8.32941 10.5958 9.39671 10.5958C10.464 10.5958 11.3513 11.3577 11.5538 12.3639ZM8.05938 12.7979C8.05938 13.5341 8.65732 14.132 9.39349 14.132C10.1297 14.132 10.7276 13.5341 10.7276 12.7979C10.7276 12.0617 10.1297 11.4638 9.39349 11.4638C8.65732 11.4638 8.05938 12.0649 8.05938 12.7979Z" fill="#3A405F"/>
<path d="M11.5538 1.76821L15.0064 1.76821C15.2475 1.76821 15.4404 1.96109 15.4404 2.2022C15.4404 2.4433 15.2475 2.63619 15.0064 2.63619L11.5538 2.63619C11.3513 3.6424 10.4608 4.4043 9.39349 4.4043C8.3262 4.4043 7.43571 3.6424 7.23319 2.63619L0.434001 2.63619C0.192895 2.63619 1.04047e-05 2.4433 1.03942e-05 2.2022C1.03836e-05 1.96109 0.192895 1.76821 0.434001 1.76821L7.2364 1.76821C7.43893 0.761992 8.32941 9.75856e-05 9.39671 9.7539e-05C10.464 9.74923e-05 11.3513 0.758777 11.5538 1.76821ZM8.05938 2.2022C8.05938 2.93837 8.65732 3.53632 9.39349 3.53632C10.1297 3.53632 10.7276 2.93837 10.7276 2.2022C10.7276 1.46602 10.1297 0.868079 9.39349 0.868079C8.65732 0.868079 8.05938 1.46602 8.05938 2.2022Z" fill="#3A405F"/>
</svg>
