<svg width="73" height="69" viewBox="0 0 73 69" fill="none" xmlns="http://www.w3.org/2000/svg">
<path d="M24.8075 22.9808L24.3829 21.7902C24.0906 20.9706 23.529 20.2742 22.7898 19.815C22.0506 19.3558 21.1776 19.1608 20.3132 19.2619L3.39947 21.2401C2.89778 21.2988 2.41257 21.4557 1.97153 21.7019C1.53049 21.9481 1.14227 22.2787 0.829015 22.675C0.515764 23.0712 0.283622 23.5253 0.145848 24.0112C0.00807345 24.4972 -0.0326353 25.0055 0.0260426 25.5072L4.84021 66.6687C4.88045 67.0127 4.98806 67.3455 5.15689 67.6479C5.32573 67.9504 5.55248 68.2166 5.82421 68.4314C6.09594 68.6463 6.40732 68.8055 6.74057 68.9C7.07382 68.9944 7.42242 69.0224 7.76646 68.9821L68.2817 61.9044C68.9765 61.8231 69.6106 61.4691 70.0444 60.9203C70.4782 60.3716 70.6763 59.6729 70.5951 58.9781L66.4334 23.3955C66.3521 22.7007 65.9982 22.0666 65.4494 21.6328C64.9006 21.1989 64.202 21.0008 63.5071 21.0821L28.3667 25.1921C27.6108 25.2805 26.8472 25.1099 26.2008 24.7083C25.5543 24.3067 25.0631 23.6977 24.8075 22.9808Z" fill="#A3A8C1"/>
<path d="M26.4978 5.08036L7.37695 8.89111L12.627 35.2339L31.7479 31.4232L26.4978 5.08036Z" fill="#A3A8C1"/>
<path opacity="0.7" d="M26.4978 5.08036L7.37695 8.89111L12.627 35.2339L31.7479 31.4232L26.4978 5.08036Z" fill="white"/>
<g opacity="0.4">
<path opacity="0.4" d="M23.9444 11.4203L12.1659 13.7678C11.8916 13.8224 11.6069 13.7659 11.3743 13.6106C11.1417 13.4553 10.9803 13.2139 10.9256 12.9396C10.8985 12.8038 10.8985 12.664 10.9255 12.5282C10.9524 12.3923 11.0059 12.2631 11.0828 12.148C11.1597 12.0328 11.2585 11.9339 11.3736 11.8569C11.4887 11.7799 11.6179 11.7264 11.7537 11.6993L23.5321 9.35188C23.8064 9.29722 24.0912 9.35376 24.3238 9.50906C24.5564 9.66437 24.7178 9.90571 24.7724 10.18C24.7995 10.3158 24.7996 10.4556 24.7726 10.5915C24.7456 10.7273 24.6922 10.8565 24.6153 10.9717C24.5384 11.0868 24.4396 11.1857 24.3244 11.2627C24.2093 11.3397 24.0802 11.3933 23.9444 11.4203Z" fill="#A3A8C1"/>
<path opacity="0.4" d="M24.8126 15.7763L13.0341 18.1237C12.7598 18.1783 12.4751 18.1218 12.2425 17.9665C12.0098 17.8112 11.8484 17.5699 11.7938 17.2956C11.7391 17.0213 11.7957 16.7365 11.951 16.5039C12.1063 16.2713 12.3476 16.1099 12.6219 16.0553L24.4003 13.7078C24.5361 13.6808 24.676 13.6807 24.8118 13.7077C24.9476 13.7347 25.0768 13.7881 25.192 13.865C25.3072 13.9419 25.4061 14.0407 25.483 14.1558C25.56 14.271 25.6136 14.4001 25.6406 14.5359V14.536C25.6677 14.6718 25.6678 14.8116 25.6408 14.9474C25.6138 15.0833 25.5604 15.2124 25.4835 15.3276C25.4066 15.4428 25.3078 15.5417 25.1926 15.6187C25.0775 15.6957 24.9484 15.7492 24.8126 15.7763Z" fill="#A3A8C1"/>
<path opacity="0.4" d="M25.6807 20.1322L13.9023 22.4796C13.7665 22.5067 13.6266 22.5068 13.4908 22.4798C13.355 22.4528 13.2258 22.3994 13.1106 22.3225C12.9954 22.2456 12.8965 22.1468 12.8195 22.0316C12.7426 21.9165 12.689 21.7874 12.6619 21.6516C12.6073 21.3773 12.6638 21.0925 12.8191 20.8599C12.9744 20.6273 13.2157 20.4659 13.49 20.4112L25.2685 18.0638C25.4043 18.0367 25.5441 18.0367 25.6799 18.0636C25.8158 18.0906 25.945 18.1441 26.0601 18.221C26.1753 18.2979 26.2742 18.3967 26.3512 18.5118C26.4282 18.6269 26.4817 18.7561 26.5088 18.8919C26.5635 19.1662 26.5069 19.4509 26.3516 19.6836C26.1963 19.9162 25.955 20.0776 25.6807 20.1322Z" fill="#A3A8C1"/>
<path opacity="0.4" d="M26.5489 24.4877L14.7704 26.8351C14.6346 26.8622 14.4948 26.8622 14.359 26.8353C14.2231 26.8083 14.0939 26.7548 13.9788 26.6779C13.8636 26.6011 13.7647 26.5022 13.6877 26.3871C13.6107 26.272 13.5572 26.1428 13.5301 26.007V26.007C13.503 25.8712 13.503 25.7314 13.53 25.5955C13.5569 25.4597 13.6104 25.3305 13.6873 25.2153C13.7642 25.1001 13.863 25.0012 13.9781 24.9243C14.0932 24.8473 14.2224 24.7937 14.3582 24.7667L26.1366 22.4193C26.4109 22.3646 26.6957 22.4211 26.9283 22.5764C27.1609 22.7317 27.3223 22.9731 27.377 23.2474C27.4316 23.5216 27.3751 23.8064 27.2198 24.039C27.0645 24.2716 26.8231 24.433 26.5489 24.4877Z" fill="#A3A8C1"/>
<path opacity="0.4" d="M24.1979 29.4853L15.6386 31.1911C15.3643 31.2458 15.0795 31.1893 14.8469 31.034C14.6143 30.8787 14.4529 30.6373 14.3983 30.363C14.3712 30.2272 14.3711 30.0874 14.3981 29.9516C14.4251 29.8157 14.4785 29.6865 14.5554 29.5713C14.6323 29.4562 14.7312 29.3573 14.8463 29.2803C14.9614 29.2033 15.0905 29.1498 15.2264 29.1227L23.7857 27.4168C24.06 27.3622 24.3448 27.4187 24.5774 27.574C24.81 27.7293 24.9714 27.9706 25.0261 28.2449C25.0807 28.5192 25.0242 28.804 24.8689 29.0366C24.7136 29.2692 24.4722 29.4306 24.1979 29.4853Z" fill="#A3A8C1"/>
</g>
<path d="M53.7426 -0.000206549L34.4258 2.64355L38.0681 29.2563L57.3849 26.6126L53.7426 -0.000206549Z" fill="#A3A8C1"/>
<path opacity="0.7" d="M53.7426 -0.000206549L34.4258 2.64355L38.0681 29.2563L57.3849 26.6126L53.7426 -0.000206549Z" fill="white"/>
<g opacity="0.4">
<path opacity="0.4" d="M50.8096 6.17312L38.9105 7.80168C38.6334 7.8396 38.3525 7.76589 38.1298 7.59676C37.907 7.42764 37.7606 7.17694 37.7226 6.89984C37.6847 6.62273 37.7584 6.34192 37.9276 6.11917C38.0967 5.89641 38.3474 5.74997 38.6245 5.71204L50.5236 4.08347C50.8007 4.04555 51.0815 4.11926 51.3043 4.28839C51.527 4.45752 51.6735 4.70821 51.7114 4.98531C51.7493 5.26241 51.6756 5.54322 51.5065 5.76598C51.3374 5.98873 51.0867 6.13519 50.8096 6.17312Z" fill="#A3A8C1"/>
<path opacity="0.4" d="M51.4121 10.5735L39.513 12.202C39.3758 12.2208 39.2362 12.2124 39.1023 12.1772C38.9683 12.1421 38.8426 12.0809 38.7323 11.9971C38.622 11.9134 38.5293 11.8088 38.4594 11.6892C38.3896 11.5696 38.344 11.4374 38.3252 11.3002C38.2872 11.0231 38.361 10.7423 38.5301 10.5195C38.6992 10.2968 38.9499 10.1503 39.227 10.1124L51.1261 8.48387C51.2633 8.46508 51.4029 8.47351 51.5368 8.50866C51.6708 8.54382 51.7965 8.60501 51.9068 8.68875C52.0171 8.7725 52.1098 8.87714 52.1797 8.99672C52.2495 9.1163 52.2951 9.24846 52.3139 9.38567C52.3327 9.52288 52.3243 9.66243 52.2891 9.79638C52.254 9.93033 52.1928 10.056 52.109 10.1663C52.0253 10.2766 51.9206 10.3694 51.8011 10.4392C51.6815 10.5091 51.5493 10.5547 51.4121 10.5735Z" fill="#A3A8C1"/>
<path opacity="0.4" d="M43.3933 16.1541L40.1145 16.6028C39.9773 16.6216 39.8378 16.6132 39.7038 16.578C39.5699 16.5428 39.4442 16.4816 39.3339 16.3979C39.2236 16.3142 39.1308 16.2095 39.061 16.0899C38.9911 15.9704 38.9455 15.8382 38.9267 15.701C38.8888 15.4239 38.9625 15.1431 39.1316 14.9203C39.3008 14.6975 39.5514 14.5511 39.8285 14.5132L43.1073 14.0644C43.3844 14.0265 43.6652 14.1002 43.8879 14.2693C44.1107 14.4385 44.2572 14.6891 44.2951 14.9662V14.9663C44.333 15.2434 44.2593 15.5242 44.0902 15.7469C43.921 15.9697 43.6704 16.1161 43.3933 16.1541Z" fill="#A3A8C1"/>
<path opacity="0.4" d="M49.7516 15.2835L46.4729 15.7322C46.3357 15.751 46.1962 15.7425 46.0622 15.7074C45.9283 15.6722 45.8026 15.611 45.6923 15.5273C45.582 15.4436 45.4892 15.3389 45.4194 15.2193C45.3495 15.0998 45.3039 14.9676 45.2851 14.8304C45.2664 14.6932 45.2748 14.5536 45.3099 14.4197C45.3451 14.2857 45.4063 14.16 45.49 14.0497C45.5738 13.9394 45.6784 13.8467 45.798 13.7768C45.9176 13.707 46.0497 13.6614 46.1869 13.6426L49.4657 13.1938C49.7428 13.1559 50.0236 13.2296 50.2464 13.3987C50.4691 13.5679 50.6156 13.8186 50.6535 14.0957C50.6914 14.3728 50.6177 14.6536 50.4486 14.8763C50.2794 15.0991 50.0288 15.2455 49.7516 15.2835Z" fill="#A3A8C1"/>
<path opacity="0.4" d="M52.6162 19.3743L40.7171 21.0028C40.44 21.0407 40.1592 20.967 39.9364 20.7979C39.7137 20.6288 39.5672 20.3781 39.5293 20.101C39.5105 19.9638 39.5189 19.8243 39.5541 19.6903C39.5892 19.5564 39.6504 19.4306 39.7342 19.3203C39.8179 19.21 39.9226 19.1173 40.0421 19.0475C40.1617 18.9776 40.2939 18.932 40.4311 18.9132L52.3302 17.2846C52.6073 17.2467 52.8881 17.3204 53.1109 17.4895C53.3337 17.6587 53.4801 17.9094 53.5181 18.1865C53.5368 18.3237 53.5284 18.4632 53.4933 18.5972C53.4581 18.7311 53.3969 18.8568 53.3131 18.9671C53.2294 19.0774 53.1248 19.1702 53.0052 19.24C52.8856 19.3099 52.7534 19.3555 52.6162 19.3743Z" fill="#A3A8C1"/>
<path opacity="0.4" d="M49.9667 24.22L41.3196 25.4034C41.0425 25.4414 40.7617 25.3677 40.5389 25.1985C40.3162 25.0294 40.1697 24.7787 40.1318 24.5016C40.0939 24.2245 40.1676 23.9437 40.3367 23.7209C40.5059 23.4982 40.7565 23.3517 41.0337 23.3138L49.6807 22.1303C49.9578 22.0924 50.2386 22.1661 50.4614 22.3353C50.6841 22.5044 50.8306 22.7551 50.8685 23.0321V23.0322C50.9064 23.3093 50.8327 23.5901 50.6636 23.8128C50.4945 24.0356 50.2438 24.182 49.9667 24.22Z" fill="#A3A8C1"/>
</g>
<path d="M35.5151 3.88825L16.0918 5.58105L18.424 32.3405L37.8473 30.6477L35.5151 3.88825Z" fill="#A3A8C1"/>
<path opacity="0.8" d="M35.5151 3.88825L16.0918 5.58105L18.424 32.3405L37.8473 30.6477L35.5151 3.88825Z" fill="white"/>
<g opacity="0.4">
<path opacity="0.4" d="M32.2827 9.9103L20.318 10.9531C20.0394 10.9774 19.7625 10.89 19.5483 10.7101C19.3341 10.5303 19.2001 10.2727 19.1759 9.99407C19.1638 9.85611 19.1791 9.71713 19.2208 9.58506C19.2625 9.453 19.3298 9.33044 19.4188 9.22438C19.5079 9.11832 19.617 9.03084 19.7398 8.96694C19.8627 8.90303 19.9969 8.86395 20.1349 8.85193L32.0996 7.80916C32.2375 7.79713 32.3765 7.8124 32.5086 7.85408C32.6406 7.89577 32.7632 7.96306 32.8693 8.05211C32.9753 8.14116 33.0628 8.25023 33.1267 8.37309C33.1906 8.49595 33.2297 8.63019 33.2417 8.76816C33.2538 8.90612 33.2385 9.0451 33.1968 9.17716C33.1551 9.30923 33.0878 9.43178 32.9988 9.53784C32.9097 9.6439 32.8007 9.73138 32.6778 9.79529C32.5549 9.8592 32.4207 9.89827 32.2827 9.9103Z" fill="#A3A8C1"/>
<path opacity="0.4" d="M32.6684 14.3351L20.7037 15.3779C20.5658 15.3899 20.4268 15.3747 20.2947 15.333C20.1626 15.2913 20.0401 15.224 19.934 15.1349C19.828 15.0459 19.7405 14.9368 19.6766 14.8139C19.6127 14.6911 19.5736 14.5568 19.5616 14.4189C19.5496 14.2809 19.5648 14.1419 19.6065 14.0099C19.6482 13.8778 19.7155 13.7553 19.8046 13.6492C19.8936 13.5431 20.0027 13.4557 20.1255 13.3918C20.2484 13.3279 20.3826 13.2888 20.5206 13.2768L32.4853 12.234C32.764 12.2097 33.0408 12.2971 33.255 12.4769C33.4692 12.6568 33.6032 12.9144 33.6274 13.193C33.6395 13.331 33.6242 13.4699 33.5825 13.602C33.5408 13.7341 33.4735 13.8566 33.3845 13.9627C33.2954 14.0687 33.1864 14.1562 33.0635 14.2201C32.9406 14.284 32.8064 14.3231 32.6684 14.3351Z" fill="#A3A8C1"/>
<path opacity="0.4" d="M33.0542 18.7599L21.0895 19.8027C20.9515 19.8147 20.8125 19.7994 20.6805 19.7577C20.5484 19.7161 20.4258 19.6488 20.3198 19.5597C20.2137 19.4707 20.1263 19.3616 20.0624 19.2387C19.9984 19.1159 19.9594 18.9816 19.9473 18.8437C19.9353 18.7057 19.9506 18.5667 19.9923 18.4347C20.034 18.3026 20.1012 18.1801 20.1903 18.074C20.2793 17.9679 20.3884 17.8805 20.5113 17.8166C20.6341 17.7526 20.7684 17.7136 20.9063 17.7015L32.8711 16.6588C33.1497 16.6345 33.4266 16.7219 33.6408 16.9017C33.8549 17.0816 33.9889 17.3391 34.0132 17.6178C34.0375 17.8964 33.9501 18.1733 33.7702 18.3874C33.5904 18.6016 33.3328 18.7356 33.0542 18.7599Z" fill="#A3A8C1"/>
<path opacity="0.4" d="M33.4399 23.1842L21.4752 24.227C21.3373 24.239 21.1983 24.2238 21.0662 24.1821C20.9342 24.1404 20.8116 24.0731 20.7055 23.984C20.5995 23.895 20.512 23.7859 20.4481 23.6631C20.3842 23.5402 20.3451 23.406 20.3331 23.268C20.3088 22.9894 20.3962 22.7125 20.576 22.4983C20.7559 22.2841 21.0135 22.1501 21.2921 22.1259L33.2568 21.0831C33.5354 21.0588 33.8123 21.1462 34.0265 21.326C34.2407 21.5059 34.3747 21.7635 34.399 22.0421C34.411 22.1801 34.3957 22.319 34.354 22.4511C34.3123 22.5832 34.245 22.7057 34.156 22.8118C34.0669 22.9178 33.9579 23.0053 33.835 23.0692C33.7121 23.1331 33.5779 23.1722 33.4399 23.1842Z" fill="#A3A8C1"/>
<path opacity="0.4" d="M30.5557 27.8942L21.861 28.652C21.5823 28.6763 21.3055 28.5889 21.0913 28.409C20.8771 28.2292 20.7431 27.9716 20.7188 27.693C20.7068 27.555 20.7221 27.416 20.7638 27.284C20.8054 27.1519 20.8727 27.0293 20.9618 26.9233C21.0508 26.8172 21.1599 26.7297 21.2828 26.6658C21.4056 26.6019 21.5399 26.5629 21.6779 26.5508L30.3726 25.793C30.6512 25.7688 30.9281 25.8562 31.1423 26.036C31.3565 26.2159 31.4904 26.4734 31.5147 26.752C31.5267 26.89 31.5115 27.029 31.4698 27.1611C31.4281 27.2931 31.3608 27.4157 31.2718 27.5217C31.1827 27.6278 31.0736 27.7153 30.9508 27.7792C30.8279 27.8431 30.6937 27.8822 30.5557 27.8942Z" fill="#A3A8C1"/>
</g>
<path d="M59.1871 2.58282L39.7129 3.52295L41.0081 30.3526L60.4824 29.4124L59.1871 2.58282Z" fill="#A3A8C1"/>
<path opacity="0.8" d="M59.1871 2.58282L39.7129 3.52295L41.0081 30.3526L60.4824 29.4124L59.1871 2.58282Z" fill="white"/>
<g opacity="0.4">
<path opacity="0.4" d="M55.7235 8.47508L43.7275 9.05418C43.5891 9.06086 43.4509 9.04024 43.3205 8.99347C43.1902 8.94671 43.0703 8.87473 42.9678 8.78164C42.8652 8.68855 42.782 8.57618 42.7229 8.45094C42.6638 8.32571 42.63 8.19005 42.6233 8.05172C42.6166 7.9134 42.6372 7.77511 42.684 7.64476C42.7308 7.51441 42.8028 7.39455 42.8958 7.29202C42.9889 7.18949 43.1013 7.10629 43.2265 7.04719C43.3518 6.98809 43.4874 6.95423 43.6258 6.94756L55.6219 6.36841C55.9012 6.35493 56.1745 6.45298 56.3816 6.64098C56.5886 6.82899 56.7126 7.09155 56.726 7.37091C56.7395 7.65027 56.6415 7.92354 56.4535 8.13061C56.2655 8.33768 56.0029 8.46159 55.7235 8.47508Z" fill="#A3A8C1"/>
<path opacity="0.4" d="M55.9375 12.9111L43.9413 13.4903C43.662 13.5037 43.3887 13.4057 43.1816 13.2177C42.9746 13.0297 42.8507 12.7671 42.8372 12.4878C42.8305 12.3494 42.8511 12.2112 42.8979 12.0808C42.9447 11.9504 43.0166 11.8306 43.1097 11.7281C43.2028 11.6255 43.3152 11.5423 43.4404 11.4832C43.5657 11.4241 43.7013 11.3903 43.8397 11.3836L55.8357 10.8044C55.9741 10.7978 56.1123 10.8184 56.2427 10.8652C56.3731 10.9119 56.4929 10.9839 56.5955 11.077C56.698 11.1701 56.7812 11.2825 56.8403 11.4077C56.8994 11.533 56.9332 11.6686 56.9399 11.8069C56.9466 11.9453 56.926 12.0836 56.8792 12.2139C56.8324 12.3443 56.7605 12.4641 56.6674 12.5667C56.5743 12.6692 56.4619 12.7524 56.3367 12.8115C56.2114 12.8706 56.0758 12.9044 55.9375 12.9111Z" fill="#A3A8C1"/>
<path opacity="0.4" d="M47.4616 17.7671L44.1562 17.9266C44.0179 17.9333 43.8796 17.9127 43.7492 17.8659C43.6189 17.8192 43.499 17.7472 43.3965 17.6541C43.2939 17.561 43.2107 17.4486 43.1516 17.3234C43.0925 17.1981 43.0587 17.0625 43.052 16.9242C43.0385 16.6448 43.1366 16.3715 43.3246 16.1645C43.5126 15.9574 43.7751 15.8335 44.0545 15.82L47.3599 15.6604C47.4982 15.6537 47.6365 15.6744 47.7669 15.7211C47.8972 15.7679 48.0171 15.8399 48.1196 15.933C48.2221 16.0261 48.3053 16.1384 48.3644 16.2637C48.4235 16.3889 48.4574 16.5246 48.4641 16.6629C48.4708 16.8012 48.4501 16.9395 48.4034 17.0699C48.3566 17.2002 48.2846 17.3201 48.1915 17.4226C48.0984 17.5251 47.9861 17.6083 47.8608 17.6674C47.7356 17.7265 47.5999 17.7604 47.4616 17.7671Z" fill="#A3A8C1"/>
<path opacity="0.4" d="M53.8708 17.458L50.5654 17.6176C50.286 17.631 50.0128 17.533 49.8057 17.345C49.5986 17.157 49.4747 16.8944 49.4612 16.6151C49.4477 16.3357 49.5458 16.0624 49.7338 15.8554C49.9218 15.6483 50.1843 15.5244 50.4637 15.5109L53.7691 15.3513C53.9074 15.3446 54.0457 15.3653 54.1761 15.412C54.3064 15.4588 54.4263 15.5308 54.5288 15.6239C54.6314 15.717 54.7145 15.8294 54.7736 15.9546C54.8328 16.0798 54.8666 16.2155 54.8733 16.3538C54.8868 16.6332 54.7887 16.9064 54.6007 17.1135C54.4127 17.3206 54.1502 17.4445 53.8708 17.458Z" fill="#A3A8C1"/>
<path opacity="0.4" d="M56.3662 21.7842L44.37 22.3633C44.0907 22.3768 43.8174 22.2787 43.6103 22.0907C43.4033 21.9027 43.2794 21.6402 43.2659 21.3608C43.2592 21.2225 43.2798 21.0842 43.3266 20.9538C43.3734 20.8235 43.4453 20.7036 43.5384 20.6011C43.6315 20.4985 43.7439 20.4154 43.8691 20.3562C43.9944 20.2971 44.13 20.2633 44.2684 20.2566L56.2644 19.6775C56.4028 19.6708 56.5411 19.6914 56.6714 19.7382C56.8018 19.785 56.9216 19.857 57.0242 19.95C57.1267 20.0431 57.2099 20.1555 57.269 20.2807C57.3281 20.406 57.3619 20.5416 57.3686 20.68C57.3753 20.8183 57.3547 20.9566 57.3079 21.0869C57.2611 21.2173 57.1892 21.3371 57.0961 21.4397C57.003 21.5422 56.8906 21.6254 56.7654 21.6845C56.6401 21.7436 56.5045 21.7775 56.3662 21.7842Z" fill="#A3A8C1"/>
<path opacity="0.4" d="M53.3015 26.3784L44.584 26.7992C44.4456 26.8059 44.3073 26.7853 44.177 26.7385C44.0466 26.6918 43.9268 26.6198 43.8242 26.5267C43.7217 26.4336 43.6385 26.3212 43.5794 26.196C43.5203 26.0708 43.4864 25.9351 43.4797 25.7968C43.4663 25.5174 43.5643 25.2441 43.7523 25.0371C43.9403 24.83 44.2029 24.7061 44.4822 24.6926L53.1998 24.2717C53.4791 24.2583 53.7524 24.3563 53.9595 24.5443C54.1666 24.7323 54.2905 24.9949 54.304 25.2742C54.3106 25.4125 54.29 25.5508 54.2432 25.6812C54.1965 25.8115 54.1245 25.9314 54.0314 26.0339C53.9383 26.1365 53.8259 26.2197 53.7007 26.2788C53.5755 26.3379 53.4398 26.3717 53.3015 26.3784Z" fill="#A3A8C1"/>
</g>
<path d="M30.2089 23.743L29.8989 22.5783C29.6779 21.7746 29.1699 21.0798 28.471 20.6254C27.7722 20.1711 26.9311 19.9886 26.1068 20.1126L9.19311 22.0908C8.16843 22.2154 7.22431 22.7093 6.5375 23.4798C5.85069 24.2504 5.4683 25.2449 5.46191 26.2771L6.42158 66.5682C6.42753 66.9001 6.50445 67.227 6.64718 67.5267C6.78991 67.8265 6.99515 68.0923 7.2491 68.3062C7.50304 68.5201 7.79983 68.6771 8.11951 68.7668C8.43919 68.8565 8.77436 68.8767 9.10251 68.8262L69.6177 61.7484C70.3204 61.6629 70.9678 61.3243 71.4388 60.7958C71.9098 60.2674 72.172 59.5854 72.1764 58.8776L71.3468 24.0475C71.3409 23.7155 71.2639 23.3886 71.1212 23.0889C70.9785 22.7891 70.7732 22.5233 70.5193 22.3094C70.2653 22.0956 69.9686 21.9385 69.6489 21.8488C69.3292 21.7591 68.994 21.7389 68.6659 21.7895L33.5255 25.8994C32.8046 26.0079 32.0689 25.8483 31.4578 25.4509C30.8466 25.0535 30.4023 24.4459 30.2089 23.743Z" fill="#A3A8C1"/>
<path d="M30.2089 23.743L29.8989 22.5783C29.6779 21.7746 29.1699 21.0798 28.471 20.6254C27.7722 20.1711 26.9311 19.9886 26.1068 20.1126L9.19311 22.0908C8.16843 22.2154 7.22431 22.7093 6.5375 23.4798C5.85069 24.2504 5.4683 25.2449 5.46191 26.2771L6.42158 66.5682C6.42753 66.9001 6.50445 67.227 6.64718 67.5267C6.78991 67.8265 6.99515 68.0923 7.2491 68.3062C7.50304 68.5201 7.79983 68.6771 8.11951 68.7668C8.43919 68.8565 8.77436 68.8767 9.10251 68.8262L69.6177 61.7484C70.3204 61.6629 70.9678 61.3243 71.4388 60.7958C71.9098 60.2674 72.172 59.5854 72.1764 58.8776L71.3468 24.0475C71.3409 23.7155 71.2639 23.3886 71.1212 23.0889C70.9785 22.7891 70.7732 22.5233 70.5193 22.3094C70.2653 22.0956 69.9686 21.9385 69.6489 21.8488C69.3292 21.7591 68.994 21.7389 68.6659 21.7895L33.5255 25.8994C32.8046 26.0079 32.0689 25.8483 31.4578 25.4509C30.8466 25.0535 30.4023 24.4459 30.2089 23.743Z" fill="#3A405F"/>
</svg>
