<svg width="70" height="70" viewBox="0 0 70 70" fill="none" xmlns="http://www.w3.org/2000/svg">
<path d="M48.4248 43.8994C48.3667 43.6325 48.2052 43.3996 47.9756 43.2516C47.7461 43.1036 47.4672 43.0526 47.2001 43.1098L45.3195 43.5155C45.1858 43.5425 45.0587 43.5958 44.9457 43.6723C44.8328 43.7489 44.7361 43.8471 44.6614 43.9612C44.5867 44.0754 44.5354 44.2033 44.5105 44.3375C44.4856 44.4716 44.4876 44.6094 44.5163 44.7428C44.5451 44.8762 44.6001 45.0025 44.6781 45.1145C44.7561 45.2264 44.8555 45.3218 44.9707 45.395C45.0858 45.4682 45.2144 45.5178 45.3489 45.541C45.4833 45.5641 45.6211 45.5603 45.7541 45.5298L47.6353 45.1241C47.9024 45.0664 48.1356 44.9049 48.2837 44.6753C48.4318 44.4456 48.4825 44.1665 48.4248 43.8994Z" fill="#f44a0e"/>
<path d="M41.7335 44.289L36.5197 45.4136C36.386 45.4406 36.2589 45.4939 36.1459 45.5704C36.033 45.6469 35.9363 45.7451 35.8616 45.8593C35.7869 45.9735 35.7356 46.1014 35.7107 46.2355C35.6858 46.3697 35.6878 46.5075 35.7165 46.6408C35.7453 46.7742 35.8003 46.9006 35.8783 47.0125C35.9563 47.1245 36.0557 47.2198 36.1709 47.2931C36.286 47.3663 36.4146 47.4159 36.549 47.439C36.6835 47.4622 36.8213 47.4584 36.9543 47.4278L42.1681 46.3032C42.4321 46.2426 42.6617 46.0805 42.8071 45.8518C42.9524 45.6232 43.0019 45.3465 42.9448 45.0817C42.8876 44.8168 42.7285 44.5851 42.5018 44.4368C42.2751 44.2884 41.9991 44.2353 41.7335 44.289Z" fill="#f44a0e"/>
<path d="M25.4287 51.3485C24.1734 51.6189 23.0265 52.2555 22.133 53.1777C21.2395 54.1 20.6396 55.2665 20.4091 56.5298C20.1787 57.793 20.328 59.0962 20.8382 60.2746C21.3484 61.4529 22.1966 62.4535 23.2756 63.1498C24.3545 63.8461 25.6157 64.2068 26.8996 64.1862C28.1835 64.1657 29.4325 63.7649 30.4886 63.0345C31.5447 62.3041 32.3605 61.2769 32.8328 60.0828C33.3051 58.8887 33.4127 57.5814 33.1419 56.3262C32.7774 54.6442 31.7606 53.1756 30.3146 52.2424C28.8686 51.3092 27.1114 50.9878 25.4287 51.3485ZM27.7315 62.0251C26.8748 62.21 25.9825 62.1367 25.1674 61.8145C24.3524 61.4923 23.6512 60.9356 23.1525 60.2148C22.6539 59.4941 22.3801 58.6417 22.3659 57.7653C22.3517 56.889 22.5977 56.0282 23.0728 55.2917C23.5479 54.5551 24.2307 53.976 25.0348 53.6276C25.839 53.2791 26.7285 53.177 27.5907 53.334C28.453 53.4911 29.2493 53.9003 29.879 54.5099C30.5086 55.1196 30.9434 55.9022 31.1282 56.7589C31.3745 57.9076 31.1552 59.107 30.5184 60.0942C29.8817 61.0814 28.8794 61.7758 27.7315 62.0251Z" fill="#3A405F"/>
<path d="M69.9744 48.3826L69.0953 44.3058C69.0668 44.1735 69.0125 44.0481 68.9355 43.9368C68.8586 43.8254 68.7604 43.7304 68.6467 43.657C68.5329 43.5836 68.4059 43.5334 68.2727 43.5091C68.1395 43.4849 68.0029 43.4871 67.8706 43.5156L63.9887 44.3529L57.0462 12.1545C56.9883 11.8876 56.8269 11.6546 56.5974 11.5066C56.3679 11.3585 56.0891 11.3076 55.8221 11.365L35.1765 15.8163L23.6231 18.3081L19.8501 0.813129C19.8003 0.582901 19.6732 0.376659 19.4899 0.228719C19.3067 0.0807787 19.0782 6.22726e-05 18.8427 1.68435e-07H1.03039C0.89506 -7.72323e-05 0.761036 0.0265219 0.635988 0.0782767C0.51094 0.130031 0.39732 0.205927 0.301623 0.301623C0.205927 0.39732 0.130031 0.51094 0.0782767 0.635988C0.0265219 0.761036 -7.72323e-05 0.89506 1.68435e-07 1.03039V5.20084C1.68435e-07 5.47412 0.108559 5.73621 0.301796 5.92944C0.495032 6.12268 0.757117 6.23124 1.03039 6.23124H14.644L23.2068 45.9373C20.9635 46.6207 18.9623 47.9313 17.4392 49.7145C15.9161 51.4977 14.9346 53.6792 14.6105 56.0019C14.2863 58.3245 14.633 60.6914 15.6096 62.8235C16.5863 64.9556 18.1522 66.764 20.1227 68.0355C22.0932 69.307 24.3862 69.9885 26.7313 69.9999C29.0764 70.0112 31.3759 69.3517 33.3586 68.0993C35.3413 66.8469 36.9245 65.0536 37.9217 62.9311C38.9188 60.8085 39.2883 58.4451 38.9866 56.1194L69.1842 49.6067C69.4513 49.5491 69.6846 49.3878 69.8328 49.1583C69.981 48.9287 70.0319 48.6497 69.9744 48.3826ZM29.5341 45.716L25.8735 28.7504L36.42 26.4758L37.968 33.6456C38.0103 33.843 38.1097 34.0235 38.2539 34.1647C38.3981 34.3059 38.5806 34.4017 38.7788 34.4399C38.8433 34.4525 38.909 34.4589 38.9748 34.4588C39.1433 34.4587 39.3093 34.4174 39.4581 34.3383C39.607 34.2593 39.7342 34.145 39.8286 34.0054L42.5995 29.9074L46.4814 32.5357C46.6516 32.6509 46.8524 32.7125 47.058 32.7127C47.2635 32.7129 47.4644 32.6516 47.6348 32.5367C47.8052 32.4218 47.9374 32.2585 48.0143 32.0679C48.0912 31.8773 48.1094 31.6681 48.0664 31.4671L46.5203 24.2973L57.0668 22.0228L61.9768 44.7874L36.5837 50.2632C34.8355 47.9723 32.342 46.3639 29.5341 45.716ZM42.6884 16.3044L44.2887 23.7232L45.5105 29.3874L42.9009 27.6211C42.6745 27.4679 42.3965 27.411 42.1281 27.4628C41.8596 27.5145 41.6228 27.6708 41.4696 27.8972L39.4747 30.85L36.6185 17.6133L42.6884 16.3044ZM56.6323 20.0085L46.0857 22.2818L44.7026 15.8698L55.2492 13.5953L56.6323 20.0085ZM34.6042 18.0478L35.9873 24.4604L25.4407 26.7361L24.0577 20.3223L34.6042 18.0478ZM15.4753 4.17045H2.06079V2.06079H18.0107L21.8255 19.75L27.3602 45.4169C26.6455 45.3822 25.9291 45.4104 25.2193 45.501L16.4828 4.98358C16.4331 4.7533 16.306 4.54699 16.1227 4.39904C15.9394 4.25108 15.7109 4.1704 15.4753 4.17045ZM28.9588 67.7069C26.978 68.1353 24.9146 67.9666 23.0296 67.222C21.1447 66.4775 19.5229 65.1907 18.3695 63.5243C17.216 61.858 16.5827 59.8869 16.5496 57.8606C16.5165 55.8342 17.0852 53.8436 18.1836 52.1404C19.2821 50.4373 20.861 49.0982 22.7206 48.2926C24.5802 47.4869 26.637 47.2509 28.6308 47.6144C30.6245 47.9779 32.4657 48.9245 33.9214 50.3346C35.3771 51.7446 36.3819 53.5547 36.8086 55.5359C37.3777 58.1909 36.8705 60.9633 35.3984 63.2449C33.9263 65.5265 31.6094 67.1312 28.9559 67.7069H28.9588ZM38.5562 54.1057C38.3462 53.4218 38.0764 52.7576 37.7501 52.1209L67.3013 45.7478L67.7464 47.8085L38.5562 54.1057Z" fill="#3A405F"/>
</svg>
