<svg width="80" height="58" viewBox="0 0 80 58" fill="none" xmlns="http://www.w3.org/2000/svg">
<path d="M77.7727 55.3636V29C77.7727 28.272 77.1825 27.6818 76.4546 27.6818H59.3182V1.31818C59.3182 0.590216 58.728 0 58 0H21.0909C20.3629 0 19.7727 0.590216 19.7727 1.31818V27.6818H2.63636C1.9084 27.6818 1.31818 28.272 1.31818 29V55.3636H0V58H79.0909V55.3636H77.7727ZM63.2727 30.3182V35.5909H52.7273V30.3182H63.2727ZM34.2727 2.63636H44.8182V7.90909H34.2727V2.63636ZM22.4091 2.63636H31.6364V9.22727C31.6364 9.95524 32.2266 10.5455 32.9545 10.5455H46.1364C46.8643 10.5455 47.4545 9.95524 47.4545 9.22727V2.63636H56.6818V27.6818H22.4091V2.63636ZM15.8182 30.3182H21.0909H26.3636V35.5909H15.8182V30.3182ZM38.2273 55.3636H3.95455V30.3182H13.1818V36.9091C13.1818 37.6371 13.772 38.2273 14.5 38.2273H27.6818C28.4098 38.2273 29 37.6371 29 36.9091V30.3182H38.2273V55.3636ZM75.1364 55.3636H40.8636V30.3182H50.0909V36.9091C50.0909 37.6371 50.6811 38.2273 51.4091 38.2273H64.5909C65.3189 38.2273 65.9091 37.6371 65.9091 36.9091V30.3182H75.1364V55.3636Z" fill="#3A405F"/>
<path d="M9.22718 50.0908H6.59082V52.7272H9.22718V50.0908Z" fill="#3A405F"/>
<path d="M14.4996 50.0908H11.8633V52.7272H14.4996V50.0908Z" fill="#3A405F"/>
<path d="M19.7731 50.0908H17.1367V52.7272H19.7731V50.0908Z" fill="#3A405F"/>
<path d="M46.1364 50.0908H43.5V52.7272H46.1364V50.0908Z" fill="#3A405F"/>
<path d="M51.4088 50.0908H48.7725V52.7272H51.4088V50.0908Z" fill="#3A405F"/>
<path d="M56.6823 50.0908H54.0459V52.7272H56.6823V50.0908Z" fill="#3A405F"/>
<path d="M27.6823 22.4092H25.0459V25.0455H27.6823V22.4092Z" fill="#EB5E28"/>
<path d="M32.9547 22.4092H30.3184V25.0455H32.9547V22.4092Z" fill="#EB5E28"/>
<path d="M38.2272 22.4092H35.5908V25.0455H38.2272V22.4092Z" fill="#EB5E28"/>
</svg>
