<svg width="15" height="15" viewBox="0 0 15 15" fill="none" xmlns="http://www.w3.org/2000/svg">
<path d="M13.8898 5.72844C13.6706 5.66387 13.5044 5.50221 13.4338 5.28488C13.3632 5.06759 13.4026 4.8391 13.542 4.65802C13.9708 4.10088 13.9809 3.37329 13.5676 2.80452C13.1543 2.23569 12.4593 2.02048 11.7969 2.25611C11.5816 2.33272 11.3521 2.29962 11.1673 2.16529C10.9824 2.03103 10.88 1.82299 10.8863 1.59456C10.9058 0.891757 10.4863 0.297207 9.81762 0.0799412C9.14895 -0.137207 8.46012 0.0971091 8.06276 0.677099C7.93362 0.865566 7.72852 0.973701 7.5 0.973701C7.27148 0.973701 7.06638 0.865595 6.93724 0.677099C6.53988 0.0970505 5.85103 -0.137354 5.18238 0.0799412C4.51371 0.297207 4.09418 0.891757 4.11366 1.59456C4.11999 1.82296 4.01757 2.031 3.83273 2.16529C3.64787 2.29959 3.41836 2.33272 3.20312 2.25614C2.54065 2.02042 1.84564 2.23569 1.43238 2.80452C1.01909 3.37332 1.02917 4.10088 1.45802 4.65805C1.59741 4.83907 1.63685 5.06759 1.56621 5.28488C1.49561 5.50218 1.3294 5.6639 1.11021 5.72844C0.435791 5.92713 0 6.50978 0 7.21288C0 7.91598 0.435791 8.49863 1.11021 8.69732C1.3294 8.76189 1.49558 8.92355 1.56621 9.14088C1.63682 9.35817 1.59738 9.58666 1.45802 9.76774C1.0292 10.3249 1.01912 11.0525 1.43238 11.6212C1.84564 12.1901 2.54071 12.4053 3.20312 12.1696C3.41836 12.093 3.6479 12.1261 3.83273 12.2605C4.01757 12.3947 4.11999 12.6028 4.11366 12.8312C4.09421 13.534 4.51374 14.1286 5.18238 14.3458C5.34806 14.3996 5.5149 14.4257 5.67829 14.4257C6.1744 14.4257 6.63832 14.1849 6.93727 13.7486C7.06641 13.5602 7.27151 13.452 7.50003 13.452C7.72855 13.452 7.93365 13.5601 8.06279 13.7486C8.46012 14.3286 9.14898 14.563 9.81765 14.3458C10.4863 14.1285 10.9059 13.534 10.8864 12.8312C10.88 12.6028 10.9825 12.3947 11.1673 12.2604C11.3521 12.1261 11.5816 12.0929 11.7969 12.1696C12.4593 12.4053 13.1544 12.19 13.5676 11.6212C13.9809 11.0524 13.9709 10.3249 13.542 9.76768C13.4026 9.58666 13.3632 9.35814 13.4338 9.14085C13.5045 8.92355 13.6706 8.76183 13.8898 8.69729C14.5642 8.49863 15 7.91598 15 7.21288C15 6.50978 14.5642 5.92713 13.8898 5.72844ZM10.7131 5.47525L7.25159 9.51371C7.16634 9.61317 7.04514 9.66479 6.92285 9.66479C6.83224 9.66479 6.74109 9.63649 6.66346 9.57825L4.35577 7.84748C4.16461 7.70407 4.12585 7.43287 4.26923 7.24171C4.41264 7.05058 4.68384 7.01185 4.875 7.15517L6.85837 8.64268L10.0561 4.91205C10.2116 4.73061 10.4847 4.70958 10.6662 4.86512C10.8477 5.02065 10.8686 5.29379 10.7131 5.47525Z" fill="#3A405F"/>
</svg>
