<svg width="15" height="15" viewBox="0 0 15 15" fill="none" xmlns="http://www.w3.org/2000/svg">
<circle cx="7.5" cy="7.5" r="7.5" fill="#219653"/>
<path d="M6.47087 9.83042L4.6792 7.69823C4.59258 7.59514 4.47488 7.53951 4.35302 7.53951C4.23116 7.53951 4.11346 7.59514 4.02684 7.69823C3.85771 7.8995 3.85774 8.21975 4.02682 8.42109L4.02684 8.42112L6.14423 10.9409C6.14426 10.941 6.14428 10.941 6.14431 10.941C6.23079 11.0446 6.34865 11.1 6.47035 11.1C6.59218 11.1 6.70971 11.0445 6.79655 10.942L6.79679 10.9417L11.9732 4.78151C12.1423 4.58025 12.1423 4.25998 11.9732 4.05872C11.8865 3.95563 11.7688 3.9 11.647 3.9C11.5251 3.9 11.4074 3.95563 11.3207 4.05869L11.3207 4.05872L6.47087 9.83042Z" fill="white" stroke="white" stroke-width="0.2"/>
</svg>
