<svg width="15" height="15" viewBox="0 0 15 15" fill="none" xmlns="http://www.w3.org/2000/svg">
<circle cx="7.5" cy="7.5" r="7.5" fill="#EB5757"/>
<path d="M7.66032 7.49929L10.967 4.19266C11.011 4.14858 11.011 4.07713 10.967 4.03305C10.9229 3.98898 10.8514 3.98898 10.8073 4.03305L7.50071 7.33968L4.19407 4.03305C4.14923 3.98975 4.07778 3.99099 4.03446 4.03583C3.99221 4.07957 3.99221 4.14892 4.03446 4.19266L7.34109 7.49929L4.03446 10.8059C3.98962 10.8492 3.98838 10.9207 4.03169 10.9655C4.07501 11.0104 4.14647 11.0116 4.19131 10.9683C4.19225 10.9674 4.19317 10.9665 4.19407 10.9655L7.50071 7.65891L10.8073 10.9655C10.8522 11.0089 10.9236 11.0076 10.967 10.9628C11.0092 10.919 11.0092 10.8497 10.967 10.8059L7.66032 7.49929Z" fill="#F2F2F2" stroke="white" stroke-width="0.7"/>
</svg>
