<svg width="15" height="15" viewBox="0 0 15 15" fill="none" xmlns="http://www.w3.org/2000/svg">
<circle cx="7.5" cy="7.5" r="7.5" fill="#F2C94C"/>
<path d="M6.04687 2H8.95312L8.46875 9.10028H6.53125L6.04687 2ZM7.5 13C7.07292 13 6.71354 12.8653 6.42188 12.596C6.14062 12.3164 6 11.9798 6 11.5862C6 11.1926 6.14062 10.8663 6.42188 10.6073C6.70312 10.338 7.0625 10.2034 7.5 10.2034C7.9375 10.2034 8.29688 10.338 8.57812 10.6073C8.85938 10.8663 9 11.1926 9 11.5862C9 11.9798 8.85417 12.3164 8.5625 12.596C8.28125 12.8653 7.92708 13 7.5 13Z" fill="white"/>
</svg>
