<svg width="72" height="89" viewBox="0 0 72 89" fill="none" xmlns="http://www.w3.org/2000/svg">
<path d="M13.5563 83.1901C13.5563 83.8263 13.041 84.3415 12.4049 84.3415C11.7687 84.3415 11.2535 83.8263 11.2535 83.1901V66.5348C11.2535 65.8992 11.7688 65.3834 12.4049 65.3834C13.041 65.3834 13.5563 65.8992 13.5563 66.5348V83.1901Z" fill="#3A405F" stroke="white" stroke-width="0.3"/>
<path d="M19.108 83.1901C19.108 83.8263 18.5928 84.3415 17.9566 84.3415C17.3205 84.3415 16.8053 83.8263 16.8053 83.1901V66.5348C16.8053 65.8992 17.3205 65.3834 17.9566 65.3834C18.5927 65.3834 19.108 65.8992 19.108 66.5348V83.1901Z" fill="#3A405F" stroke="white" stroke-width="0.3"/>
<path d="M24.6598 83.1901C24.6598 83.8263 24.1446 84.3415 23.5084 84.3415C22.8722 84.3415 22.357 83.8263 22.357 83.1901V66.5348C22.357 65.8992 22.8723 65.3834 23.5084 65.3834C24.1445 65.3834 24.6598 65.8992 24.6598 66.5348V83.1901Z" fill="#3A405F" stroke="white" stroke-width="0.3"/>
<path d="M30.2115 83.1901C30.2115 83.8263 29.6963 84.3415 29.0602 84.3415C28.424 84.3415 27.9088 83.8263 27.9088 83.1901V66.5348C27.9088 65.8992 28.4241 65.3834 29.0602 65.3834C29.6963 65.3834 30.2115 65.8992 30.2115 66.5348V83.1901Z" fill="#3A405F" stroke="white" stroke-width="0.3"/>
<path d="M35.7633 83.1901C35.7633 83.8263 35.2481 84.3415 34.6119 84.3415C33.9758 84.3415 33.4605 83.8263 33.4605 83.1901V66.5348C33.4605 65.8992 33.9758 65.3834 34.6119 65.3834C35.248 65.3834 35.7633 65.8992 35.7633 66.5348V83.1901Z" fill="#3A405F" stroke="white" stroke-width="0.3"/>
<path d="M41.315 83.1901C41.315 83.8263 40.7998 84.3415 40.1637 84.3415C39.5275 84.3415 39.0123 83.8263 39.0123 83.1901V66.5348C39.0123 65.8992 39.5276 65.3834 40.1637 65.3834C40.7998 65.3834 41.315 65.8992 41.315 66.5348V83.1901Z" fill="#3A405F" stroke="white" stroke-width="0.3"/>
<path d="M46.8668 83.1901C46.8668 83.8263 46.3516 84.3415 45.7154 84.3415C45.0793 84.3415 44.5641 83.8263 44.5641 83.1901V66.5348C44.5641 65.8992 45.0793 65.3834 45.7154 65.3834C46.3515 65.3834 46.8668 65.8992 46.8668 66.5348V83.1901Z" fill="#3A405F" stroke="white" stroke-width="0.3"/>
<path d="M52.4186 83.1901C52.4186 83.8263 51.9033 84.3415 51.2672 84.3415C50.631 84.3415 50.1158 83.8263 50.1158 83.1901V66.5348C50.1158 65.8992 50.6311 65.3834 51.2672 65.3834C51.9033 65.3834 52.4186 65.8992 52.4186 66.5348V83.1901Z" fill="#3A405F" stroke="white" stroke-width="0.3"/>
<path d="M57.0555 67.8361V67.6861H56.9055H56.8189C56.1828 67.6861 55.6676 67.1709 55.6676 66.5348C55.6676 65.8992 56.1828 65.3834 56.8189 65.3834H58.2069C58.843 65.3834 59.3583 65.8992 59.3583 66.5348V69.3107C59.3583 69.9468 58.843 70.462 58.2069 70.462C57.5707 70.462 57.0555 69.9468 57.0555 69.3107V67.8361Z" fill="#3A405F" stroke="white" stroke-width="0.3"/>
<path d="M6.7668 67.6861H6.6168V67.8361V69.3107C6.6168 69.9468 6.10096 70.462 5.46543 70.462C4.82927 70.462 4.31406 69.9468 4.31406 69.3107V66.5348C4.31406 65.8992 4.82932 65.3834 5.46543 65.3834H6.85338C7.48886 65.3834 8.00474 65.8993 8.00474 66.5348C8.00474 67.1709 7.48891 67.6861 6.85338 67.6861H6.7668Z" fill="#3A405F" stroke="white" stroke-width="0.3"/>
<path d="M56.9055 82.0392H57.0555V81.8892V80.4146C57.0555 79.7791 57.5708 79.2633 58.2069 79.2633C58.843 79.2633 59.3583 79.7791 59.3583 80.4146V83.1905C59.3583 83.8267 58.843 84.3419 58.2069 84.3419H56.8189C56.1828 84.3419 55.6676 83.8267 55.6676 83.1905C55.6676 82.555 56.1828 82.0392 56.8189 82.0392H56.9055Z" fill="#3A405F" stroke="white" stroke-width="0.3"/>
<path d="M6.6168 81.8892V82.0392H6.7668H6.85338C7.48886 82.0392 8.00474 82.5551 8.00474 83.1905C8.00474 83.8266 7.48891 84.3419 6.85338 84.3419H5.46543C4.82927 84.3419 4.31406 83.8267 4.31406 83.1905V80.4146C4.31406 79.7791 4.82932 79.2633 5.46543 79.2633C6.10091 79.2633 6.6168 79.7792 6.6168 80.4146V81.8892Z" fill="#3A405F" stroke="white" stroke-width="0.3"/>
<path d="M63.5223 36.0866V36.2366H63.6723H70.6986C71.3347 36.2366 71.85 36.7524 71.85 37.3879V62.371C71.85 63.0071 71.3348 63.5223 70.6986 63.5223H63.6723H63.5223V63.6723V87.354C63.5223 87.9901 63.0071 88.5053 62.371 88.5053H1.30137C0.665212 88.5053 0.15 87.9901 0.15 87.354V62.371C0.15 61.7354 0.665262 61.2196 1.30137 61.2196H8.32767H8.47767V61.0696V38.6893V38.5393H8.32767H1.30137C0.665262 38.5393 0.15 38.0235 0.15 37.3879V12.4049C0.15 11.7688 0.665212 11.2536 1.30137 11.2536H8.08958H8.10699L8.12394 11.2496L28.4663 6.46346L28.6756 6.41422L28.5571 6.23479C28.1479 5.61516 27.9089 4.87401 27.9089 4.07726C27.9089 1.91179 29.6707 0.15 31.8362 0.15C34.0016 0.15 35.7634 1.91179 35.7634 4.07726C35.7634 4.87401 35.5244 5.61516 35.1152 6.23479L34.9968 6.41422L35.2061 6.46346L55.5477 11.2496L55.5647 11.2536H55.5821H62.371C63.0071 11.2536 63.5223 11.7688 63.5223 12.4049V16.2502C63.5223 16.8863 63.0071 17.4016 62.371 17.4016C61.7348 17.4016 61.2196 16.8863 61.2196 16.2502V13.7063V13.5563H61.0696H2.60274H2.45274V13.7063V36.0866V36.2366H2.60274H61.0696H61.2196V36.0866V22.4384C61.2196 21.803 61.7348 21.2878 62.371 21.2878C63.0072 21.2878 63.5223 21.803 63.5223 22.4384V36.0866ZM31.8705 8.04368L31.8362 8.03559L31.8018 8.04368L19.4178 10.9575L19.4522 11.2536H44.2201L44.2545 10.9575L31.8705 8.04368ZM61.0696 86.2026H61.2196V86.0526V63.6723V63.5223H61.0696H2.60274H2.45274V63.6723V86.0526V86.2026H2.60274H61.0696ZM69.3973 61.2196H69.5473V61.0696V38.6893V38.5393H69.3973H10.9304H10.7804V38.6893V61.0696V61.2196H10.9304H69.3973ZM33.4607 4.07726C33.4607 3.1814 32.732 2.45274 31.8362 2.45274C30.9403 2.45274 30.2116 3.1814 30.2116 4.07726C30.2116 4.97312 30.9403 5.70178 31.8362 5.70178C32.732 5.70178 33.4607 4.97312 33.4607 4.07726Z" fill="#3A405F" stroke="white" stroke-width="0.3"/>
<path d="M19.5816 41.5523C19.5816 40.9168 20.0969 40.401 20.733 40.401C21.3691 40.401 21.8844 40.9168 21.8844 41.5523V58.2077C21.8844 58.8438 21.3692 59.3591 20.733 59.3591C20.0969 59.3591 19.5816 58.8438 19.5816 58.2077V41.5523Z" fill="#3A405F" stroke="white" stroke-width="0.3"/>
<path d="M25.1334 41.5523C25.1334 40.9168 25.6487 40.401 26.2848 40.401C26.9209 40.401 27.4361 40.9168 27.4361 41.5523V58.2077C27.4361 58.8438 26.9209 59.3591 26.2848 59.3591C25.6486 59.3591 25.1334 58.8438 25.1334 58.2077V41.5523Z" fill="#3A405F" stroke="white" stroke-width="0.3"/>
<path d="M30.6852 41.5523C30.6852 40.9168 31.2004 40.401 31.8365 40.401C32.4726 40.401 32.9879 40.9168 32.9879 41.5523V58.2077C32.9879 58.8438 32.4727 59.3591 31.8365 59.3591C31.2004 59.3591 30.6852 58.8438 30.6852 58.2077V41.5523Z" fill="#3A405F" stroke="white" stroke-width="0.3"/>
<path d="M36.2369 41.5523C36.2369 40.9168 36.7522 40.401 37.3883 40.401C38.0244 40.401 38.5396 40.9168 38.5396 41.5523V58.2077C38.5396 58.8438 38.0244 59.3591 37.3883 59.3591C36.7521 59.3591 36.2369 58.8438 36.2369 58.2077V41.5523Z" fill="#3A405F" stroke="white" stroke-width="0.3"/>
<path d="M41.7887 41.5523C41.7887 40.9168 42.3039 40.401 42.94 40.401C43.5761 40.401 44.0914 40.9168 44.0914 41.5523V58.2077C44.0914 58.8438 43.5762 59.3591 42.94 59.3591C42.3039 59.3591 41.7887 58.8438 41.7887 58.2077V41.5523Z" fill="#3A405F" stroke="white" stroke-width="0.3"/>
<path d="M47.3404 41.5523C47.3404 40.9168 47.8557 40.401 48.4918 40.401C49.1279 40.401 49.6432 40.9168 49.6432 41.5523V58.2077C49.6432 58.8438 49.128 59.3591 48.4918 59.3591C47.8556 59.3591 47.3404 58.8438 47.3404 58.2077V41.5523Z" fill="#3A405F" stroke="white" stroke-width="0.3"/>
<path d="M52.8922 41.5523C52.8922 40.9168 53.4074 40.401 54.0436 40.401C54.6797 40.401 55.1949 40.9168 55.1949 41.5523V58.2077C55.1949 58.8438 54.6797 59.3591 54.0436 59.3591C53.4074 59.3591 52.8922 58.8438 52.8922 58.2077V41.5523Z" fill="#3A405F" stroke="white" stroke-width="0.3"/>
<path d="M58.4439 41.5523C58.4439 40.9168 58.9592 40.401 59.5953 40.401C60.2314 40.401 60.7467 40.9168 60.7467 41.5523V58.2077C60.7467 58.8438 60.2315 59.3591 59.5953 59.3591C58.9592 59.3591 58.4439 58.8438 58.4439 58.2077V41.5523Z" fill="#3A405F" stroke="white" stroke-width="0.3"/>
<path d="M65.3836 42.8537V42.7037H65.2336H65.1471C64.511 42.7037 63.9957 42.1879 63.9957 41.5523C63.9957 40.9168 64.511 40.401 65.1471 40.401H66.535C67.1711 40.401 67.6864 40.9168 67.6864 41.5523V44.3282C67.6864 44.9638 67.1711 45.4796 66.535 45.4796C65.8989 45.4796 65.3836 44.9638 65.3836 44.3282V42.8537Z" fill="#EB5E28" stroke="white" stroke-width="0.3"/>
<path d="M15.0939 42.7037H14.9439V42.8537V44.3282C14.9439 44.9638 14.4287 45.4796 13.7926 45.4796C13.1565 45.4796 12.6412 44.9638 12.6412 44.3282V41.5523C12.6412 40.9168 13.1565 40.401 13.7926 40.401H15.1805C15.8166 40.401 16.3319 40.9168 16.3319 41.5523C16.3319 42.1879 15.8166 42.7037 15.1805 42.7037H15.0939Z" fill="#EB5E28" stroke="white" stroke-width="0.3"/>
<path d="M65.2336 57.0558H65.3836V56.9058V55.4313C65.3836 54.7957 65.8989 54.2799 66.535 54.2799C67.1711 54.2799 67.6864 54.7957 67.6864 55.4313V58.2071C67.6864 58.8433 67.1712 59.3585 66.535 59.3585H65.1471C64.5109 59.3585 63.9957 58.8433 63.9957 58.2071C63.9957 57.5716 64.511 57.0558 65.1471 57.0558H65.2336Z" fill="#EB5E28" stroke="white" stroke-width="0.3"/>
<path d="M14.9439 56.9058V57.0558H15.0939H15.1805C15.8166 57.0558 16.3319 57.5716 16.3319 58.2071C16.3319 58.8433 15.8167 59.3585 15.1805 59.3585H13.7926C13.1564 59.3585 12.6412 58.8433 12.6412 58.2071V55.4313C12.6412 54.7957 13.1565 54.2799 13.7926 54.2799C14.4287 54.2799 14.9439 54.7957 14.9439 55.4313V56.9058Z" fill="#EB5E28" stroke="white" stroke-width="0.3"/>
<path d="M11.2535 33.2243V16.5689C11.2535 15.9328 11.7687 15.4176 12.4049 15.4176C13.041 15.4176 13.5563 15.9328 13.5563 16.5689V33.2243C13.5563 33.8598 13.041 34.3757 12.4049 34.3757C11.7688 34.3757 11.2535 33.8598 11.2535 33.2243Z" fill="#3A405F" stroke="white" stroke-width="0.3"/>
<path d="M16.8053 33.2243V16.5689C16.8053 15.9328 17.3205 15.4176 17.9566 15.4176C18.5928 15.4176 19.108 15.9328 19.108 16.5689V33.2243C19.108 33.8598 18.5927 34.3757 17.9566 34.3757C17.3205 34.3757 16.8053 33.8598 16.8053 33.2243Z" fill="#3A405F" stroke="white" stroke-width="0.3"/>
<path d="M22.357 33.2243V16.5689C22.357 15.9328 22.8722 15.4176 23.5084 15.4176C24.1446 15.4176 24.6598 15.9328 24.6598 16.5689V33.2243C24.6598 33.8598 24.1445 34.3757 23.5084 34.3757C22.8723 34.3757 22.357 33.8598 22.357 33.2243Z" fill="#3A405F" stroke="white" stroke-width="0.3"/>
<path d="M27.9088 33.2243V16.5689C27.9088 15.9328 28.424 15.4176 29.0602 15.4176C29.6963 15.4176 30.2115 15.9328 30.2115 16.5689V33.2243C30.2115 33.8598 29.6963 34.3757 29.0602 34.3757C28.4241 34.3757 27.9088 33.8598 27.9088 33.2243Z" fill="#3A405F" stroke="white" stroke-width="0.3"/>
<path d="M33.4605 33.2243V16.5689C33.4605 15.9328 33.9758 15.4176 34.6119 15.4176C35.2481 15.4176 35.7633 15.9328 35.7633 16.5689V33.2243C35.7633 33.8598 35.248 34.3757 34.6119 34.3757C33.9758 34.3757 33.4605 33.8598 33.4605 33.2243Z" fill="#3A405F" stroke="white" stroke-width="0.3"/>
<path d="M39.0123 33.2243V16.5689C39.0123 15.9328 39.5275 15.4176 40.1637 15.4176C40.7998 15.4176 41.315 15.9328 41.315 16.5689V33.2243C41.315 33.8598 40.7998 34.3757 40.1637 34.3757C39.5276 34.3757 39.0123 33.8598 39.0123 33.2243Z" fill="#3A405F" stroke="white" stroke-width="0.3"/>
<path d="M44.5641 33.2243V16.5689C44.5641 15.9328 45.0793 15.4176 45.7154 15.4176C46.3516 15.4176 46.8668 15.9328 46.8668 16.5689V33.2243C46.8668 33.8598 46.3515 34.3757 45.7154 34.3757C45.0793 34.3757 44.5641 33.8598 44.5641 33.2243Z" fill="#3A405F" stroke="white" stroke-width="0.3"/>
<path d="M50.1158 33.2243V16.5689C50.1158 15.9328 50.631 15.4176 51.2672 15.4176C51.9033 15.4176 52.4186 15.9328 52.4186 16.5689V33.2243C52.4186 33.8598 51.9033 34.3757 51.2672 34.3757C50.6311 34.3757 50.1158 33.8598 50.1158 33.2243Z" fill="#3A405F" stroke="white" stroke-width="0.3"/>
<path d="M57.0555 17.8703V17.7203H56.9055H56.8189C56.1828 17.7203 55.6676 17.2045 55.6676 16.5689C55.6676 15.9328 56.1828 15.4176 56.8189 15.4176H58.2069C58.843 15.4176 59.3583 15.9328 59.3583 16.5689V19.3448C59.3583 19.9804 58.843 20.4962 58.2069 20.4962C57.5708 20.4962 57.0555 19.9804 57.0555 19.3448V17.8703Z" fill="#3A405F" stroke="white" stroke-width="0.3"/>
<path d="M6.7668 17.7203H6.6168V17.8703V19.3448C6.6168 19.9803 6.10091 20.4962 5.46543 20.4962C4.82932 20.4962 4.31406 19.9804 4.31406 19.3448V16.5689C4.31406 15.9328 4.82927 15.4176 5.46543 15.4176H6.85338C7.48891 15.4176 8.00474 15.9328 8.00474 16.5689C8.00474 17.2044 7.48886 17.7203 6.85338 17.7203H6.7668Z" fill="#3A405F" stroke="white" stroke-width="0.3"/>
<path d="M56.9055 32.0724H57.0555V31.9224V30.4479C57.0555 29.8117 57.5707 29.2965 58.2069 29.2965C58.843 29.2965 59.3583 29.8117 59.3583 30.4479V33.2237C59.3583 33.8593 58.843 34.3751 58.2069 34.3751H56.8189C56.1828 34.3751 55.6676 33.8593 55.6676 33.2237C55.6676 32.5882 56.1828 32.0724 56.8189 32.0724H56.9055Z" fill="#3A405F" stroke="white" stroke-width="0.3"/>
<path d="M6.6168 31.9224V32.0724H6.7668H6.85338C7.48886 32.0724 8.00474 32.5883 8.00474 33.2237C8.00474 33.8592 7.48886 34.3751 6.85338 34.3751H5.46543C4.82932 34.3751 4.31406 33.8593 4.31406 33.2237V30.4479C4.31406 29.8117 4.82927 29.2965 5.46543 29.2965C6.10096 29.2965 6.6168 29.8117 6.6168 30.4479V31.9224Z" fill="#3A405F" stroke="white" stroke-width="0.3"/>
</svg>
