<svg width="15" height="13" viewBox="0 0 15 13" fill="none" xmlns="http://www.w3.org/2000/svg">
<path d="M0 9.10684C0 8.77546 0.268629 8.50684 0.6 8.50684H2.38672C2.7181 8.50684 2.98673 8.77547 2.98673 9.10684V12.3753C2.98673 12.7066 2.7181 12.9753 2.38673 12.9753H0.6C0.268629 12.9753 0 12.7066 0 12.3753V9.10684Z" fill="#3A405F"/>
<path d="M4.01562 2.58633C4.01562 2.25496 4.28425 1.98633 4.61563 1.98633H6.40235C6.73372 1.98633 7.00235 2.25496 7.00235 2.58633V12.3754C7.00235 12.7067 6.73372 12.9754 6.40235 12.9754H4.61562C4.28425 12.9754 4.01562 12.7067 4.01562 12.3754V2.58633Z" fill="#3A405F"/>
<path d="M8.03027 5.69717C8.03027 5.3658 8.2989 5.09717 8.63027 5.09717H10.417C10.7484 5.09717 11.017 5.3658 11.017 5.69717V12.3749C11.017 12.7062 10.7484 12.9749 10.417 12.9749H8.63027C8.2989 12.9749 8.03027 12.7062 8.03027 12.3749V5.69717Z" fill="#3A405F"/>
<path d="M12.0137 0.6C12.0137 0.268629 12.2823 0 12.6137 0H14.4004C14.7318 0 15.0004 0.268629 15.0004 0.6V12.375C15.0004 12.7064 14.7318 12.975 14.4004 12.975H12.6137C12.2823 12.975 12.0137 12.7064 12.0137 12.375V0.6Z" fill="#3A405F"/>
</svg>
