<svg width="77" height="50" viewBox="0 0 77 50" fill="none" xmlns="http://www.w3.org/2000/svg">
<path d="M76.0919 20.9452L68.1767 19.3395L60.1247 5.65295C60.0246 5.48281 59.8819 5.34177 59.7106 5.2438C59.5393 5.14583 59.3453 5.09433 59.148 5.0944H55.2833V1.13396C55.2833 0.833215 55.1639 0.544787 54.9513 0.332128C54.7388 0.11947 54.4505 1.85369e-07 54.1499 1.85369e-07H50.199C49.8984 1.85369e-07 49.6101 0.11947 49.3976 0.332128C49.185 0.544787 49.0656 0.833215 49.0656 1.13396V5.0944H46.1012V1.13396C46.1012 0.985022 46.072 0.837527 46.0151 0.699911C45.9581 0.562294 45.8746 0.437254 45.7694 0.331939C45.6641 0.226625 45.5391 0.1431 45.4016 0.0861437C45.264 0.029187 45.1166 -8.49949e-05 44.9677 1.85369e-07H1.13344C0.98457 -8.49949e-05 0.837143 0.029187 0.69959 0.0861437C0.562036 0.1431 0.437053 0.226625 0.331787 0.331939C0.22652 0.437254 0.143035 0.562294 0.0861047 0.699911C0.0291742 0.837527 -8.49559e-05 0.985022 1.8528e-07 1.13396V43.5803C1.8528e-07 43.8811 0.119415 44.1695 0.331976 44.3822C0.544537 44.5948 0.832832 44.7143 1.13344 44.7143H7.93796C8.81363 46.174 10.0521 47.3819 11.5329 48.2206C13.0137 49.0592 14.6863 49.5 16.3879 49.5C18.0895 49.5 19.7621 49.0592 21.2429 48.2206C22.7237 47.3819 23.9622 46.174 24.8379 44.7143H52.1621C53.0378 46.174 54.2763 47.3819 55.7571 48.2206C57.2379 49.0592 58.9105 49.5 60.6121 49.5C62.3137 49.5 63.9863 49.0592 65.4671 48.2206C66.9479 47.3819 68.1864 46.174 69.062 44.7143H75.8666C76.1672 44.7143 76.4555 44.5948 76.668 44.3822C76.8806 44.1695 77 43.8811 77 43.5803V22.0571C77 21.7955 76.9096 21.5418 76.7441 21.3392C76.5787 21.1366 76.3483 20.9974 76.0919 20.9452ZM74.7318 29.2665H71.6158V27.1664H74.7331L74.7318 29.2665ZM65.47 19.2164H51.3325V12.191H61.3404L65.47 19.2164ZM51.3325 2.26533H53.0164V5.0918H51.3325V2.26533ZM58.4997 7.35972L60.0062 9.92053H50.199C49.8984 9.92053 49.6101 10.04 49.3976 10.2527C49.185 10.4653 49.0656 10.7537 49.0656 11.0545V20.3504C49.0656 20.6511 49.185 20.9395 49.3976 21.1522C49.6101 21.3649 49.8984 21.4843 50.199 21.4843H67.3418L74.7331 22.9837V24.8985H70.4824C70.1818 24.8987 69.8937 25.0182 69.6811 25.2308C69.4686 25.4435 69.3491 25.7318 69.349 26.0325V30.4005C69.349 30.7012 69.4684 30.9897 69.6809 31.2023C69.8935 31.415 70.1818 31.5345 70.4824 31.5345H74.7331V34.5456H69.0834C68.2102 33.0763 66.9702 31.8594 65.485 31.0143C63.9999 30.1691 62.3207 29.7247 60.6121 29.7247C58.9035 29.7247 57.2243 30.1691 55.7391 31.0143C54.254 31.8594 53.014 33.0763 52.1408 34.5456H46.1012V7.36232L58.4997 7.35972ZM43.8343 2.26533V34.5456H24.8573C23.9841 33.0763 22.744 31.8594 21.2589 31.0143C19.7738 30.1691 18.0945 29.7247 16.386 29.7247C14.6774 29.7247 12.9981 30.1691 11.513 31.0143C10.0279 31.8594 8.78787 33.0763 7.91464 34.5456H2.26688V2.26533H43.8343ZM2.26688 42.4464V36.8135H6.91398C6.36503 38.6514 6.36819 40.6102 6.92304 42.4464H2.26688ZM16.3863 47.2323C14.8798 47.2323 13.4072 46.7854 12.1546 45.9481C10.902 45.1107 9.92577 43.9206 9.3493 42.5281C8.77283 41.1357 8.62203 39.6035 8.91598 38.1253C9.20992 36.6471 9.93541 35.2893 11.0007 34.2236C12.066 33.1579 13.4232 32.4322 14.9007 32.1383C16.3783 31.8443 17.9098 31.9953 19.3015 32.5722C20.6933 33.149 21.8828 34.1258 22.7197 35.379C23.5565 36.6323 24.0031 38.1056 24.003 39.6128C24.0015 41.6333 23.1987 43.5706 21.771 44.9996C20.3432 46.4286 18.4071 47.2325 16.3876 47.2349L16.3863 47.2323ZM25.8528 42.4464C26.4076 40.6102 26.4108 38.6514 25.8618 36.8135H51.1382C50.5892 38.6514 50.5924 40.6102 51.1472 42.4464H25.8528ZM60.6124 47.2349C59.106 47.2351 57.6334 46.7883 56.3808 45.9512C55.1282 45.114 54.1519 43.924 53.5752 42.5318C52.9986 41.1395 52.8475 39.6074 53.1412 38.1292C53.4349 36.651 54.16 35.2932 55.225 34.2273C56.29 33.1615 57.647 32.4355 59.1244 32.1412C60.6018 31.8469 62.1332 31.9975 63.5251 32.574C64.9169 33.1504 66.1066 34.1268 66.9438 35.3797C67.781 36.6326 68.2281 38.1057 68.2285 39.6128C68.2269 41.6334 67.4241 43.5708 65.9962 44.9998C64.5684 46.4289 62.6321 47.2327 60.6124 47.2349ZM74.7318 42.449H70.0757C70.6305 40.6128 70.6337 38.654 70.0847 36.8161H74.7318V42.449Z" fill="#3A405F"/>
<path d="M16.4985 35.3564C15.6439 35.3566 14.8085 35.6101 14.0979 36.085C13.3874 36.5599 12.8336 37.2348 12.5066 38.0244C12.1796 38.814 12.094 39.6829 12.2608 40.5211C12.4276 41.3593 12.8391 42.1293 13.4435 42.7336C14.0478 43.3379 14.8177 43.7495 15.6559 43.9162C16.4942 44.083 17.363 43.9975 18.1526 43.6705C18.9422 43.3435 19.6171 42.7897 20.092 42.0791C20.5669 41.3686 20.8205 40.5332 20.8206 39.6785C20.8194 38.5326 20.3637 37.4339 19.5534 36.6237C18.7431 35.8134 17.6444 35.3576 16.4985 35.3564ZM16.4985 41.7678C16.0852 41.7677 15.6811 41.645 15.3375 41.4152C14.9939 41.1855 14.7261 40.859 14.5681 40.4771C14.41 40.0951 14.3687 39.6749 14.4495 39.2695C14.5303 38.8641 14.7294 38.4918 15.0218 38.1996C15.3142 37.9074 15.6866 37.7085 16.0921 37.628C16.4975 37.5474 16.9177 37.589 17.2995 37.7473C17.6814 37.9056 18.0077 38.1735 18.2372 38.5173C18.4668 38.8611 18.5892 39.2652 18.5891 39.6785C18.5884 40.2326 18.3679 40.7639 17.976 41.1556C17.584 41.5473 17.0527 41.7675 16.4985 41.7678Z" fill="#3A405F"/>
<path d="M60.4998 35.3564C59.6451 35.3563 58.8096 35.6096 58.0988 36.0844C57.3881 36.5591 56.8341 37.234 56.5069 38.0235C56.1797 38.8131 56.094 39.682 56.2606 40.5203C56.4273 41.3586 56.8387 42.1287 57.443 42.7331C58.0473 43.3376 58.8172 43.7493 59.6555 43.9161C60.4937 44.083 61.3626 43.9976 62.1523 43.6706C62.942 43.3436 63.617 42.7898 64.0919 42.0793C64.5669 41.3687 64.8205 40.5332 64.8206 39.6785C64.8192 38.5329 64.3636 37.4345 63.5536 36.6243C62.7437 35.8141 61.6454 35.3581 60.4998 35.3564ZM60.4998 41.7678C60.0864 41.7679 59.6822 41.6455 59.3385 41.4159C58.9947 41.1863 58.7267 40.8599 58.5684 40.478C58.4102 40.096 58.3687 39.6758 58.4493 39.2703C58.53 38.8648 58.729 38.4924 59.0214 38.2001C59.3137 37.9077 59.6861 37.7087 60.0916 37.6281C60.4971 37.5474 60.9173 37.5889 61.2992 37.7471C61.6812 37.9054 62.0076 38.1734 62.2372 38.5172C62.4668 38.8609 62.5892 39.2651 62.5891 39.6785C62.5883 40.2324 62.3679 40.7633 61.9762 41.1549C61.5846 41.5466 61.0537 41.767 60.4998 41.7678Z" fill="#3A405F"/>
<path d="M50.2065 25.9284H52.7226C53.0141 25.9284 53.2937 25.8043 53.4998 25.5832C53.7059 25.3622 53.8217 25.0624 53.8217 24.7499C53.8217 24.4373 53.7059 24.1375 53.4998 23.9165C53.2937 23.6955 53.0141 23.5713 52.7226 23.5713H50.2065C49.915 23.5713 49.6355 23.6955 49.4293 23.9165C49.2232 24.1375 49.1074 24.4373 49.1074 24.7499C49.1074 25.0624 49.2232 25.3622 49.4293 25.5832C49.6355 25.8043 49.915 25.9284 50.2065 25.9284Z" fill="#3A405F"/>
<path d="M7.43968 7.85714H18.8806C19.1868 7.85714 19.4805 7.73297 19.697 7.51195C19.9135 7.29092 20.0352 6.99115 20.0352 6.67857C20.0352 6.36599 19.9135 6.06622 19.697 5.8452C19.4805 5.62417 19.1868 5.5 18.8806 5.5H7.43968C7.13348 5.5 6.83982 5.62417 6.62331 5.8452C6.40679 6.06622 6.28516 6.36599 6.28516 6.67857C6.28516 6.99115 6.40679 7.29092 6.62331 7.51195C6.83982 7.73297 7.13348 7.85714 7.43968 7.85714Z" fill="#EB5E28"/>
<path d="M23.1639 7.85714H25.5523C25.8607 7.85714 26.1565 7.73297 26.3746 7.51195C26.5927 7.29092 26.7153 6.99115 26.7153 6.67857C26.7153 6.36599 26.5927 6.06622 26.3746 5.8452C26.1565 5.62417 25.8607 5.5 25.5523 5.5H23.1639C22.8555 5.5 22.5597 5.62417 22.3416 5.8452C22.1235 6.06622 22.001 6.36599 22.001 6.67857C22.001 6.99115 22.1235 7.29092 22.3416 7.51195C22.5597 7.73297 22.8555 7.85714 23.1639 7.85714Z" fill="#EB5E28"/>
</svg>
