<svg width="70" height="62" viewBox="0 0 70 62" fill="none" xmlns="http://www.w3.org/2000/svg">
<path d="M68.9746 52.3337C69.5409 52.3337 70 51.8746 70 51.3084V46.9889C70 46.4226 69.5409 45.9635 68.9746 45.9635H64.838V34.816C64.838 34.2497 64.3789 33.7906 63.8127 33.7906C63.2464 33.7906 62.7873 34.2497 62.7873 34.816V45.9635H30.7095V24.0311V23.9831V15.4652H42.4267V24.1802C42.4267 24.7465 42.8858 25.2056 43.4521 25.2056H50.0448C50.6111 25.2056 51.0702 24.7465 51.0702 24.1802V15.4652H53.756H62.1026C62.4802 15.4652 62.7873 15.7724 62.7873 16.15V30.7143C62.7873 31.2806 63.2464 31.7397 63.8127 31.7397C64.3789 31.7397 64.838 31.2806 64.838 30.7143V16.15C64.838 14.6416 63.6109 13.4144 62.1026 13.4144H54.7814V2.73547C54.7814 1.22705 53.5542 0 52.046 0H7.32252C5.8141 0 4.58705 1.22719 4.58705 2.73547V10.9921C4.58705 11.5583 5.04615 12.0174 5.61244 12.0174C6.17873 12.0174 6.63783 11.5583 6.63783 10.9921V2.73547C6.63783 2.35785 6.94504 2.05078 7.32252 2.05078H13.1878V7.89564C13.1878 8.46193 13.6469 8.92103 14.2131 8.92103H21.0834C21.6497 8.92103 22.1088 8.46193 22.1088 7.89564V2.05064H28.6588V14.4398V22.9577H6.6377V15.0936C6.6377 14.5273 6.17859 14.0682 5.6123 14.0682C5.04602 14.0682 4.58691 14.5273 4.58691 15.0936V45.9633H1.02539C0.459102 45.9633 0 46.4224 0 46.9887V51.3082C0 51.8745 0.459102 52.3336 1.02539 52.3336H3.47867V54.9976H1.02539C0.459102 54.9976 0 55.4567 0 56.023V60.3425C0 60.9087 0.459102 61.3678 1.02539 61.3678H68.9746C69.5409 61.3678 70 60.9087 70 60.3425V56.023C70 55.4567 69.5409 54.9976 68.9746 54.9976H66.3048V52.3336H68.9746V52.3337ZM20.058 6.87012H15.2385V2.05064H20.058V6.87012ZM15.2385 25.0564H20.058V29.8759H15.2385V25.0564ZM49.0194 23.1548H44.4775V15.4652H49.0194V23.1548ZM52.7305 2.73547V13.4144H50.0447H43.452H30.7094V2.05064H37.2594V7.89551C37.2594 8.4618 37.7185 8.9209 38.2848 8.9209H45.1551C45.7213 8.9209 46.1805 8.4618 46.1805 7.89551V2.05064H52.0457C52.4234 2.05064 52.7305 2.35785 52.7305 2.73547ZM39.3103 2.05064H44.1298V6.87012H39.3103V2.05064ZM6.6377 25.0564H13.1878V30.9012C13.1878 31.4675 13.6469 31.9266 14.2131 31.9266H21.0834C21.6497 31.9266 22.1088 31.4675 22.1088 30.9012V25.0564H28.6588V45.9633H6.6377V25.0564ZM2.05078 48.0141H67.9492V50.2828H2.05078V48.0141ZM49.0537 54.9976V52.3336H55.2318V54.9976H49.0537ZM20.7297 52.3337V54.9977H14.5517V52.3337H20.7297ZM22.7805 52.3337H29.7519V54.9977H22.7805V52.3337ZM31.8027 52.3337H37.9807V54.9977H31.8027V52.3337ZM40.0315 52.3337H47.0029V54.9977H40.0315V52.3337ZM5.52945 52.3337H12.5009V54.9977H5.52945V52.3337ZM67.9492 59.3172H2.05078V57.0485H67.9492V59.3172ZM64.254 54.9976H57.2826V52.3336H64.254V54.9976Z" fill="#3A405F"/>
<path d="M36.1592 34.0347H41.2211C41.7873 34.0347 42.2464 33.5756 42.2464 33.0093C42.2464 32.443 41.7873 31.9839 41.2211 31.9839H36.1592C35.5929 31.9839 35.1338 32.443 35.1338 33.0093C35.1338 33.5756 35.5929 34.0347 36.1592 34.0347Z" fill="#EB5E28"/>
<path d="M36.1592 38.4868H44.2058C44.7721 38.4868 45.2312 38.0277 45.2312 37.4614C45.2312 36.8951 44.7721 36.436 44.2058 36.436H36.1592C35.5929 36.436 35.1338 36.8951 35.1338 37.4614C35.1338 38.0277 35.5929 38.4868 36.1592 38.4868Z" fill="#EB5E28"/>
</svg>
