<svg width="15" height="19" viewBox="0 0 15 19" fill="none" xmlns="http://www.w3.org/2000/svg">
<path d="M1.35128 18.4499H13.6487C14.3923 18.4499 15 17.8422 15 17.0986V9.74962C15 9.00604 14.3923 8.39834 13.6487 8.39834H12.6975V5.19753C12.6975 2.33266 10.3649 0 7.5 0C4.63513 0 2.30247 2.33266 2.30247 5.19753V8.39834H1.35128C0.6077 8.39834 0 9.00604 0 9.74962V17.0986C0 17.8422 0.6077 18.4499 1.35128 18.4499ZM3.22723 5.19753C3.22723 2.84222 5.14469 0.924761 7.5 0.924761C9.85531 0.924761 11.7728 2.84222 11.7728 5.19753V8.39834H3.22723V5.19753ZM0.924761 9.74962C0.924761 9.5156 1.11726 9.3231 1.35128 9.3231H13.6487C13.8827 9.3231 14.0752 9.5156 14.0752 9.74962V17.0986C14.0752 17.3327 13.8827 17.5252 13.6487 17.5252H1.35128C1.11726 17.5252 0.924761 17.3327 0.924761 17.0986V9.74962Z" fill="#3A405F"/>
<path d="M7.50019 15.3058C8.53819 15.3058 9.38368 14.4603 9.38368 13.4223C9.38368 12.3843 8.53819 11.5388 7.50019 11.5388C6.46219 11.5388 5.6167 12.3843 5.6167 13.4223C5.6167 14.4641 6.46219 15.3058 7.50019 15.3058ZM7.50019 12.4674C8.02863 12.4674 8.45892 12.8977 8.45892 13.4261C8.45892 13.9545 8.02863 14.3848 7.50019 14.3848C6.97176 14.3848 6.54146 13.9545 6.54146 13.4261C6.54146 12.8977 6.97176 12.4674 7.50019 12.4674Z" fill="#3A405F"/>
</svg>
