<svg width="70" height="70" viewBox="0 0 70 70" fill="none" xmlns="http://www.w3.org/2000/svg">
<path d="M12.9533 40.4939C11.7478 41.2089 10.9375 42.5231 10.9375 44.0234C10.9375 46.285 12.7775 48.125 15.0391 48.125C16.8213 48.125 18.3411 46.9819 18.9055 45.3906H29.5312C31.7929 45.3906 33.6328 47.2306 33.6328 49.4922C33.6328 51.7538 31.7929 53.5938 29.5312 53.5938H13.125C9.35566 53.5938 6.28906 56.6604 6.28906 60.4297C6.28906 64.199 9.35566 67.2656 13.125 67.2656H26.7969C27.552 67.2656 28.1641 66.6535 28.1641 65.8984C28.1641 65.1433 27.552 64.5312 26.7969 64.5312H13.125C10.8634 64.5312 9.02344 62.6913 9.02344 60.4297C9.02344 58.1681 10.8634 56.3281 13.125 56.3281H29.5312C33.3006 56.3281 36.3672 53.2615 36.3672 49.4922C36.3672 45.7229 33.3006 42.6562 29.5312 42.6562H18.9055C18.5821 41.7446 17.9453 40.9805 17.1248 40.4939L27.5671 23.3609C29.2098 20.8917 30.0781 18.0146 30.0781 15.0391C30.0781 6.74652 23.3316 0 15.0391 0C6.74652 0 0 6.74652 0 15.0391C0 18.0146 0.868301 20.8917 2.51098 23.3609L12.9533 40.4939ZM15.0391 45.3906C14.2852 45.3906 13.6719 44.7773 13.6719 44.0234C13.6719 43.2696 14.2852 42.6562 15.0391 42.6562C15.7929 42.6562 16.4062 43.2696 16.4062 44.0234C16.4062 44.7773 15.7929 45.3906 15.0391 45.3906ZM15.0391 2.73438C21.8239 2.73438 27.3438 8.25426 27.3438 15.0391C27.3438 17.482 26.6291 19.8427 25.2772 21.8661C25.2667 21.8818 25.2565 21.8978 25.2466 21.9141L15.0391 38.662C15.0391 38.662 4.81141 21.8818 4.80088 21.8661C3.449 19.8427 2.73438 17.482 2.73438 15.0391C2.73438 8.25426 8.25426 2.73438 15.0391 2.73438Z" fill="#3A405F"/>
<path d="M15.0391 21.875C18.8084 21.875 21.875 18.8084 21.875 15.0391C21.875 11.2697 18.8084 8.20312 15.0391 8.20312C11.2697 8.20312 8.20312 11.2697 8.20312 15.0391C8.20312 18.8084 11.2697 21.875 15.0391 21.875ZM15.0391 10.9375C17.3007 10.9375 19.1406 12.7775 19.1406 15.0391C19.1406 17.3007 17.3007 19.1406 15.0391 19.1406C12.7775 19.1406 10.9375 17.3007 10.9375 15.0391C10.9375 12.7775 12.7775 10.9375 15.0391 10.9375Z" fill="#f44a0e"/>
<path d="M54.9609 22.6953C46.6684 22.6953 39.9219 29.4418 39.9219 37.7344C39.9219 40.7147 40.7929 43.5962 42.4408 46.0679L52.8441 62.3867C52.0386 62.8741 51.4139 63.631 51.0947 64.5312H39.1016C38.3465 64.5312 37.7344 65.1433 37.7344 65.8984C37.7344 66.6535 38.3465 67.2656 39.1016 67.2656H51.0945C51.6589 68.8569 53.1785 70 54.9609 70C57.2225 70 59.0625 68.16 59.0625 65.8984C59.0625 64.4108 58.2664 63.1058 57.0779 62.3867L67.4812 46.0679C69.129 43.5962 70 40.7147 70 37.7344C70 29.4418 63.2535 22.6953 54.9609 22.6953ZM54.9609 67.2656C54.2071 67.2656 53.5938 66.6523 53.5938 65.8984C53.5938 65.1446 54.2071 64.5312 54.9609 64.5312C55.7148 64.5312 56.3281 65.1446 56.3281 65.8984C56.3281 66.6523 55.7148 67.2656 54.9609 67.2656ZM65.1991 44.5614C65.1938 44.5696 54.9609 60.6207 54.9609 60.6207C54.9609 60.6207 44.7281 44.5695 44.7228 44.5614C43.3709 42.538 42.6562 40.1773 42.6562 37.7344C42.6562 30.9496 48.1761 25.4297 54.9609 25.4297C61.7457 25.4297 67.2656 30.9496 67.2656 37.7344C67.2656 40.1773 66.551 42.538 65.1991 44.5614Z" fill="#3A405F"/>
<path d="M54.9609 30.8984C51.1916 30.8984 48.125 33.965 48.125 37.7344C48.125 41.5037 51.1916 44.5703 54.9609 44.5703C58.7303 44.5703 61.7969 41.5037 61.7969 37.7344C61.7969 33.965 58.7303 30.8984 54.9609 30.8984ZM54.9609 41.8359C52.6993 41.8359 50.8594 39.996 50.8594 37.7344C50.8594 35.4728 52.6993 33.6328 54.9609 33.6328C57.2225 33.6328 59.0625 35.4728 59.0625 37.7344C59.0625 39.996 57.2225 41.8359 54.9609 41.8359Z" fill="#3A405F"/>
<path d="M32.9492 67.2656C33.7043 67.2656 34.3164 66.6535 34.3164 65.8984C34.3164 65.1434 33.7043 64.5312 32.9492 64.5312C32.1941 64.5312 31.582 65.1434 31.582 65.8984C31.582 66.6535 32.1941 67.2656 32.9492 67.2656Z" fill="#3A405F"/>
</svg>
