<svg width="14" height="17" viewBox="0 0 14 17" fill="none" xmlns="http://www.w3.org/2000/svg">
<path d="M13.2906 16.5675V14.1837C13.2906 11.2337 11.3568 8.72678 8.69514 7.86184C9.97497 7.14105 10.8434 5.7698 10.8434 4.19814C10.8434 1.88459 8.95884 0 6.64529 0C4.33175 0 2.44716 1.88459 2.44716 4.19814C2.44716 5.7698 3.31561 7.14105 4.59545 7.86184C1.9303 8.72678 0 11.2337 0 14.1837V16.5675C0 16.8066 0.193382 17 0.432472 17H12.8651C13.0972 16.9965 13.2906 16.8066 13.2906 16.5675ZM3.30507 4.19814C3.30507 2.35926 4.8029 0.861427 6.64178 0.861427C8.48066 0.861427 9.97849 2.35926 9.97849 4.19814C9.97849 6.03702 8.48066 7.53485 6.64178 7.53485C4.8029 7.53485 3.30507 6.03702 3.30507 4.19814ZM12.4292 16.1351H0.854395V14.1801C0.854395 10.9911 3.44922 8.39276 6.64178 8.39276C9.83433 8.39276 12.4292 10.9876 12.4292 14.1801V16.1351Z" fill="#3A405F"/>
</svg>
