<svg width="16" height="16" viewBox="0 0 16 16" fill="none" xmlns="http://www.w3.org/2000/svg">
<g clip-path="url(#clip0)">
<path d="M2.33333 4.66658H1C0.448667 4.66658 0 4.21792 0 3.66658V2.33325C0 1.78192 0.448667 1.33325 1 1.33325H2.33333C2.88467 1.33325 3.33333 1.78192 3.33333 2.33325V3.66658C3.33333 4.21792 2.88467 4.66658 2.33333 4.66658ZM1 1.99992C0.816667 1.99992 0.666667 2.14992 0.666667 2.33325V3.66658C0.666667 3.84992 0.816667 3.99992 1 3.99992H2.33333C2.51667 3.99992 2.66667 3.84992 2.66667 3.66658V2.33325C2.66667 2.14992 2.51667 1.99992 2.33333 1.99992H1Z" fill="#B4B6BD"/>
<path d="M2.33333 10.0001H1C0.448667 10.0001 0 9.55141 0 9.00008V7.66675C0 7.11541 0.448667 6.66675 1 6.66675H2.33333C2.88467 6.66675 3.33333 7.11541 3.33333 7.66675V9.00008C3.33333 9.55141 2.88467 10.0001 2.33333 10.0001ZM1 7.33341C0.816667 7.33341 0.666667 7.48341 0.666667 7.66675V9.00008C0.666667 9.18341 0.816667 9.33341 1 9.33341H2.33333C2.51667 9.33341 2.66667 9.18341 2.66667 9.00008V7.66675C2.66667 7.48341 2.51667 7.33341 2.33333 7.33341H1Z" fill="#B4B6BD"/>
<path d="M2.33333 15.3333H1C0.448667 15.3333 0 14.8847 0 14.3333V13C0 12.4487 0.448667 12 1 12H2.33333C2.88467 12 3.33333 12.4487 3.33333 13V14.3333C3.33333 14.8847 2.88467 15.3333 2.33333 15.3333ZM1 12.6667C0.816667 12.6667 0.666667 12.8167 0.666667 13V14.3333C0.666667 14.5167 0.816667 14.6667 1 14.6667H2.33333C2.51667 14.6667 2.66667 14.5167 2.66667 14.3333V13C2.66667 12.8167 2.51667 12.6667 2.33333 12.6667H1Z" fill="#B4B6BD"/>
<path d="M15.6665 3.33341H4.99984C4.81584 3.33341 4.6665 3.18408 4.6665 3.00008C4.6665 2.81608 4.81584 2.66675 4.99984 2.66675H15.6665C15.8505 2.66675 15.9998 2.81608 15.9998 3.00008C15.9998 3.18408 15.8505 3.33341 15.6665 3.33341Z" fill="#B4B6BD"/>
<path d="M15.6665 8.66666H4.99984C4.81584 8.66666 4.6665 8.51733 4.6665 8.33333C4.6665 8.14933 4.81584 8 4.99984 8H15.6665C15.8505 8 15.9998 8.14933 15.9998 8.33333C15.9998 8.51733 15.8505 8.66666 15.6665 8.66666Z" fill="#B4B6BD"/>
<path d="M15.6665 13.9999H4.99984C4.81584 13.9999 4.6665 13.8506 4.6665 13.6666C4.6665 13.4826 4.81584 13.3333 4.99984 13.3333H15.6665C15.8505 13.3333 15.9998 13.4826 15.9998 13.6666C15.9998 13.8506 15.8505 13.9999 15.6665 13.9999Z" fill="#B4B6BD"/>
</g>
<defs>
<clipPath id="clip0">
<rect width="16" height="16" fill="white"/>
</clipPath>
</defs>
</svg>
