<svg width="20" height="20" viewBox="0 0 20 20" fill="none" xmlns="http://www.w3.org/2000/svg">
<g clip-path="url(#clip0)">
<path d="M17.9167 19.1666H2.08333C0.935 19.1666 0 18.2316 0 17.0833V2.91658C0 1.76825 0.935 0.833252 2.08333 0.833252H17.9167C19.065 0.833252 20 1.76825 20 2.91658V17.0833C20 18.2316 19.065 19.1666 17.9167 19.1666ZM2.08333 1.66659C1.39417 1.66659 0.833333 2.22742 0.833333 2.91658V17.0833C0.833333 17.7724 1.39417 18.3333 2.08333 18.3333H17.9167C18.6058 18.3333 19.1667 17.7724 19.1667 17.0833V2.91658C19.1667 2.22742 18.6058 1.66659 17.9167 1.66659H2.08333Z" fill="#B4B6BD"/>
<path d="M19.5833 6.66659H0.416667C0.186667 6.66659 0 6.47992 0 6.24992C0 6.01992 0.186667 5.83325 0.416667 5.83325H19.5833C19.8133 5.83325 20 6.01992 20 6.24992C20 6.47992 19.8133 6.66659 19.5833 6.66659Z" fill="#B4B6BD"/>
<path d="M19.5833 10.8333H0.416667C0.186667 10.8333 0 10.6467 0 10.4167C0 10.1867 0.186667 10 0.416667 10H19.5833C19.8133 10 20 10.1867 20 10.4167C20 10.6467 19.8133 10.8333 19.5833 10.8333Z" fill="#B4B6BD"/>
<path d="M19.5833 15.0001H0.416667C0.186667 15.0001 0 14.8134 0 14.5834C0 14.3534 0.186667 14.1667 0.416667 14.1667H19.5833C19.8133 14.1667 20 14.3534 20 14.5834C20 14.8134 19.8133 15.0001 19.5833 15.0001Z" fill="#B4B6BD"/>
<path d="M5.41667 19.1666C5.18667 19.1666 5 18.9799 5 18.7499V6.24992C5 6.01992 5.18667 5.83325 5.41667 5.83325C5.64667 5.83325 5.83333 6.01992 5.83333 6.24992V18.7499C5.83333 18.9799 5.64667 19.1666 5.41667 19.1666Z" fill="#B4B6BD"/>
<path d="M10.0002 19.1666C9.77016 19.1666 9.5835 18.9799 9.5835 18.7499V6.24992C9.5835 6.01992 9.77016 5.83325 10.0002 5.83325C10.2302 5.83325 10.4168 6.01992 10.4168 6.24992V18.7499C10.4168 18.9799 10.2302 19.1666 10.0002 19.1666Z" fill="#B4B6BD"/>
<path d="M14.5832 19.1666C14.3532 19.1666 14.1665 18.9799 14.1665 18.7499V6.24992C14.1665 6.01992 14.3532 5.83325 14.5832 5.83325C14.8132 5.83325 14.9998 6.01992 14.9998 6.24992V18.7499C14.9998 18.9799 14.8132 19.1666 14.5832 19.1666Z" fill="#B4B6BD"/>
</g>
<defs>
<clipPath id="clip0">
<rect width="20" height="20" fill="white"/>
</clipPath>
</defs>
</svg>
